<?xml version="1.0" encoding="utf-8"?>
<!-- Generator: Adobe Illustrator 16.0.0, SVG Export Plug-In . SVG Version: 6.00 Build 0)  -->
<!DOCTYPE svg PUBLIC "-//W3C//DTD SVG 1.1//EN" "http://www.w3.org/Graphics/SVG/1.1/DTD/svg11.dtd">
<svg version="1.1" id="Layer_1" xmlns="http://www.w3.org/2000/svg" xmlns:xlink="http://www.w3.org/1999/xlink" x="0px" y="0px"
	 width="118.083px" height="73.473px" viewBox="0 0 118.083 73.473" enable-background="new 0 0 118.083 73.473"
	 xml:space="preserve">
<path id="Behance_1_" fill="#C1272D" d="M106.639,10.4h-29.59V3.05h29.59V10.4z M57.354,40.536c1.91,2.953,2.863,6.547,2.863,10.762
	c0,4.357-1.076,8.271-3.265,11.724c-1.392,2.287-3.121,4.219-5.197,5.771c-2.339,1.801-5.11,3.031-8.292,3.689
	c-3.193,0.66-6.65,0.992-10.373,0.992H0V0h35.483c8.946,0.146,15.285,2.736,19.029,7.826c2.247,3.123,3.36,6.867,3.36,11.219
	c0,4.492-1.127,8.088-3.396,10.817c-1.262,1.53-3.127,2.923-5.595,4.182C52.621,35.412,55.458,37.567,57.354,40.536z M16.946,28.967
	h15.547c3.192,0,5.778-0.607,7.766-1.82c1.987-1.213,2.979-3.366,2.979-6.46c0-3.418-1.313-5.687-3.947-6.778
	c-2.263-0.758-5.159-1.147-8.672-1.147H16.946V28.967z M44.736,50.249c0-3.817-1.56-6.457-4.673-7.873
	c-1.74-0.805-4.198-1.215-7.347-1.246h-15.77v19.582h15.526c3.188,0,5.658-0.418,7.439-1.289
	C43.125,57.821,44.736,54.774,44.736,50.249z M117.615,38.297c0.359,2.403,0.518,5.891,0.453,10.446H79.75
	c0.213,5.291,2.037,8.988,5.502,11.105c2.086,1.325,4.617,1.977,7.586,1.977c3.123,0,5.672-0.793,7.635-2.416
	c1.068-0.86,2.012-2.077,2.826-3.608h14.045c-0.369,3.123-2.061,6.291-5.096,9.512c-4.711,5.115-11.314,7.684-19.793,7.684
	c-7.006,0-13.184-2.162-18.539-6.477c-5.344-4.328-8.025-11.348-8.025-21.084c0-9.128,2.408-16.117,7.24-20.981
	c4.852-4.875,11.111-7.3,18.828-7.3c4.574,0,8.695,0.816,12.375,2.464c3.67,1.646,6.699,4.234,9.086,7.791
	C115.578,30.543,116.969,34.167,117.615,38.297z M103.791,39.667c-0.258-3.656-1.479-6.427-3.676-8.317
	c-2.184-1.897-4.908-2.851-8.158-2.851c-3.539,0-6.266,1.02-8.209,3.02c-1.953,1.996-3.17,4.713-3.668,8.15h23.711V39.667z"/>
</svg>
