<?xml version="1.0" encoding="utf-8"?>
<!-- Generator: Adobe Illustrator 16.0.0, SVG Export Plug-In . SVG Version: 6.00 Build 0)  -->
<!DOCTYPE svg PUBLIC "-//W3C//DTD SVG 1.1//EN" "http://www.w3.org/Graphics/SVG/1.1/DTD/svg11.dtd">
<svg version="1.1" id="Layer_1" xmlns="http://www.w3.org/2000/svg" xmlns:xlink="http://www.w3.org/1999/xlink" x="0px" y="0px"
	 width="172.92px" height="213.178px" viewBox="0 0 172.92 213.178" enable-background="new 0 0 172.92 213.178"
	 xml:space="preserve">
<g>
	<g>
		<path d="M23.928,26.012c-0.431-0.082-0.669-0.28-0.714-0.596c-0.045-0.315,0.076-0.495,0.363-0.536
			c0.191-0.027,0.457-0.012,0.796,0.045c0.339,0.057,0.625,0.068,0.854,0.037c1.32-0.183,2.602-0.709,3.854-1.583
			c1.251-0.874,2.332-1.948,3.243-3.224c0.91-1.277,1.704-2.65,2.378-4.12c0.674-1.47,1.163-2.944,1.461-4.425
			c0.298-1.481,0.379-2.846,0.238-4.098c-0.141-1.251-0.545-2.165-1.215-2.741c-0.67-0.576-1.674-0.788-3.007-0.628
			c-0.756,0.091-1.403,0.545-1.937,1.358c-0.534,0.814-0.888,1.679-1.063,2.591c-0.175,0.913-0.219,1.694-0.136,2.346
			c0.251,1.976,1.339,3.104,3.259,3.4c-0.212,0.117-0.317,0.175-0.528,0.292c-0.035,0.042-0.284-0.012-0.75-0.163
			c-0.465-0.15-0.811-0.308-1.019-0.412c-0.938-0.47-1.649-1.457-1.856-3.06c-0.108-0.839-0.053-1.771,0.167-2.793
			c0.22-1.023,0.658-1.973,1.316-2.851c0.657-0.877,1.457-1.374,2.394-1.486c2.948-0.354,4.605,1.117,4.97,4.375
			c0.364,3.259-0.339,6.441-2.058,9.557c-1.718,3.116-3.993,5.616-6.808,7.528c-1,0.679-1.994,1.092-2.987,1.229
			C24.764,26.108,24.358,26.094,23.928,26.012z"/>
		<path d="M44.908,20.724c-0.033-0.336-0.086-0.92-0.16-1.753s-0.126-2.101-0.198-2.148c-0.104-0.069-1.257,0.918-2.163,2.259
			c-0.907,1.341-1.428,2.046-1.489,2.113c-0.676,0.737-1.214,1.817-1.533,2.266c-0.153,0.215-0.413,0.386-0.796,0.429
			c-0.028-0.247-0.041-0.37-0.069-0.616c0.32-1.613,0.482-2.419,0.81-4.031c-0.15-1.363-0.013-2.4,0.396-3.105
			c0.116-0.199,0.233-0.309,0.35-0.321c0.194-0.021,0.324,0.281,0.391,0.907s0.044,1.328-0.068,2.105
			c-0.112,0.778-0.085,1.924-0.085,1.924c0.016,0.005,0.544-0.741,1.223-1.719c0.678-0.979,1.092-1.588,1.231-1.715
			c0.1-0.091,0.339-0.308,0.639-0.632c0.62-0.668,1.224-1.03,1.749-1.081c0.292-0.029,0.523,0.064,0.581,0.227
			c0.059,0.167,0.081,0.534,0.125,0.992c0.044,0.459,0.036,1.187-0.023,2.184c-0.059,0.997-0.078,1.796-0.031,2.367
			c0.07,0.866,0.503,1.283,1.252,1.211c0.537-0.051,1.042-0.247,1.515-0.583c0.473-0.336,0.848-0.699,1.123-1.092
			c0.275-0.393,0.593-0.845,0.957-1.358c0.363-0.513,0.691-0.895,0.982-1.146c0.01,0.112,0.014,0.168,0.024,0.28
			c0.077,0.898-0.443,1.88-1.548,2.951c-1.106,1.071-2.143,1.654-3.12,1.748c-0.379,0.037-0.569,0.054-0.948,0.091
			c-0.306-0.159-0.511-0.318-0.614-0.478s-0.177-0.275-0.223-0.346c-0.046-0.071-0.083-0.185-0.108-0.343
			c-0.025-0.157-0.041-0.275-0.048-0.351C44.983,21.463,44.957,21.217,44.908,20.724z"/>
		<path d="M66.842,23.442c-0.116,1.599-0.173,2.398-0.286,3.998c-0.065,0.191-0.181,0.661-0.346,1.404
			c-0.166,0.744-0.225,1.267-0.252,1.483c-0.167,1.318-0.838,2.244-1.472,2.378c-0.057-0.008-0.087-0.011-0.145-0.019
			c-0.038,0.002-0.14-0.048-0.307-0.15s-0.266-0.176-0.297-0.221c-0.031-0.045-0.097-0.243-0.196-0.594
			c-0.098-0.351-0.201-0.69-0.308-1.013c-0.106-0.323-0.177-0.773-0.215-1.354s-0.029-1.105,0.026-1.57
			c0.056-0.466,0.173-1.005,0.354-1.619c0.181-0.614,0.349-1.123,0.505-1.528c0.157-0.406,0.372-0.947,0.648-1.623
			c0.276-0.677,0.465-1.148,0.564-1.418c0.1-0.269,0.139-0.562,0.12-0.882c-0.123-0.885-0.185-1.329-0.308-2.213
			c-0.069-1.144-0.007-3.037,0.487-3.558c0.024-0.025,0.106-0.035,0.146-0.037c0.409-0.024,0.637,0.387,0.686,1.231
			c0.021,0.375-0.132,1.249-0.132,1.249c0.01,0.004,1.281-1.876,2.15-2.591c0.869-0.715,1.909-1.398,2.694-1.479
			c0.834-0.085,1.557,0.67,1.607,1.759c0.011,0.244-0.007,0.529-0.048,0.849c-0.178,1.371-0.721,2.712-1.645,3.973
			c-0.558,0.761-1.263,1.125-1.556,1.292c-0.017,0.009-0.026,0.059-0.023,0.115c0.003,0.056,0.106,0.078,0.308,0.067
			c0.202-0.011,0.689-0.186,1.463-0.524c1.792-0.785,3.115-1.558,3.955-2.295c0.203-0.178,0.366-0.341,0.39-0.439
			c0.049-0.205,0.061-0.388,0.159-0.373c0.098,0.015,0.148,0.083,0.153,0.205s-0.004,0.274-0.04,0.438
			c-0.213,0.983-1.288,1.96-3.094,2.843c-1.238,0.605-2.956,1.066-4.711,1.623c-0.055,0.017-0.152,0.057-0.283,0.101
			c-0.353,0.117-0.537,0.18-0.536,0.199C66.97,23.266,66.927,23.324,66.842,23.442z M65.927,22.113
			c-0.075-0.023-1.472,2.446-1.806,3.681c-0.333,1.235-0.476,2.196-0.432,2.881c0.044,0.684,0.102,1.152,0.175,1.401
			c0.073,0.249,0.123,0.434,0.149,0.555c0.027,0.121,0.058,0.211,0.09,0.276c0.033,0.063,0.072,0.144,0.113,0.235
			c0.09,0.198,0.349,0.417,0.396,0.398c0.448-0.185,1.028-2.766,1.179-4.224C65.941,25.857,65.927,22.113,65.927,22.113z
			 M70.751,14.484c-0.136,0.007-0.294,0.031-0.463,0.08c-1.117,0.325-2.056,1.353-2.769,2.94c-0.544,1.212-0.798,2.331-0.74,3.344
			c0.021,0.356,0.09,0.953,0.175,1.006c0.261,0.167,1.839-0.99,2.9-2.583c1.128-1.694,1.684-3.038,1.637-4.033
			C71.466,14.713,71.219,14.461,70.751,14.484z"/>
		<path d="M74.932,18.583c-0.04-0.145-0.042-0.328-0.048-0.479c-0.05-1.201,0.309-2.457,1.087-3.766
			c0.778-1.309,1.826-1.988,3.136-2.031c0.253-0.008,0.462,0.056,0.624,0.191c0.161,0.136,0.246,0.369,0.256,0.697
			c0.01,0.329-0.07,0.716-0.241,1.164c-0.171,0.448-0.438,0.902-0.802,1.366c-0.363,0.464-0.676,0.842-0.938,1.133
			c-0.262,0.292-0.631,0.67-1.107,1.14c-0.476,0.469-0.816,0.769-0.853,0.851c-0.042,0.093-0.019,0.236-0.019,0.254
			c0.02,0.507,0.287,0.891,0.798,1.154c0.511,0.263,1.035,0.385,1.574,0.366c1.29-0.045,2.308-0.303,3.056-0.776
			c0.748-0.473,1.676-1.262,2.59-2.352c0.151-0.18,0.239-0.343,0.266-0.456s0.189-0.357,0.296-0.374
			c0.105-0.017,0.336,0.294,0.304,0.528c-0.071,0.511-0.554,1.22-1.117,1.901c-0.562,0.681-1.234,1.281-2.006,1.759
			c-1.06,0.656-1.994,0.99-2.752,1.016s-1.503-0.199-2.234-0.679S75.252,19.738,74.932,18.583z M79.2,13.349
			c-0.18-0.168-1.604,0.487-2.292,1.377c-0.688,0.891-1.015,1.732-0.983,2.521c0.01,0.264,0.062,0.555,0.081,0.562
			c0.185,0.065,1.413-1.075,2.138-2.012S79.319,13.46,79.2,13.349z"/>
		<path d="M92.051,19.31c0.013,0.423,0.361,0.645,1.017,0.641c0.385-0.002,0.818-0.081,1.3-0.233
			c0.481-0.152,0.948-0.248,1.401-0.286c0.453-0.038,0.744,0.221,0.681,0.339c-0.241,0.444-2.063,0.733-3.347,0.941
			c-0.071,0.012-0.155,0.03-0.231,0.03c-0.539,0.004-0.958-0.12-1.259-0.371c-0.301-0.25-0.454-0.526-0.457-0.827
			c-0.003-0.3,0.034-0.571,0.05-0.762c0.031-0.373,0.081-1.015,0.257-1.807c0.176-0.791,0.326-1.713,0.26-1.778
			c-0.073-0.072-0.948,0.08-1.792,0.231c-0.844,0.152-1.695,0.27-1.815,0.406c-0.777,0.881-1.263,3.929-2.436,4.725
			c-0.341,0.231-0.603,0.352-0.786,0.356c-0.183,0.004-0.319-0.036-0.408-0.119c-0.089-0.083-0.134-0.184-0.137-0.307
			c-0.003-0.122,0.116-0.438,0.248-0.499c0.299-0.136,1.032-0.279,1.314-0.875c0.267-0.565,0.502-1.18,0.674-1.832
			c0.171-0.652,0.456-1.362,0.424-1.431c-0.121-0.262-1.386-0.779-1.397-1.324c-0.021-0.996,0.421-1.704,1.306-2.058
			c0.304-0.122,0.623-0.18,0.936-0.186c0.312-0.005,0.604,0.094,0.87,0.297c0.267,0.203,0.403,0.492,0.409,0.868
			s-0.736,1.562-0.736,1.562c0.003,0.005,0.415-0.078,1.047-0.241c1.751-0.454,3.143-0.771,3.205-0.71
			c0.122,0.12-0.096,1.461-0.3,2.637C92.144,17.875,92.034,18.758,92.051,19.31z M87.602,13.052
			c-0.372,0.006-0.82,0.499-0.915,1.175c-0.04,0.282,0.6,0.861,0.862,0.801c0.26-0.06,0.598-0.79,0.592-1.166
			c-0.002-0.15-0.048-0.323-0.139-0.519S87.777,13.049,87.602,13.052z"/>
		<path d="M116.619,19.589c0.017,0.009,0.024,0.132,0.022,0.17c-0.017,0.45-0.654,0.829-1.907,1.143s-2.195,0.464-2.829,0.445
			c-2.384-0.07-3.549-1.193-3.5-3.391c0.013-0.583,0.176-1.414,0.493-2.497c0.317-1.082,0.541-2.435,0.497-2.469
			c-0.199-0.155-2.54,1.319-3.888,2.922c-1.348,1.603-2.308,3.673-3.17,4.875c-0.077,0.107-0.271,0.194-0.464,0.249
			c-0.193,0.054-0.333,0.039-0.418-0.047s-0.128-0.208-0.126-0.368s0.08-0.437,0.239-0.83c0.739-2.338,1.112-3.505,1.867-5.841
			c-0.096-0.152-0.221-0.228-0.377-0.229c-0.507-0.006-1.403,0.745-2.677,2.199c-0.328,0.374-1.056,1.267-2.163,2.639
			c-1.359,1.685-2.257,2.534-2.661,2.535c-0.039,0-0.097-0.033-0.174-0.099c-0.077-0.065-0.106-0.116-0.087-0.154
			c0.826-2.122,1.244-3.181,2.086-5.299c0.539-1.476,0.808-2.216,1.354-3.69c0.098-0.037,0.187-0.055,0.266-0.055
			c0.293,0.001,0.439,0.162,0.438,0.481c-0.001,0.32-0.044,0.644-0.123,0.972c-0.08,0.329-0.417,1.251-1.004,2.771
			c1.763-1.37,2.651-2.051,4.438-3.406c0.374-0.202,0.678-0.302,0.913-0.299c0.411,0.005,0.611,0.318,0.603,0.938
			c-0.005,0.357-0.128,1.014-0.364,1.969c-0.236,0.955-0.387,1.658-0.387,1.658c0.028,0.016,1.088-0.995,2.218-2.137
			c1.954-1.977,3.351-2.948,4.134-2.929c0.274,0.007,0.638,0.134,0.696,0.271c0.142,0.333-0.236,1.536-0.655,2.747
			c-0.42,1.212-0.639,2.222-0.658,3.029c-0.042,1.729,0.939,2.613,2.941,2.673C113.268,20.569,116.315,19.418,116.619,19.589z"/>
		<path d="M123.395,14.616c0.139,0.513-0.979,2.641-1.038,3.842c-0.098,1.989,1.103,3.182,3.168,3.158
			c0.525-0.006,0.985-0.132,1.273-0.267c0.287-0.134,0.605-0.374,0.955-0.719c0.349-0.347,0.687-0.633,1.01-0.858
			c0.058,0.003,0.087,0.006,0.145,0.009c-0.162,1.045-0.576,1.729-1.242,2.057c-0.666,0.327-1.553,0.459-2.667,0.398
			c-2.4-0.131-3.75-3.156-3.75-3.156c-0.005,0-0.586,1.031-1.394,1.644c-0.809,0.612-1.517,0.908-2.131,0.883
			c-0.039-0.001-0.096,0.002-0.145-0.006c-1.058-0.183-1.75-1.083-1.71-2.154c0.051-1.389,0.851-2.714,2.396-3.967
			c1.208-0.98,2.373-1.451,3.484-1.398C122.374,14.112,123.348,14.443,123.395,14.616z M116.774,19.341
			c-0.04,0.266-0.006,0.541,0.016,0.72c0.022,0.18,0.111,0.347,0.269,0.503c0.158,0.157,0.396,0.25,0.698,0.255
			c0.829,0.015,1.727-0.629,2.644-1.876c0.917-1.246,1.688-2.688,1.536-3.243c-0.081-0.297-0.712-0.597-1.257-0.622
			c-0.7-0.032-1.449,0.368-2.242,1.2C117.646,17.11,116.938,18.238,116.774,19.341z"/>
		<path d="M134.131,19.51c0.024-0.337,0.07-0.923,0.14-1.756s0.23-2.091,0.168-2.149c-0.091-0.086-1.393,0.691-2.513,1.859
			c-1.121,1.167-1.754,1.773-1.826,1.829c-0.791,0.611-1.503,1.583-1.893,1.971c-0.187,0.186-0.472,0.311-0.856,0.288
			c0.015-0.248,0.021-0.373,0.036-0.62c0.589-1.535,0.886-2.301,1.482-3.834c0.084-1.369,0.396-2.367,0.918-2.993
			c0.148-0.177,0.281-0.265,0.398-0.257c0.195,0.012,0.271,0.333,0.231,0.96s-0.182,1.316-0.423,2.063
			c-0.242,0.748-0.412,1.88-0.412,1.88c0.015,0.008,0.662-0.636,1.497-1.485c0.834-0.849,1.344-1.378,1.503-1.48
			c0.114-0.073,0.388-0.247,0.739-0.515c0.724-0.553,1.377-0.806,1.904-0.768c0.292,0.021,0.505,0.152,0.535,0.322
			c0.03,0.174-0.01,0.541-0.044,1c-0.034,0.459-0.166,1.176-0.394,2.148c-0.228,0.973-0.383,1.756-0.435,2.327
			c-0.078,0.866,0.279,1.349,1.028,1.406c0.538,0.041,1.067-0.064,1.591-0.315c0.523-0.251,0.954-0.546,1.292-0.886
			c0.337-0.34,0.729-0.732,1.175-1.176c0.445-0.444,0.832-0.765,1.161-0.963c-0.01,0.112-0.014,0.167-0.024,0.28
			c-0.077,0.898-0.756,1.778-2.027,2.645c-1.272,0.867-2.392,1.266-3.371,1.192c-0.38-0.029-0.571-0.043-0.951-0.071
			c-0.274-0.208-0.448-0.4-0.522-0.575s-0.128-0.301-0.161-0.379c-0.034-0.078-0.049-0.197-0.047-0.357
			c0.002-0.16,0.005-0.277,0.01-0.353C134.077,20.252,134.096,20.005,134.131,19.51z"/>
		<path d="M140.008,19.938c-0.022-0.149-0.002-0.33,0.011-0.48c0.1-1.198,0.613-2.399,1.549-3.602
			c0.935-1.203,2.062-1.746,3.369-1.626c0.253,0.023,0.451,0.112,0.595,0.267c0.143,0.155,0.198,0.396,0.167,0.724
			c-0.031,0.328-0.158,0.703-0.384,1.125c-0.226,0.423-0.547,0.841-0.966,1.256c-0.418,0.415-0.776,0.75-1.072,1.006
			c-0.296,0.257-0.71,0.587-1.242,0.994c-0.531,0.406-0.905,0.662-0.952,0.738c-0.053,0.087-0.049,0.231-0.051,0.25
			c-0.043,0.505,0.174,0.92,0.649,1.245c0.475,0.324,0.979,0.51,1.518,0.558c1.287,0.116,2.328-0.012,3.131-0.389
			c0.802-0.376,1.824-1.045,2.868-2.013c0.172-0.16,0.28-0.31,0.321-0.419s0.233-0.331,0.341-0.334
			c0.106-0.004,0.296,0.333,0.234,0.562c-0.134,0.498-0.701,1.143-1.345,1.748c-0.644,0.606-1.386,1.118-2.212,1.496
			c-1.134,0.519-2.105,0.734-2.862,0.666s-1.466-0.386-2.132-0.953S140.184,21.123,140.008,19.938z M144.898,15.273
			c-0.158-0.189-1.656,0.284-2.449,1.082c-0.794,0.799-1.222,1.593-1.289,2.379c-0.022,0.263-0.008,0.557,0.01,0.566
			c0.176,0.087,1.537-0.89,2.374-1.73S145.003,15.399,144.898,15.273z"/>
		<path d="M156.02,21.547c0.039-0.336,0.109-0.917,0.214-1.747s0.319-2.08,0.26-2.141c-0.088-0.09-1.424,0.631-2.593,1.751
			c-1.17,1.119-1.828,1.699-1.902,1.751c-0.817,0.578-1.569,1.519-1.975,1.89c-0.195,0.178-0.486,0.29-0.87,0.251
			c0.025-0.247,0.039-0.371,0.063-0.618c0.653-1.509,0.983-2.263,1.644-3.77c0.142-1.364,0.494-2.348,1.043-2.951
			c0.155-0.17,0.292-0.252,0.409-0.24c0.194,0.021,0.259,0.343,0.192,0.969s-0.238,1.308-0.511,2.044
			c-0.274,0.736-0.49,1.862-0.49,1.862c0.015,0.008,0.688-0.609,1.559-1.422c0.87-0.813,1.401-1.321,1.565-1.416
			c0.117-0.068,0.398-0.229,0.76-0.481c0.748-0.522,1.413-0.749,1.938-0.688c0.292,0.034,0.499,0.175,0.521,0.346
			c0.022,0.175-0.034,0.539-0.087,0.996c-0.054,0.458-0.214,1.167-0.483,2.128c-0.269,0.962-0.458,1.74-0.533,2.308
			c-0.114,0.862,0.222,1.359,0.97,1.448c0.536,0.063,1.069-0.02,1.603-0.249c0.534-0.229,0.979-0.505,1.331-0.831
			c0.352-0.326,0.759-0.7,1.223-1.125c0.464-0.425,0.864-0.73,1.202-0.915c-0.014,0.112-0.021,0.167-0.035,0.279
			c-0.114,0.895-0.831,1.746-2.138,2.559c-1.309,0.812-2.446,1.162-3.421,1.047c-0.379-0.044-0.567-0.066-0.946-0.11
			c-0.266-0.22-0.433-0.42-0.5-0.598s-0.116-0.305-0.146-0.384c-0.03-0.079-0.041-0.2-0.032-0.36
			c0.009-0.159,0.017-0.276,0.025-0.352C155.933,22.287,155.963,22.04,156.02,21.547z"/>
		<path d="M162.75,19.293c-0.144,0.016-0.217,0.024-0.36,0.041c-0.065,0.049-0.234,0.074-0.51,0.078
			c-0.275,0.003-0.536-0.029-0.782-0.098s-0.335-0.187-0.314-0.322c0.074-0.487,0.418-0.743,1.165-0.594
			c0.785,0.156,1.281-0.027,1.486-0.55c0.802-1.932,1.208-2.897,2.021-4.826c0.251-0.184,0.375-0.275,0.626-0.458
			c0.188,0.082,0.265,0.263,0.229,0.542c-0.026,0.11-0.04,0.165-0.066,0.275c-0.83,2.04-1.242,3.061-2.062,5.104
			c-0.007,0.056-0.012,0.084-0.019,0.14c0.147,0.076,0.376,0.133,0.686,0.174s0.874,0.005,1.697-0.103
			c0.822-0.108,1.393-0.159,1.409-0.137c0.183,0.241-0.923,1.437-2.353,1.248c-0.445-0.059-1.297-0.409-1.489-0.336
			c-0.378,0.143-0.868,1.703-0.967,2.476c-0.099,0.773,0.022,1.508,0.36,2.206c0.338,0.698,1.002,1.17,1.825,1.22
			c0.848,0.051,1.637-0.125,2.165-0.347c0.527-0.221,0.916-0.376,1.163-0.465c0.246-0.089,0.485-0.117,0.715-0.084
			s0.728,0.165,0.735,0.189c0.057,0.198-2.459,1.385-4.9,1.203c-0.054-0.004-0.105-0.014-0.143-0.019
			c-1.318-0.175-2.141-0.773-2.483-1.773c-0.25-0.73-0.328-1.552-0.214-2.456C162.481,20.714,162.609,19.938,162.75,19.293z"/>
	</g>
</g>
<g>
	<g>
		<path d="M118.814,25.898c0.258,0.032,0.601,0.314,0.974,0.789c0.384-0.011,0.575-0.016,0.959-0.025
			c2.566,0.162,4.446,1.71,5.159,4.346c0.218,0.805,0.255,1.606,0.191,2.279c-0.01,0.101-0.015,0.154-0.024,0.255
			c0.021,0.036,0.032,0.053,0.054,0.089c-0.029,0.042-0.043,0.064-0.072,0.106c-0.013,0.135-0.021,0.201-0.033,0.336
			c-0.158,1.666-2.317,4.43-2.271,4.815c0.071,0.588,2.669,3.091,2.457,5.279c-0.024,0.247-0.036,0.371-0.06,0.617
			c-0.227,2.338-1.31,4.689-3.161,6.4c-0.709,0.655-1.597,0.947-2.407,0.89c-0.514-0.138-0.77-0.206-1.285-0.34
			c-0.034-0.002-0.051-0.002-0.085-0.005c-0.129,0.06-0.195,0.089-0.324,0.149c-0.136-0.008-0.203-0.012-0.339-0.021
			c-0.51-0.031-0.768-0.695-0.891-1.858c-0.247-2.333-0.443-5.105-0.277-8.089c0.036-0.642,0.053-0.963,0.088-1.605
			c-0.158-0.403-0.238-0.605-0.397-1.008c0.001-0.022,0.002-0.034,0.003-0.056c0.198-0.306,0.297-0.46,0.497-0.766
			c0.055-0.968,0.082-1.452,0.137-2.42c0.223-3.902-0.189-7.59,0.075-9.48C117.837,26.178,118.342,25.839,118.814,25.898z
			 M119.532,40.424c-0.108-0.007-0.162-0.01-0.27-0.016c-0.039,0.608-0.059,0.911-0.097,1.519c-0.335,5.251,0.25,7.749,0.593,7.947
			c0.182,0.105,0.466,0.481,0.77,0.502c0.148,0.01,0.223,0.016,0.371,0.026c1.141,0.082,2.219-1.461,3.301-4.632
			c0.091-0.637,0.137-0.957,0.229-1.594c0.189-2.134-0.442-3.436-1.911-3.887c-0.323-0.024-0.484-0.036-0.808-0.06
			C120.838,40.304,120.403,40.343,119.532,40.424z M119.772,28.352c0.016,2.618-0.082,5.456-0.282,8.512
			c-0.049,0.754-0.073,1.13-0.122,1.884c0.313,0.019,0.471,0.029,0.784,0.049c1.567,0.101,2.828-1.139,3.832-3.736
			c0.073-0.424,0.11-0.635,0.184-1.059c0.034-0.393,0.051-0.591,0.085-0.984c0.183-2.115-0.618-3.608-2.436-4.449
			c-0.474-0.112-0.71-0.166-1.185-0.275c-0.151-0.01-0.228-0.016-0.379-0.025C120.062,28.301,119.965,28.318,119.772,28.352z"/>
		<path d="M131.596,24.912c0.533,0.059,0.799,0.448,0.798,1.166c-0.038-0.004-0.059-0.007-0.097-0.011
			c0.024,0.116,0.039,0.175,0.063,0.292c0.72,0.082,3.526-0.433,6.081,0.177c0.429,0.102,0.723,0.567,0.662,0.976
			c-0.09,0.595-1.562,0.758-4.422,0.571c-1.127-0.004-1.691-0.003-2.818,0.007c-0.059,0.493-0.088,0.739-0.147,1.231
			c-0.105,0.878-0.122,4.478-0.121,10.798c1.53,0.18,2.292,0.275,3.818,0.482c0.516,0.07,0.856,0.445,0.839,0.942
			c-0.018,0.519-0.589,0.798-1.515,0.675c-1.336-0.178-2.005-0.263-3.346-0.42c-0.005,0.045-0.007,0.067-0.013,0.112
			c-0.316,2.313-0.472,3.468-0.782,5.782c-0.164,1.381-0.139,2.407,0.069,3.075c2.268,0.123,3.4,0.2,5.664,0.385
			c0.592,0.164,0.854,0.468,0.786,0.914c-0.09,0.595-0.823,0.748-2.103,0.602c-3.296-0.376-5.102-0.146-5.133-0.122
			c-0.157,0.124-1.03-1.157-1.07-3.241c0.037-0.858,0.056-1.287,0.092-2.145c0.304-2.541,0.458-3.811,0.768-6.351
			c0.081-4.676,0.113-7.015,0.162-11.693c0.039-0.347,0.058-0.521,0.097-0.868c0.258-2.316,0.783-3.434,1.572-3.348
			C131.538,24.905,131.557,24.908,131.596,24.912z"/>
		<path d="M147.397,27.397c0.631,0.114,0.947,0.172,1.577,0.29c2.081,0.39,3.407,1.001,3.979,1.791
			c0.03,0.225,0.045,0.336,0.075,0.562c-0.007,0.033-0.009,0.048-0.016,0.082c-0.099,0.459-0.759,0.77-1.133,0.577
			c-0.45-0.232-1.726-1.069-3.604-1.418c-0.125-0.023-0.188-0.036-0.313-0.059c-0.008,0.044-0.013,0.066-0.021,0.111
			c-0.655,3.415-1.51,8.16-2.561,14.234c-1.05,6.074-1.006,9.798-1.022,10.217c-0.011,0.293-0.832,0.541-1.094,0.601
			c-0.681,0.157-0.837-2.577,0.28-9.803c1.118-7.226,1.968-12.421,2.547-15.583c0.008-0.044,0.012-0.066,0.021-0.11
			c-1.129-0.129-1.693-0.191-2.823-0.307c-0.49-0.289-0.705-0.618-0.643-0.989C142.755,26.944,144.345,26.848,147.397,27.397z"/>
		<path d="M163.881,31.604c0.31,0.08,0.537,0.42,0.683,1.021c-0.081,0.154-0.12,0.231-0.201,0.385
			c-1.02,10.903-1.326,20.715-2.978,24.772c-0.163,0.399-0.676,0.631-1.058,0.527c-0.637-0.175-0.652-1.637-0.049-4.394
			c0.109-0.893,0.165-1.339,0.271-2.233c-0.629-0.132-0.943-0.197-1.573-0.325c-0.979-0.253-3.749-1.675-4.363-1.453
			c-1.676,0.606-3.922,6.417-4.419,6.308c-0.022-0.005-0.035-0.007-0.057-0.012c-0.552-0.294-0.83-0.755-0.692-1.074
			c1.284-2.977,5.174-9.663,9.403-17.456c1.333-2.456,2.845-5.078,3.949-5.964C163.026,31.521,163.51,31.508,163.881,31.604z
			 M155.464,48.367c0.994,0.487,2.065,0.875,3.224,1.17c0.616,0.157,0.926,0.236,1.54,0.397c0.208,0.055,0.408,0.021,0.604-0.103
			c0.587-5.514,0.859-8.274,1.359-13.803c-0.024-0.006-0.036-0.009-0.061-0.015c-0.552,0.461-1.658,2.295-3.263,5.52
			C157.481,44.258,156.801,45.625,155.464,48.367z"/>
	</g>
</g>
<g>
	<g>
		<g>
			<g>
				<g>
					<path fill="#373737" d="M29.731,57.275c0.122-0.123,0.358-0.434,0.271-0.405l-0.442,0.495L29.731,57.275z"/>
					<path fill="#373737" d="M30.233,56.107c-0.247,0.213-0.652,0.611-1.002,1.11c0.443-0.46,0.289-0.244,0.811-0.796
						c0.087-0.029-0.064,0.221-0.223,0.406c0.12-0.122-0.03,0.162,0.251-0.146c0.269-0.441,0.217-0.509-0.115-0.233
						C30.031,56.323,30.153,56.2,30.233,56.107z"/>
					<path fill="#373737" d="M27.041,52.231l-0.024,0.081C27.037,52.273,27.043,52.247,27.041,52.231z"/>
					<path fill="#373737" d="M24.89,50.045c0.028,0.001,0.077-0.043,0.115-0.089C24.961,49.977,24.922,49.997,24.89,50.045z"/>
					<path fill="#373737" d="M24.939,49.151c-0.004,0.023-0.003,0.037-0.004,0.054C24.964,49.15,24.976,49.116,24.939,49.151z"/>
					<path fill="#373737" d="M27.041,52.231l0.066-0.213C26.968,52.183,27.04,52.169,27.041,52.231z"/>
					<path fill="#373737" d="M28.707,56.93c0.033-0.014,0.083-0.054,0.143-0.108c-0.029,0.013-0.054,0.023-0.076,0.028
						C28.75,56.878,28.73,56.902,28.707,56.93z"/>
					<path fill="#373737" d="M28.424,52.65l0.02,0.015c0.052-0.056,0.114-0.123,0.184-0.197L28.424,52.65z"/>
					<path fill="#373737" d="M29.292,53.214c-0.003-0.033-0.36,0.4-0.521,0.586c0.155-0.172,0.237-0.248,0.28-0.269
						C29.116,53.447,29.193,53.345,29.292,53.214z"/>
					<path fill="#373737" d="M29.949,55.007l0.071-0.042C30,54.978,29.976,54.992,29.949,55.007z"/>
					<path fill="#373737" d="M27.924,52.095c0.049-0.067,0.092-0.126,0.119-0.163C27.998,51.987,27.959,52.042,27.924,52.095z"/>
					<path fill="#373737" d="M2.787,37.396c0.025-0.031,0.041-0.051,0.062-0.078C2.809,37.358,2.783,37.388,2.787,37.396z"/>
					<polygon fill="#373737" points="3.594,34.476 3.625,34.462 3.825,34.218 					"/>
					<path fill="#373737" d="M24.646,47.994C24.645,48,24.645,48,24.643,48.005C24.703,47.971,24.685,47.971,24.646,47.994z"/>
					<path fill="#373737" d="M17.567,42.862c-0.236,0.454-0.529,0.403-0.761,0.932C16.933,43.613,17.459,43.194,17.567,42.862z"/>
					<path fill="#373737" d="M28.731,56.856c-0.015-0.003-0.029-0.009-0.037-0.021C28.699,56.86,28.71,56.867,28.731,56.856z"/>
					<path fill="#373737" d="M16.807,43.793l-0.003,0.004l-0.021,0.051C16.792,43.826,16.798,43.812,16.807,43.793z"/>
					<path fill="#373737" d="M22.724,46.889c-0.059,0.08-0.099,0.144-0.136,0.206C22.623,47.049,22.663,46.991,22.724,46.889z"/>
					<path fill="#373737" d="M23.5,48.533l0.015-0.084C23.495,48.5,23.494,48.521,23.5,48.533z"/>
					<path fill="#373737" d="M21.566,46.979c0.01-0.047,0.052-0.113-0.019-0.072c-0.014,0.024-0.025,0.042-0.036,0.059
						C21.569,46.912,21.602,46.893,21.566,46.979z"/>
					<path fill="#373737" d="M20.875,46.43c-0.021,0.037-0.039,0.065-0.058,0.099l0.041-0.006L20.875,46.43z"/>
					<path fill="#373737" d="M5.05,38.86c0.083-0.136,0.183-0.279,0.284-0.42C5.095,38.76,4.905,38.791,5.05,38.86z"/>
					<path fill="#373737" d="M28.903,56.684c-0.093,0.107-0.142,0.157-0.172,0.172c0.012,0.001,0.027-0.001,0.042-0.005
						C28.828,56.787,28.877,56.726,28.903,56.684z"/>
					<path fill="#373737" d="M18.767,50.419l-0.058-0.153C18.707,50.333,18.728,50.388,18.767,50.419z"/>
					<path fill="#373737" d="M10.044,42.752l-0.067,0.033C9.979,42.803,9.998,42.797,10.044,42.752z"/>
					<path fill="#373737" d="M18.333,50.072c0.104-0.17,0.155-0.277,0.181-0.353c-0.032,0.032-0.058,0.058-0.104,0.103
						L18.333,50.072z"/>
					<path fill="#373737" d="M5.337,38.435l-0.003,0.004L5.337,38.435z"/>
					<path fill="#373737" d="M3.782,38.901c0.094,0.096,0.5-0.525,0.788-0.839c0.255-0.064-0.282,0.471-0.476,0.8
						c0.2-0.09,0.683-0.572,0.723-0.503c-0.072,0.098-0.088,0.142-0.197,0.25c0.449-0.393,0.262,0.172,0.819-0.327
						c-0.034,0.057-0.069,0.108-0.102,0.153c0.216-0.302,0.448-0.597,0.619-0.804c0.055,0.028,0.378-0.295,0.094,0.096
						c-0.02-0.034-0.144,0.116-0.251,0.224l0.18-0.125c-0.39,0.578-0.217,0.134-0.538,0.536c0.237-0.1,0.707-0.46,0.658-0.248
						c-0.409,0.543-0.314,0.042-0.594,0.591l0.049-0.293c-0.583,0.906-0.022-0.114-0.659,0.845c0.026,0.273,0.383-0.137,0.408,0.137
						c0.269-0.268,0.338-0.445,0.607-0.713c0.635-0.36-0.9,1.467-0.18,0.885c0.323-0.321,0.875-0.98,0.702-0.537l-0.518,0.57
						c0.097,0.174,0.772-0.796,0.601-0.272c-0.215,0.214-0.272,0.108-0.308,0.197c-0.281,0.552,0.341-0.285,0.417-0.225
						l-0.409,0.544c0.22,0.039,0.697-0.209,0.944-0.169c-0.136,0.15-0.298,0.293-0.388,0.487c0.427-0.094,0.407,0.432,0.362,0.912
						l0.446-0.395c0.014,0.02-0.132,0.234-0.223,0.307c-0.058,0.239,0.237-0.287,0.42-0.437c0.071,0.005-0.15,0.312-0.29,0.426
						c0.453-0.274,1.076-0.513,0.833,0.099l-0.138,0.113c-0.032,0.279,0.883-0.834,0.649-0.32l-0.085,0.064
						c0.095,0.401,0.71,0.206,0.351,1.053c0.565-0.631,0.016,0.495,0.769-0.413c-0.22,0.572-0.394,0.704-0.435,1.173
						c0.021,0.086,0.542-0.51,0.686-0.552l-0.384,0.483l0.496-0.432l-0.412,0.615l0.162-0.073c-0.002-0.048,0.12-0.259,0.234-0.395
						c0.273-0.139-0.028,0.528-0.223,0.777l0.559-0.221c-0.16,0.189-0.252,0.225-0.382,0.324c0.517-0.392-0.383,0.525,0.091,0.166
						c0.072-0.121,0.237-0.28,0.318-0.375c-0.176,0.336-0.048,0.442,0.146,0.396l-0.284,0.317c0.105,0.223,0.492,0.132,0.682,0.294
						c0.054-0.21,0.53-0.772,0.631-0.782l-0.384,0.527c0.289-0.286,0.094-0.24,0.478-0.564c0.026,0.117-0.414,0.617-0.588,0.75
						l0.229-0.106c-0.117,0.156-0.201,0.22-0.362,0.409c0.29-0.287-0.256,0.632,0.235,0.125l-0.116,0.155
						c0.191,0.16,0.419,0.055,0.598,0.156c0.354-0.437,0.338-0.29,0.669-0.607c0.004,0.233-0.143,0.681,0.027,0.756
						c0.273-0.14,0.326-0.349,0.579-0.574c-0.312,0.405-0.143,0.48-0.445,0.709c0.22,0.07,0.278,0.092,0.751-0.062
						c0.108-0.183,0.139-0.274,0.262-0.4c0.091-0.035-0.046,0.238-0.206,0.426l-0.043,0.033c0.718-0.408-0.382,1.607,0.475,0.925
						l-0.043,0.033l0.545-0.277c0.035,0.142-0.295,0.257-0.426,0.559c0.747-0.497,0.259,0.365,0.79,0.061
						c-0.809,1.289,0.547,0.302,0.127,1.201l0.212-0.286c0.265-0.235-0.07,0.205-0.086,0.296c0.167-0.22,0.148-0.291,0.298-0.418
						c0.668-0.014,0.502,1.067,0.712,1.647c0.091,0.194,1.235-1.37,0.894-0.555l-0.466,0.473c0.798-0.376,0.603,0.517,1.319,0.229
						c-0.113,0.105-0.237,0.259-0.265,0.234c-0.237,0.425,0.217,0.204,0.463-0.102c0.018,0.072-0.211,0.285-0.307,0.463
						c-0.114,0.271,0.541-0.352,0.276,0.047c-0.043,0.065-0.115,0.107-0.15,0.127c0.187-0.149,0.154,0.199,0.461-0.265
						c-0.054,0.295,0.367-0.022,0.251,0.305c0.444-0.437,0.004,0.386,0.57-0.284c-0.573,0.7-0.261,0.726,0.076,0.45
						c-0.194,0.194-0.116,0.27-0.38,0.544c0.088,0.054,0.267-0.018,0.543-0.392c-0.528,0.963,0.842-0.442,0.059,0.708
						c0.542-0.189,0.969-0.269,1.316-0.263c-0.571,0.698-0.293-0.12-0.876,0.627c0.436-0.127,1.037-0.638,1.103-0.307
						c-0.024,0.138-0.274,0.282-0.388,0.388c0.436-0.127,0.342,0.379,0.831,0.14c-0.053,0.065-0.13,0.121-0.191,0.16
						c0.054,0.005,0,0.17,0.252-0.153l-0.104,0.059c0.315-0.51,0.918-0.857,1.121-1.098c-0.794,0.869-0.005,0.374-1.03,1.457
						c0.072-0.042,0.223-0.17,0.389-0.389c-0.015,0.091-0.104,0.225-0.334,0.44c0.267-0.072,0.494-0.449,0.604-0.349
						c-0.125,0.155-0.196,0.196-0.354,0.369c0.301-0.255,0.602-0.511,0.594-0.301c-0.081,0.089-0.167,0.22-0.194,0.194
						c0.206,0.088,0.931-0.576,0.881-0.136c-0.593,0.629-0.115,0.271-0.571,0.862l0.238-0.095l0.187-0.314
						c0.079,0.079,0.496-0.284,0.417-0.033l-0.257,0.188l0.251,0.02l0.085-0.295c0.328-0.23,0.581-0.745,0.566-0.49
						c-0.071,0.041,0.081,0.077-0.148,0.457l-0.001,0.001c0.191-0.151,0.392-0.312,0.34-0.116c-0.132,0.2-0.529,0.634-0.618,0.767
						c0.432-0.453,0.312,0.027,0.781-0.449c-0.115,0.107-0.361,0.413-0.405,0.48l0.353-0.368c-0.061,0.159-0.104,0.225-0.306,0.464
						c0.063,0.169,0.553-0.771,0.442-0.337c-0.037,0.023-0.079,0.086-0.15,0.128c0.011,0.282,0.479-0.028,0.457,0.273
						c-0.431,0.618-0.231,0.051-0.582,0.582c0.276,0.046,0.958-0.387,1.033-0.101l0.018-0.092c0.688-0.808-0.19,0.52,0.216,0.204
						c-0.072,0.043-0.398,0.436-0.318,0.349c0.02,0.234,0.422,0.003,0.822-0.104l-0.194,0.194c-0.077,0.25,0.109,0.267,0.112,0.428
						c0.194-0.193,0.212-0.122,0.432-0.454c-0.721,1.411,0.994-0.271,0.407,0.916c-0.028-0.019-0.212,0.136-0.192,0.154l0.345-0.046
						c0.273-0.373,0.15-0.238,0.335-0.551c0.195-0.195,0.38-0.318,0.427-0.281c-0.276,0.171-0.463,0.58-0.587,0.811
						c0.082-0.115,0.192-0.227,0.279-0.342c-0.416,0.721,0.597-0.713,0.385-0.173l-0.159,0.184c0.127-0.057,0.374-0.271,0.385-0.173
						c-0.312,0.436-0.209,0.152-0.487,0.493c0.095,0.037,0.782-0.671,0.519-0.2c-0.125,0.09-0.173,0.055-0.298,0.145
						c-0.317,0.55-0.209,0.433-0.216,0.555l0.003-0.015l-0.049,0.325l0.073-0.159c0.966-1.012,0.353-0.044,1.051-0.655
						c-0.664,0.576-0.333,0.374-0.721,0.84c-0.072,0.157-0.141,0.344-0.261,0.466c0.366-0.333-0.139,0.381,0.393-0.108
						c-0.118,0.155,0.053,0.066-0.267,0.438c0.174-0.057,0.193-0.28,0.353-0.466c0.538-0.423-0.22,0.859,0.526,0.285
						c0.385-0.173,0.824-0.665,1.168-0.809c-0.147,0.281-0.482,0.524-0.482,0.524c-0.103,0.285-0.013,0.29,0.198,0.172
						c-0.121,0.121-0.196,0.246-0.311,0.435c0.089,0.006,0.482-0.524,0.378-0.239c-0.149,0.159-0.383,0.417-0.547,0.566
						c0.18-0.086,0.474-0.317,0.654-0.398c-0.194,0.28-0.364,0.369-0.528,0.522c0.174-0.057,0.396-0.077,0.757-0.478l0.069-0.19
						c0.045,0.002-0.273,0.373-0.356,0.432c-0.331,0.275,0.019-0.223,0.138-0.379l0.128-0.058c0.663-0.935-0.315-0.017-0.375-0.149
						l0.562-0.616l-0.534,0.457c0.113-0.187,0.389-0.562,0.516-0.619c0.184-0.378-0.249,0.18-0.024-0.228
						c0.038-0.061,0.066-0.09,0.093-0.11l-0.225,0.137c0.123-0.125,0.355-0.468,0.323-0.34c0.173-0.476-0.594,0.324-0.248-0.206
						l0.043-0.032c-0.351,0.08-0.399,0.464-0.978,0.918l0.853-1.248l-0.398,0.463c-0.004-0.032-0.012-0.096,0.147-0.281
						c-0.329,0.272-0.154,0.216-0.44,0.493c0.26-0.504-0.403,0.011,0.186-0.765c-0.321,0.338-0.141,0.347-0.435,0.524
						c0.627-0.838-0.22,0.054,0-0.385c0.362-0.402,0.259-0.118,0.48-0.559c-0.619,0.674-0.03-0.28-0.207-0.197
						c-0.457,0.565-0.335,0.12-0.599,0.219c0.159-0.185,0.038-0.481,0.097-0.77l0.08-0.093c-0.479,0.557-0.5,0.362-0.674,0.418
						c0.278-0.341,0.4-0.465,0.565-0.584l-0.076-0.057c-0.165,0.17-0.265,0.248-0.366,0.275l0.361-0.414
						c-0.117-0.055-0.602,0.346-0.5-0.042c-0.327,0.394-0.79,1.194-1.138,1.354c0.168-0.22,0.459-0.594,0.565-0.654
						c-0.035,0.02-0.185,0.147-0.134,0.036l0.345-0.321c0.07-0.206-0.273,0.28-0.292,0.209c0.248-0.308,0.142-0.247,0.344-0.487
						c0.036-0.02-0.062,0.16,0.053,0.053c-0.008-0.097,0.076-0.33,0.242-0.58c-0.136,0.179-0.332,0.416-0.402,0.425
						c-0.116-0.056,0.263-0.398,0.333-0.602c-0.195,0.195-0.08-0.077-0.451,0.382c-0.027-0.025,0.14-0.245,0.229-0.378
						c-0.214,0.163-0.285-0.132-0.62,0.404L27,52.368c-0.01,0.006-0.013,0.007-0.024,0.014l0,0l0,0
						c-0.534,0.325-0.138-0.539-0.461-0.474l0.124-0.154c-0.24,0.097-0.303-0.072-0.64,0.203c-0.029-0.024,0.157-0.337,0.316-0.51
						c-0.168,0.055-0.315,0.222-0.221-0.12c0.292-0.208,0.165-0.26,0.235-0.135c0.008-0.211,0.184-0.477-0.259-0.14
						c0.352-0.366,0.324-0.556,0.183-0.476l-0.158,0.338c-0.099,0.016-0.116-0.057-0.136-0.127l0.441-0.5
						c0.305-0.793-1.223,0.786-0.53-0.395c-0.344,0.321-0.095,0.343-0.483,0.73c-0.036-0.144,0.464-0.967,0.436-0.992
						c0.104-0.389-0.726,0.665-0.701,0.362c-0.131,0.198-0.511,0.706-0.75,0.802c-0.038-0.143,0.508-0.869,0.686-0.971
						c0.035,0.002-0.001,0.069-0.053,0.132c0.084-0.044,0.187-0.092,0.311-0.322l-0.16,0.176c0.105-0.226-0.038-0.308,0.235-0.588
						c-0.211,0.121-0.273,0.28-0.298,0.418c0.096-0.364-0.179-0.157-0.157-0.435c-0.062,0.118-0.219,0.35-0.236,0.333
						c0.004-0.373-0.36,0.288-0.547,0.272c0.157-0.338,0.564-0.655,0.253-0.516c0.078-0.251,0.377-0.504,0.528-0.631
						c-0.397,0.268-0.02-0.401-0.031-0.518l0.178-0.103c-0.106,0.061-0.133,0.035-0.161,0.011l-0.263,0.397
						c0.017-0.092-0.011-0.117,0.113-0.271c-0.23,0.214-0.466,0.638-0.802,0.914c0.105-0.225-0.301,0.09,0.076-0.415
						c0.011,0.283,0.379-0.507,0.565-0.488c-0.07,0.04-0.097,0.015-0.08-0.078c0.039-0.059,0.086-0.098,0.118-0.119
						c0.213-0.55-0.508,0.505-0.643,0.379c0.24-0.263,0.387-0.552,0.317-0.512c0.053,0.052-0.342,0.484-0.565,0.654
						c0.081-0.289-0.228,0.081-0.256,0.017l-0.027,0.146c-0.24,0.262-0.257,0.189-0.391,0.225c0.167-0.22,0.177-0.102,0.23-0.215
						c-0.461,0.431,0.243-0.633-0.119-0.384c0.104-0.225,0.412-0.524,0.474-0.684c-0.398,0.271,0.184-0.476-0.171-0.272
						c-0.264,0.399-0.186,0.313-0.559,0.611l0.402-0.109l-0.557,0.443c0.054,0.052,0.31-0.137,0.294-0.045
						c-0.302,0.257-0.222,0.169-0.441,0.5c0.368-0.622-0.417,0.2-0.208-0.25l0.741-0.921c0.191-0.521-0.624,0.278-0.617-0.097
						l-0.07,0.207c-0.317,0.347-0.151-0.038-0.329,0.065c0.252-0.304,0.306-0.445,0.435-0.657c-0.18,0.231-0.114-0.126-0.623,0.477
						l0.245-0.47c-0.012-0.282-0.868,0.747-0.923,0.531c0.31-0.302,0.422-0.57,0.707-0.736c-0.044-0.04-0.041-0.13-0.212,0.083
						c0.127-0.215-0.461,0.312-0.27-0.015c-0.127,0.12-0.393,0.438-0.424,0.37c0.044-0.067,0.122-0.152,0.122-0.152
						c-0.122,0.152-0.248,0.143-0.475,0.52c0.627-1.076-0.455-0.25,0.082-1.175c-0.184,0.022-0.385,0.024-0.495-0.027
						c0.08-0.087,0.123-0.153,0.115-0.107c0.103-0.388-0.786,0.823-0.674,0.387c0.325-0.557,0.292-0.208,0.397-0.434
						c0.792-1.031-0.285-0.001,0.092-0.67l0.071-0.041c0.202-0.404-0.488,0.239-0.552,0.07c0,0,0.078-0.084,0.124-0.152
						c-0.497,0.451-0.791,0.497-1.022,0.547c0.354-0.368,0.221-0.168,0.521-0.589c-0.098,0.015-0.503,0.66-0.698,0.689
						c0.14-0.245,0.217-0.495,0.551-0.933l0.117,0.056c0.396-0.598-0.143-0.083-0.117-0.221l0.201-0.238
						c-0.214-0.042-0.707,0.57-0.833,0.397l-0.131,0.197c-0.575,0.537,0.199-0.401-0.25-0.02l0.466-0.638
						c-0.177,0.102-0.681,0.432-0.879,0.464c0.425-0.41,0.735-0.545,1.028-0.756c-0.054-0.051-0.233-0.112-0.507,0.168
						c0.071-0.041,0.221-0.168,0.168-0.055c-0.459,0.428-0.743,0.591-0.85,0.488c0.977-1.178-0.06-0.542,0.6-1.537
						c-0.558,0.279-0.254-0.512-0.549-0.632c-0.659,0.997-0.09-0.029-0.84,0.938c-0.104,0.016-0.112-0.017-0.068-0.082l0.289-0.705
						c0.182-0.31,0.221-0.168,0.387-0.387c-0.063-0.17,0.272-0.445,0.396-0.763c-0.257,0.355-0.434,0.456-0.398,0.27l-0.255,0.518
						c-0.576,0.373,0.495-0.918-0.079-0.552l0.294-0.257c-0.229,0.107-0.319-0.265-1.019,0.433c0.073-0.123,0.261-0.4,0.355-0.438
						c-0.117-0.283-1.12,0.443-0.904-0.16l0.203-0.221c-0.093,0.036-0.419,0.384-0.28,0.11c0.08-0.095,0.202-0.221,0.195-0.249
						c-0.085,0.064-0.431,0.326-0.374,0.149l0.254-0.228c0.041-0.469-0.826,0.389-1.125,0.412c0.55-0.688,0.568-1.04,0.577-1.215
						l0.081-0.095c-0.17-0.275-0.86,0.247-1.296,0.34c0.46-0.855-0.213-0.683-0.099-1.277c-0.066,0.151-0.434,0.531-0.528,0.569
						c0.06-0.181-0.524,0.363-0.012-0.261l0.009,0.027c0.456-0.65,0.219-0.57,0.149-0.653l-0.674,0.814
						c0.743-1.373-0.92-0.013-0.179-1.182c-0.217,0.164-0.28,0.11-0.497,0.274l0.357-0.44c-0.055-0.229-0.083-0.342-0.346-0.38
						l0.29-0.287c-0.078-0.109-1.147,1.173-1.261,1.125l0.5-0.683c-0.185-0.13,0.101-0.853-0.552-0.393
						c0.08-0.094,0.238-0.281,0.288-0.285c-0.069-0.083,0.037-0.704-0.658,0.227c0.47-0.591-0.136-0.203-0.439-0.019l0.363-0.423
						c-0.525,0.492-0.649,0.642-0.884,0.707c0.019-0.078,0.255-0.367,0.202-0.228c0.094-0.299-0.399,0.357-0.321,0.039l0.262-0.246
						c-0.064-0.106-0.176,0.049-0.485,0.333c-0.197,0.129-0.085-0.248,0.216-0.652c-0.204,0.23-0.511,0.511-0.474,0.354
						c0.112-0.154,0.205-0.231,0.251-0.268c0.084-0.418-0.631,0.325-0.394-0.187c0.113-0.146,0.164-0.223,0.19-0.274
						c0.113,0.107,0.191,0.209,0.156,0.233c0.321-0.401,0.28-0.55,0.801-1.042c-0.32,0.24-0.98,0.79-0.925,0.525
						c0.028-0.042,0.055-0.083,0.099-0.149l0.046-0.037c0.01-0.058-0.04-0.036-0.112,0.017c0.022-0.09,0.042-0.155,0.018-0.184
						c0.254-0.341,0.031-0.269-0.004-0.324c-0.347,0.442-0.354,0.321-0.584,0.731c0.017-0.037,0.051-0.045,0.098-0.038
						c0.018-0.007,0.032-0.006,0.057-0.029l-0.034,0.036c0.042,0.013,0.092,0.037,0.145,0.067c-0.217,0.192-0.408,0.348-0.267,0.061
						c-0.252,0.26-0.512,0.527-0.635,0.654c0.423-0.666,0.56-1.099,0.844-1.491c-0.346,0.127-0.48-0.118-1.234,0.632
						c-0.127,0.072,0.14-0.275,0.228-0.417c0.091-0.063,0.11-0.027,0.218-0.135c-0.254,0.144-0.316-0.118-0.797,0.442
						c0.101-0.346,0.484-0.482,0.262-0.506l0.161-0.16c0.448-1.151-1.645,1.096-1.019-0.342c-0.036,0.09-0.052,0.132-0.124,0.232
						c0.053-0.812-1.142-0.111-0.84-1.226c0.031-0.248-0.274,0.111-0.561,0.341l0.355-0.489l-0.542,0.458
						c-0.47,0.278,0.664-1.367-0.13-0.766l-0.229,0.337c-0.021-0.115-0.368,0.013-0.064-0.343c-0.053,0.052-0.287,0.312-0.181,0.125
						l0.195-0.248L4.27,34.345c0.012-0.283,0.804-0.963,0.651-1.164c-0.147,0.038-0.777,0.557-0.882,0.743
						c0.019,0.035-0.049,0.212-0.245,0.461l-0.168,0.076C3.032,35.18,2.386,35.885,2.14,36.52l0.467-0.356L2.36,36.545l-0.111-0.053
						c-0.212,0.375,0.056,0.108,0.255-0.063c-0.141,0.195-0.23,0.338-0.264,0.426l0.665-0.607c-0.215,0.295-0.501,0.525-0.553,0.741
						c0.309-0.282,0.461-0.677,0.715-0.821c-0.211,0.373-0.442,0.63-0.154,0.397c-0.141,0.194-0.25,0.303-0.34,0.366
						c0.235-0.18,0.223,0.022,0.561-0.341c-0.271,0.452,0.272,0.044-0.284,0.728c0.149-0.151,0.53-0.462,0.604-0.45
						c-0.752,0.75,0.152,0.201-0.579,1.065c0.662-0.686,0.512-0.129,0.963-0.443c-0.054,0.053-0.163,0.162-0.144,0.115
						c0.02,0.117-0.139,0.356-0.207,0.531c0.499-0.605,0.717-0.659,1.077-0.99c-0.388,0.658-0.626,0.677-1.053,1.266
						c0.393-0.5,0.542-0.377,0.844-0.814c-0.228,0.417-0.086,0.222-0.459,0.755c0.624-0.756,0.164-0.081,0.593-0.508
						c-0.208,0.452-0.55,0.736-0.261,0.585C4.09,38.703,3.782,38.901,3.782,38.901z M7.277,39.527l-0.007,0.008
						c-0.029-0.006-0.054-0.012-0.07-0.015C7.216,39.522,7.238,39.524,7.277,39.527z M7.488,39.684
						c-0.011-0.037-0.04-0.065-0.075-0.088c0.114-0.157,0.247-0.307,0.261-0.283C7.582,39.405,7.56,39.532,7.488,39.684z
						 M9.488,36.295c0.082-0.036,0.024,0.059-0.043,0.152c-0.021-0.004-0.051-0.004-0.099,0.007l-0.047,0.051
						C9.371,36.426,9.438,36.352,9.488,36.295z"/>
					<path fill="#373737" d="M8.969,36.824c-0.012,0.006-0.03,0.022-0.039,0.021c-0.022,0.044-0.042,0.082-0.06,0.114l0.122-0.128
						L8.969,36.824z"/>
					<path fill="#373737" d="M27.012,52.326l0.004-0.014c-0.012,0.021-0.023,0.04-0.041,0.07C26.991,52.358,27,52.344,27.012,52.326
						z"/>
					<polygon fill="#373737" points="9.644,42.786 9.731,42.675 9.636,42.758 					"/>
					<path fill="#373737" d="M26.935,54.734c-0.029,0.041-0.057,0.084-0.075,0.125C26.882,54.83,26.908,54.784,26.935,54.734z"/>
					<path fill="#373737" d="M27.343,55.223l-0.056,0.211C27.329,55.321,27.341,55.262,27.343,55.223z"/>
					<path fill="#373737" d="M27.544,55.74c0.065-0.075,0.113-0.131,0.158-0.182l0.002-0.004L27.544,55.74z"/>
					<path fill="#373737" d="M21.175,51.491c-0.007-0.001-0.017,0-0.03,0.008C21.043,51.558,21.093,51.542,21.175,51.491z"/>
					<path fill="#373737" d="M23.768,51.884c-0.083,0.064-0.164,0.128-0.223,0.162C23.55,52.104,23.567,52.133,23.768,51.884z"/>
					<polygon fill="#373737" points="18.773,50.437 18.78,50.429 18.767,50.419 					"/>
					<path fill="#373737" d="M23.469,51.972c-0.038,0.113,0.003,0.115,0.077,0.074C23.543,51.995,23.548,51.926,23.469,51.972z"/>
					<path fill="#373737" d="M29.008,57.238l0.003,0.033c0.024-0.028,0.044-0.051,0.059-0.069L29.008,57.238z"/>
					<path fill="#373737" d="M29.07,57.202l0.062-0.036C29.123,57.159,29.112,57.156,29.07,57.202z"/>
					<path fill="#373737" d="M29.262,57.089l-0.131,0.077C29.145,57.179,29.152,57.207,29.262,57.089z"/>
					<path fill="#373737" d="M28.674,56.638l-0.133,0.155C28.569,56.761,28.612,56.711,28.674,56.638z"/>
					<path fill="#373737" d="M28.487,56.564c0.007,0.065-0.182,0.412-0.051,0.352l0.106-0.123
						C28.328,57.011,28.736,56.323,28.487,56.564z"/>
					<path fill="#373737" d="M29.432,54.093l0.024,0.229c0.114-0.188,0.267-0.438,0.357-0.434
						C30.059,53.255,29.543,54.293,29.432,54.093z"/>
					<path fill="#373737" d="M29.237,53.534c0.131-0.024,0.196-0.247,0.277-0.34C29.347,53.314,29.305,53.345,29.237,53.534z"/>
					<path fill="#373737" d="M26.409,51.269l0.326-0.394C26.637,50.89,26.611,51.029,26.409,51.269z"/>
					<polygon fill="#373737" points="24.216,52.901 24.069,53.189 24.386,52.843 					"/>
					<polygon fill="#373737" points="26.173,49.799 26.242,49.761 26.039,49.836 					"/>
					<path fill="#373737" d="M21.308,46.14l-0.378,0.505C21.036,46.584,21.485,46.038,21.308,46.14z"/>
					<path fill="#373737" d="M18.855,45c0.174-0.264,0.243-0.468,0.014-0.255C18.889,44.815,18.781,45.044,18.855,45z"/>
					<polygon fill="#373737" points="13.344,39.276 13.517,39.144 13.33,39.219 					"/>
				</g>
			</g>
		</g>
	</g>
</g>
<g>
	<g>
		<g>
			<g>
				<g>
					<path fill="#373737" d="M29.238,56.273c0.167-0.042,0.539-0.16,0.458-0.16l-0.638,0.176L29.238,56.273z"/>
					<path fill="#373737" d="M30.366,55.766c-0.315,0.066-0.864,0.199-1.441,0.393c0.618-0.15,0.363-0.088,1.098-0.267
						c0.081,0-0.191,0.101-0.426,0.168c0.165-0.042-0.128,0.077,0.273-0.031c0.481-0.178,0.49-0.221,0.073-0.137
						C30.08,55.841,30.248,55.799,30.366,55.766z"/>
					<path fill="#373737" d="M30.686,53.263L30.615,53.3C30.655,53.283,30.676,53.271,30.686,53.263z"/>
					<path fill="#373737" d="M30.62,51.792c0.019,0.006,0.083-0.009,0.14-0.026C30.715,51.77,30.674,51.773,30.62,51.792z"/>
					<path fill="#373737" d="M31.247,51.348c-0.017,0.012-0.026,0.018-0.039,0.026C31.265,51.352,31.295,51.336,31.247,51.348z"/>
					<path fill="#373737" d="M30.686,53.263l0.188-0.097C30.667,53.226,30.726,53.231,30.686,53.263z"/>
					<path fill="#373737" d="M28.746,55.925c0.033-0.002,0.094-0.013,0.172-0.031c-0.028,0.001-0.053,0.001-0.073,0.002
						C28.811,55.906,28.781,55.915,28.746,55.925z"/>
					<path fill="#373737" d="M31.381,53.709l0.004,0.011c0.073-0.02,0.161-0.042,0.26-0.069L31.381,53.709z"/>
					<path fill="#373737" d="M31.619,54.141c0.02-0.018-0.519,0.142-0.755,0.209c0.223-0.062,0.331-0.086,0.375-0.089
						C31.341,54.229,31.463,54.19,31.619,54.141z"/>
					<path fill="#373737" d="M30.894,55.161l0.078-0.01C30.948,55.154,30.925,55.157,30.894,55.161z"/>
					<path fill="#373737" d="M31.397,53.343c0.08-0.026,0.149-0.049,0.191-0.063C31.521,53.302,31.458,53.323,31.397,53.343z"/>
					<path fill="#373737" d="M23.439,41.65c0.039-0.012,0.062-0.019,0.096-0.029C23.48,41.635,23.442,41.646,23.439,41.65z"/>
					<polygon fill="#373737" points="25.942,40.308 25.973,40.306 26.275,40.216 					"/>
					<path fill="#373737" d="M31.807,50.712c-0.006,0.003-0.006,0.003-0.01,0.005C31.862,50.709,31.849,50.707,31.807,50.712z"/>
					<path fill="#373737" d="M30.223,46.917c-0.467,0.19-0.64,0.115-1.153,0.343C29.279,47.19,29.928,47.066,30.223,46.917z"/>
					<path fill="#373737" d="M28.812,55.892c-0.008-0.004-0.015-0.01-0.012-0.018C28.786,55.888,28.79,55.894,28.812,55.892z"/>
					<path fill="#373737" d="M29.07,47.26l-0.005,0.001l-0.048,0.022C29.039,47.274,29.052,47.268,29.07,47.26z"/>
					<path fill="#373737" d="M31.186,49.827c-0.093,0.033-0.164,0.058-0.232,0.082C31.007,49.89,31.074,49.866,31.186,49.827z"/>
					<path fill="#373737" d="M30.642,50.792l0.066-0.04C30.662,50.773,30.646,50.784,30.642,50.792z"/>
					<path fill="#373737" d="M30.311,49.677c0.038-0.022,0.111-0.048,0.035-0.04c-0.027,0.01-0.045,0.017-0.064,0.023
						C30.357,49.644,30.393,49.64,30.311,49.677z"/>
					<path fill="#373737" d="M30.188,49.282c-0.04,0.015-0.071,0.027-0.106,0.041l0.033,0.003L30.188,49.282z"/>
					<path fill="#373737" d="M24.063,42.774c0.15-0.052,0.315-0.108,0.478-0.165C24.16,42.732,24.006,42.715,24.063,42.774z"/>
					<path fill="#373737" d="M29.048,55.833c-0.137,0.039-0.205,0.056-0.235,0.059c0.007,0.002,0.02,0.003,0.033,0.004
						C28.925,55.871,29,55.848,29.048,55.833z"/>
					<path fill="#373737" d="M26.062,50.947l0.06-0.087C26.076,50.894,26.055,50.925,26.062,50.947z"/>
					<path fill="#373737" d="M25,45.59l-0.069,0.005C24.92,45.604,24.938,45.605,25,45.59z"/>
					<path fill="#373737" d="M25.986,50.698c0.186-0.068,0.293-0.114,0.361-0.148c-0.043,0.011-0.078,0.02-0.141,0.035
						L25.986,50.698z"/>
					<path fill="#373737" d="M24.546,42.608c-0.002,0-0.005,0.002-0.005,0.002S24.544,42.608,24.546,42.608z"/>
					<path fill="#373737" d="M23.143,42.581c0.002,0.064,0.701-0.182,1.11-0.292c0.222,0.011-0.511,0.191-0.865,0.325
						c0.201-0.012,0.86-0.174,0.842-0.133c-0.115,0.038-0.156,0.057-0.304,0.094c0.577-0.123,0.07,0.132,0.793-0.027
						c-0.062,0.022-0.121,0.042-0.173,0.061c0.354-0.111,0.712-0.223,0.968-0.303c0.02,0.023,0.462-0.085,0.002,0.065
						c0.009-0.021-0.178,0.035-0.325,0.07l0.209-0.033c-0.657,0.227-0.242,0.031-0.734,0.181c0.233-0.011,0.803-0.114,0.627-0.015
						c-0.647,0.206-0.249-0.032-0.81,0.199l0.229-0.14c-1.01,0.36,0.06-0.062-1.023,0.317c-0.163,0.143,0.36-0.005,0.196,0.138
						c0.365-0.105,0.535-0.154,0.9-0.259c0.686-0.075-1.605,0.591-0.713,0.418c0.44-0.108,1.266-0.349,0.85-0.153l-0.742,0.201
						c-0.047,0.105,1.071-0.273,0.603-0.036c-0.293,0.072-0.263,0.009-0.347,0.048c-0.563,0.232,0.429-0.087,0.442-0.043
						l-0.648,0.206c0.129,0.058,0.629,0.012,0.777,0.074c-0.195,0.053-0.404,0.099-0.596,0.182c0.363,0.025,0,0.287-0.35,0.523
						l0.575-0.125c-0.003,0.012-0.248,0.096-0.36,0.118c-0.199,0.111,0.357-0.106,0.584-0.15c0.047,0.014-0.312,0.133-0.486,0.167
						c0.5-0.062,1.097-0.078,0.521,0.19l-0.172,0.034c-0.208,0.136,1.175-0.273,0.669-0.052l-0.103,0.019
						c-0.199,0.219,0.364,0.224-0.451,0.592c0.816-0.224-0.317,0.253,0.814-0.079c-0.534,0.252-0.743,0.29-1.083,0.521
						c-0.042,0.047,0.719-0.167,0.848-0.164l-0.59,0.18l0.635-0.135l-0.697,0.242l0.163-0.01c0.03-0.025,0.255-0.111,0.426-0.16
						c0.284-0.024-0.369,0.263-0.671,0.355l0.54-0.017c-0.238,0.069-0.327,0.071-0.483,0.099c0.624-0.111-0.618,0.202-0.046,0.1
						c0.131-0.049,0.353-0.102,0.473-0.136c-0.347,0.141-0.328,0.216-0.16,0.226l-0.41,0.113c-0.073,0.131,0.259,0.15,0.285,0.264
						c0.177-0.098,0.885-0.302,0.962-0.29l-0.62,0.202c0.392-0.096,0.226-0.106,0.71-0.206c-0.059,0.063-0.7,0.243-0.91,0.281
						l0.231-0.015c-0.188,0.052-0.287,0.08-0.525,0.146c0.394-0.097-0.599,0.277,0.083,0.103L24.63,46.72
						c0.029,0.113,0.259,0.099,0.317,0.18c0.539-0.162,0.43-0.09,0.874-0.194c-0.151,0.119-0.552,0.321-0.482,0.388
						c0.285-0.025,0.46-0.122,0.788-0.193c-0.488,0.153-0.418,0.219-0.783,0.284c0.109,0.073,0.135,0.094,0.57,0.095
						c0.197-0.074,0.28-0.115,0.449-0.158c0.087-0.002-0.19,0.112-0.427,0.181l-0.052,0.009c0.776-0.085-1.333,0.75-0.278,0.549
						l-0.052,0.009l0.567-0.048c-0.069,0.078-0.378,0.081-0.67,0.211c0.855-0.126-0.06,0.229,0.515,0.164
						c-1.423,0.516,0.186,0.245-0.706,0.63l0.339-0.109c0.342-0.074-0.185,0.092-0.257,0.136c0.264-0.083,0.297-0.123,0.487-0.162
						c0.48,0.105-0.354,0.625-0.59,0.955c-0.065,0.114,1.777-0.485,0.997-0.13l-0.642,0.161c0.811-0.056,0.082,0.364,0.776,0.339
						c-0.148,0.034-0.338,0.091-0.341,0.074c-0.448,0.175,0.018,0.14,0.394,0.026c-0.035,0.04-0.337,0.109-0.523,0.183
						c-0.26,0.119,0.614-0.087,0.163,0.071c-0.074,0.026-0.152,0.035-0.19,0.039c0.23-0.044-0.023,0.127,0.5-0.056
						c-0.233,0.141,0.273,0.051-0.025,0.197c0.603-0.146-0.252,0.196,0.589-0.047c-0.867,0.258-0.665,0.324-0.245,0.241
						c-0.266,0.066-0.26,0.117-0.628,0.211c0.026,0.042,0.2,0.036,0.642-0.107c-1.01,0.399,0.885-0.082-0.428,0.368
						c0.507-0.004,0.86,0.028,1.101,0.089c-0.865,0.257-0.127-0.11-1.032,0.17c0.391,0.009,1.153-0.148,0.979,0.031
						c-0.109,0.065-0.379,0.096-0.53,0.131c0.391,0.009-0.01,0.25,0.492,0.211c-0.081,0.024-0.172,0.039-0.241,0.049
						c0.035,0.012-0.113,0.086,0.279-0.035l-0.112,0.012c0.56-0.206,1.214-0.279,1.516-0.367c-1.135,0.306-0.251,0.188-1.689,0.564
						c0.078-0.009,0.269-0.049,0.531-0.131c-0.07,0.043-0.222,0.096-0.526,0.166c0.236,0.009,0.645-0.144,0.656-0.075
						c-0.192,0.05-0.267,0.069-0.493,0.127c0.381-0.079,0.762-0.157,0.618-0.052c-0.116,0.031-0.263,0.083-0.265,0.065
						c0.087,0.079,1.037-0.135,0.71,0.08c-0.834,0.219-0.26,0.119-0.973,0.341l0.23-0.008l0.34-0.128
						c0.003,0.054,0.537-0.06,0.316,0.054l-0.306,0.052l0.164,0.052l0.255-0.135c0.383-0.061,0.902-0.279,0.724-0.152
						c-0.078,0.008,0.006,0.052-0.407,0.206l-0.002,0c0.235-0.044,0.482-0.092,0.316-0.001c-0.229,0.069-0.79,0.238-0.943,0.284
						c0.604-0.157,0.201,0.066,0.847-0.096c-0.153,0.035-0.528,0.148-0.604,0.175l0.491-0.126c-0.148,0.07-0.222,0.096-0.522,0.183
						c-0.068,0.096,0.9-0.297,0.534-0.096c-0.041,0.005-0.113,0.031-0.19,0.04c-0.179,0.145,0.356,0.067,0.141,0.215
						c-0.712,0.24-0.196-0.013-0.795,0.196c0.164,0.07,0.931-0.034,0.793,0.124l0.073-0.044c1.02-0.293-0.477,0.231,0.018,0.14
						c-0.079,0.01-0.569,0.154-0.455,0.123c-0.141,0.122,0.294,0.073,0.647,0.086l-0.265,0.065c-0.22,0.113-0.1,0.153-0.205,0.236
						c0.264-0.065,0.23-0.026,0.604-0.157c-1.442,0.593,0.879,0.031-0.32,0.533c-0.007-0.015-0.239,0.033-0.237,0.045l0.273,0.035
						c0.439-0.143,0.264-0.095,0.601-0.222c0.266-0.066,0.479-0.097,0.487-0.07c-0.308,0.041-0.71,0.216-0.951,0.312
						c0.136-0.041,0.286-0.085,0.424-0.126c-0.77,0.295,0.893-0.26,0.386-0.022l-0.233,0.066c0.127-0.007,0.442-0.074,0.386-0.022
						c-0.508,0.168-0.249,0.042-0.67,0.167c0.042,0.035,0.995-0.208,0.498-0.014c-0.148,0.025-0.159-0.001-0.306,0.023
						c-0.587,0.225-0.434,0.184-0.519,0.245l0.013-0.007l-0.25,0.156l0.157-0.068c1.351-0.35,0.278,0.038,1.174-0.154
						c-0.849,0.179-0.482,0.133-1.063,0.303c-0.155,0.068-0.327,0.151-0.493,0.192c0.479-0.107-0.351,0.169,0.348,0.011
						c-0.187,0.059-0.007,0.043-0.478,0.177c0.16,0.001,0.321-0.109,0.557-0.176c0.659-0.124-0.724,0.398,0.182,0.233
						c0.386-0.023,1.021-0.198,1.358-0.212c-0.291,0.118-0.687,0.184-0.687,0.184c-0.262,0.126-0.201,0.144,0.025,0.121
						c-0.166,0.041-0.301,0.091-0.506,0.167c0.059,0.018,0.687-0.184,0.424-0.057c-0.21,0.054-0.547,0.14-0.76,0.194
						c0.184-0.013,0.544-0.081,0.724-0.091c-0.322,0.109-0.5,0.125-0.717,0.176c0.16,0.001,0.33,0.028,0.849-0.114l0.175-0.084
						c0.03,0.009-0.439,0.142-0.537,0.159c-0.416,0.083,0.161-0.11,0.349-0.169l0.128-0.008c1.086-0.361-0.21-0.062-0.165-0.139
						l0.804-0.217l-0.679,0.141c0.203-0.075,0.646-0.219,0.773-0.226c0.38-0.161-0.294,0.049,0.134-0.12
						c0.067-0.024,0.105-0.034,0.138-0.04l-0.25,0.031c0.17-0.043,0.561-0.177,0.453-0.117c0.437-0.212-0.633,0.064-0.038-0.146
						l0.051-0.009c-0.3-0.019-0.588,0.167-1.296,0.3l1.426-0.488l-0.587,0.167c0.018-0.017,0.056-0.05,0.291-0.117
						c-0.412,0.083-0.252,0.083-0.637,0.175c0.517-0.211-0.291-0.062,0.637-0.356c-0.45,0.117-0.329,0.152-0.654,0.192
						c0.997-0.319-0.19-0.01,0.255-0.195c0.521-0.143,0.26-0.017,0.708-0.202c-0.882,0.237,0.165-0.147-0.015-0.135
						c-0.696,0.209-0.315,0.004-0.566,0.01c0.234-0.066,0.345-0.237,0.578-0.374l0.117-0.034c-0.706,0.201-0.592,0.099-0.752,0.098
						c0.422-0.126,0.59-0.168,0.786-0.201l-0.016-0.042c-0.228,0.058-0.351,0.081-0.439,0.078l0.528-0.148
						c-0.046-0.048-0.653,0.074-0.324-0.105c-0.492,0.145-1.347,0.472-1.698,0.494c0.264-0.083,0.716-0.223,0.831-0.236
						c-0.037,0.004-0.228,0.043-0.118-0.004l0.455-0.104c0.186-0.092-0.378,0.096-0.344,0.057c0.378-0.114,0.264-0.102,0.565-0.188
						c0.038-0.004-0.15,0.07,0.002,0.036c0.059-0.05,0.272-0.155,0.554-0.253c-0.214,0.067-0.509,0.154-0.564,0.147
						c-0.044-0.048,0.449-0.157,0.633-0.249c-0.266,0.066-0.005-0.053-0.57,0.118c-0.002-0.018,0.26-0.1,0.412-0.153
						c-0.258,0.046-0.113-0.115-0.704,0.1l-0.037,0.02c-0.012,0.001-0.013,0.001-0.026,0.003v0v0
						c-0.591,0.074,0.26-0.296-0.011-0.318l0.189-0.057c-0.233,0.008-0.166-0.088-0.585-0.005c-0.004-0.017,0.333-0.144,0.561-0.205
						c-0.155,0-0.369,0.059-0.076-0.098c0.343-0.056,0.288-0.104,0.255-0.028c0.146-0.106,0.445-0.21-0.09-0.115
						c0.491-0.126,0.597-0.227,0.444-0.21l-0.335,0.145c-0.08-0.009-0.044-0.048-0.012-0.087l0.642-0.179
						c0.74-0.35-1.381,0.191-0.111-0.29c-0.455,0.104-0.294,0.158-0.824,0.289c0.035-0.04,0.276-0.143,0.509-0.238
						c0.232-0.095,0.455-0.191,0.455-0.191c0.331-0.18-0.951,0.214-0.733,0.065c-0.224,0.078-0.828,0.271-1.059,0.279
						c0.068-0.079,0.933-0.354,1.125-0.376c0.023,0.007-0.047,0.035-0.124,0.058c0.088-0.008,0.192-0.015,0.432-0.11l-0.229,0.062
						c0.224-0.097,0.177-0.162,0.555-0.258c-0.229,0.026-0.378,0.096-0.487,0.162c0.309-0.168-0.022-0.11,0.177-0.247
						c-0.122,0.049-0.385,0.141-0.386,0.129c0.25-0.188-0.445,0.085-0.565,0.045c0.334-0.145,0.831-0.236,0.52-0.218
						c0.222-0.114,0.6-0.192,0.79-0.231c-0.457,0.069,0.252-0.207,0.321-0.268l0.193-0.022c-0.115,0.013-0.117-0.004-0.121-0.022
						l-0.449,0.157c0.073-0.044,0.07-0.061,0.259-0.118c-0.304,0.07-0.751,0.245-1.17,0.328c0.223-0.096-0.272-0.005,0.328-0.197
						c-0.18,0.145,0.603-0.192,0.721-0.152c-0.076,0.008-0.078-0.009-0.004-0.053c0.066-0.023,0.125-0.035,0.162-0.04
						c0.515-0.243-0.693,0.17-0.704,0.084c0.343-0.093,0.639-0.214,0.562-0.206c0.003,0.035-0.562,0.188-0.832,0.236
						c0.249-0.133-0.214,0.002-0.192-0.035l-0.115,0.069c-0.342,0.092-0.306,0.052-0.424,0.048c0.264-0.083,0.192-0.021,0.305-0.07
						c-0.61,0.14,0.59-0.279,0.17-0.214c0.223-0.096,0.638-0.196,0.787-0.267c-0.46,0.07,0.444-0.21,0.06-0.167
						c-0.451,0.158-0.338,0.127-0.797,0.215l0.355,0.013l-0.686,0.13c0.003,0.035,0.309-0.017,0.236,0.027
						c-0.382,0.079-0.268,0.048-0.642,0.179c0.671-0.253-0.426,0.031,0.021-0.162l1.131-0.341c0.479-0.232-0.623,0.035-0.37-0.154
						l-0.186,0.093c-0.454,0.123-0.082-0.044-0.274-0.022c0.379-0.111,0.51-0.174,0.741-0.259c-0.28,0.086,0.003-0.083-0.754,0.136
						l0.484-0.197c0.178-0.145-1.105,0.232-1.001,0.113c0.418-0.101,0.675-0.218,0.985-0.253c-0.004-0.028,0.058-0.073-0.205,0.006
						c0.232-0.087-0.531,0.08-0.18-0.053c-0.169,0.039-0.566,0.156-0.544,0.116c0.077-0.023,0.187-0.057,0.187-0.057
						c-0.187,0.057-0.269,0.03-0.679,0.183c1.154-0.439-0.155-0.203,0.835-0.581c-0.144-0.02-0.287-0.053-0.33-0.098
						c0.114-0.031,0.188-0.057,0.152-0.035c0.33-0.179-1.098,0.284-0.731,0.082c0.598-0.227,0.344-0.056,0.567-0.152
						c1.24-0.388-0.2-0.048,0.509-0.324l0.078-0.009c0.41-0.17-0.502,0.039-0.435-0.058c0,0,0.11-0.033,0.188-0.057
						c-0.648,0.145-0.886,0.118-1.082,0.105c0.493-0.127,0.267-0.048,0.757-0.21c-0.079-0.009-0.792,0.25-0.948,0.231
						c0.26-0.1,0.48-0.214,1.006-0.379l0.046,0.048c0.674-0.236-0.046-0.066,0.064-0.132l0.299-0.086
						c-0.123-0.057-0.875,0.169-0.85,0.06l-0.223,0.078c-0.761,0.175,0.406-0.169-0.164-0.053l0.751-0.244
						c-0.192,0.021-0.766,0.104-0.926,0.087c0.571-0.136,0.878-0.152,1.224-0.209c-0.004-0.035-0.09-0.096-0.468,0
						c0.077-0.009,0.267-0.048,0.155,0c-0.606,0.139-0.915,0.174-0.922,0.104c1.468-0.432,0.317-0.285,1.44-0.678
						c-0.578,0.047,0.16-0.302,0.032-0.413c-1.125,0.394-0.044-0.03-1.212,0.333c-0.083-0.009-0.068-0.027,0.007-0.053l0.669-0.308
						c0.334-0.126,0.267-0.048,0.529-0.13c0.069-0.097,0.487-0.18,0.784-0.32c-0.416,0.136-0.606,0.157-0.459,0.069l-0.522,0.219
						c-0.652,0.092,0.957-0.382,0.31-0.293l0.377-0.081c-0.232,0.016-0.049-0.188-1.004,0.048c0.132-0.05,0.449-0.159,0.54-0.162
						c0.105-0.163-1.082,0.035-0.531-0.234l0.289-0.077c-0.089,0.002-0.549,0.124-0.27,0.008c0.119-0.034,0.288-0.078,0.302-0.093
						c-0.102,0.018-0.52,0.093-0.362,0.012l0.33-0.072c0.339-0.231-0.838,0.058-1.064,0.019c0.842-0.255,1.088-0.43,1.211-0.518
						l0.12-0.035c0.062-0.168-0.769-0.021-1.138-0.047c0.891-0.355,0.302-0.382,0.777-0.664c-0.147,0.065-0.658,0.196-0.749,0.199
						c0.162-0.081-0.609,0.096,0.165-0.134l-0.011,0.015c0.751-0.252,0.531-0.251,0.538-0.306l-1.013,0.299
						c1.432-0.57-0.639-0.162,0.657-0.629c-0.262,0.047-0.271,0.009-0.532,0.056l0.542-0.163c0.113-0.125,0.169-0.188,0.008-0.251
						l0.394-0.097c0.017-0.068-1.585,0.4-1.633,0.357l0.804-0.261c-0.043-0.098,0.636-0.415-0.128-0.292
						c0.119-0.034,0.354-0.103,0.391-0.096c0.007-0.054,0.492-0.351-0.613,0.003c0.722-0.22,0.039-0.125-0.296-0.084l0.536-0.153
						c-0.695,0.16-0.882,0.215-1.09,0.208c0.065-0.037,0.423-0.143,0.292-0.082c0.264-0.135-0.517,0.114-0.251-0.034l0.348-0.08
						c0.025-0.065-0.156-0.005-0.562,0.086c-0.224,0.032,0.104-0.14,0.584-0.293c-0.296,0.082-0.698,0.172-0.568,0.1
						c0.181-0.06,0.298-0.083,0.354-0.094c0.336-0.197-0.66,0.058-0.154-0.161c0.176-0.055,0.263-0.085,0.315-0.106
						c0.009,0.073-0.004,0.138-0.044,0.145c0.492-0.149,0.561-0.231,1.254-0.392c-0.384,0.067-1.213,0.234-0.999,0.109
						c0.047-0.017,0.093-0.033,0.168-0.059l0.057-0.011c0.045-0.027-0.004-0.025-0.09-0.01c0.076-0.042,0.132-0.071,0.134-0.09
						c0.405-0.13,0.2-0.131,0.212-0.165c-0.538,0.166-0.462,0.103-0.896,0.271c0.037-0.016,0.066-0.014,0.094-0.002
						c0.017,0,0.027,0.002,0.059-0.005l-0.047,0.013c0.021,0.014,0.04,0.034,0.057,0.059c-0.28,0.061-0.517,0.107-0.228-0.014
						c-0.35,0.089-0.71,0.181-0.88,0.224c0.739-0.266,1.122-0.462,1.582-0.613c-0.328,0.006-0.26-0.141-1.287,0.112
						c-0.137,0.015,0.281-0.116,0.438-0.173c0.105-0.017,0.095,0.004,0.243-0.032c-0.274,0.03-0.145-0.113-0.854,0.089
						c0.3-0.158,0.66-0.163,0.52-0.211l0.219-0.054c1.078-0.508-1.884,0.277-0.491-0.345c-0.085,0.04-0.125,0.058-0.242,0.097
						c0.575-0.403-0.73-0.25,0.22-0.763c0.187-0.121-0.267,0.01-0.62,0.078l0.574-0.188l-0.686,0.141
						c-0.515,0.061,1.373-0.58,0.416-0.41l-0.385,0.132c0.062-0.062-0.268-0.055,0.182-0.185c-0.072,0.018-0.409,0.11-0.21,0.033
						l0.302-0.093l-0.547,0.06c0.196-0.141,1.204-0.352,1.229-0.479c-0.128-0.005-0.916,0.151-1.113,0.228
						c-0.01,0.021-0.175,0.099-0.479,0.192l-0.168,0.01c-0.894,0.263-1.814,0.511-2.409,0.792l0.564-0.102l-0.426,0.152
						l-0.043-0.045c-0.398,0.153-0.032,0.064,0.222,0.011c-0.229,0.075-0.387,0.132-0.468,0.171l0.871-0.195
						c-0.347,0.113-0.701,0.182-0.88,0.282c0.404-0.09,0.773-0.265,1.048-0.295c-0.396,0.153-0.729,0.244-0.372,0.175
						c-0.228,0.075-0.376,0.111-0.481,0.127c0.285-0.051,0.142,0.049,0.621-0.078c-0.49,0.183,0.163,0.068-0.682,0.32
						c0.205-0.051,0.679-0.145,0.723-0.125c-1.026,0.252-0.026,0.127-1.113,0.441c0.92-0.235,0.446,0.021,0.971-0.062
						c-0.073,0.018-0.222,0.054-0.177,0.034c-0.063,0.062-0.333,0.157-0.498,0.234c0.752-0.222,0.942-0.212,1.415-0.32
						c-0.709,0.268-0.889,0.238-1.58,0.463c0.607-0.187,0.632-0.1,1.134-0.27c-0.437,0.173-0.208,0.098-0.823,0.305
						c0.939-0.278,0.168-0.014,0.754-0.158c-0.446,0.194-0.874,0.28-0.571,0.252C23.491,42.533,23.143,42.581,23.143,42.581z
						 M25.188,43.489c-0.005,0.001-0.009,0.003-0.011,0.003c-0.016-0.008-0.03-0.015-0.039-0.02
						C25.148,43.476,25.163,43.48,25.188,43.489z M25.232,43.604c0.017-0.021,0.015-0.04,0.006-0.058
						c0.185-0.061,0.377-0.114,0.371-0.099C25.483,43.479,25.384,43.539,25.232,43.604z M28.886,42.225
						c0.082-0.004-0.022,0.034-0.131,0.07c-0.012-0.006-0.033-0.011-0.074-0.013c-0.021,0.005-0.043,0.012-0.067,0.018
						C28.717,42.271,28.814,42.245,28.886,42.225z"/>
					<path fill="#373737" d="M28.17,42.405c-0.012,0.001-0.036,0.006-0.042,0.004c-0.046,0.019-0.085,0.035-0.118,0.048l0.171-0.044
						L28.17,42.405z"/>
					<path fill="#373737" d="M30.603,53.306l0.012-0.006c-0.021,0.008-0.042,0.016-0.075,0.028
						C30.565,53.319,30.582,53.313,30.603,53.306z"/>
					<polygon fill="#373737" points="24.695,45.54 24.831,45.498 24.709,45.524 					"/>
					<path fill="#373737" d="M28.953,54.513c-0.046,0.017-0.094,0.035-0.135,0.05C28.852,54.551,28.9,54.533,28.953,54.513z"/>
					<path fill="#373737" d="M28.917,54.83l-0.18,0.098C28.841,54.877,28.889,54.849,28.917,54.83z"/>
					<path fill="#373737" d="M28.715,55.125c0.095-0.027,0.167-0.047,0.232-0.066l0.004-0.001L28.715,55.125z"/>
					<path fill="#373737" d="M27.047,51.897c-0.004-0.002-0.012-0.003-0.027-0.001C26.91,51.908,26.955,51.909,27.047,51.897z"/>
					<path fill="#373737" d="M28.612,52.534c-0.101,0.017-0.199,0.033-0.264,0.044C28.312,52.609,28.306,52.626,28.612,52.534z"/>
					<polygon fill="#373737" points="26.055,50.957 26.064,50.955 26.062,50.947 					"/>
					<path fill="#373737" d="M28.343,52.528c-0.101,0.05-0.074,0.059,0.005,0.05C28.379,52.553,28.429,52.519,28.343,52.528z"/>
					<path fill="#373737" d="M28.754,56.131l-0.019,0.018c0.036-0.01,0.064-0.019,0.086-0.025L28.754,56.131z"/>
					<path fill="#373737" d="M28.821,56.124l0.067-0.007C28.887,56.111,28.881,56.107,28.821,56.124z"/>
					<path fill="#373737" d="M29.031,56.099l-0.143,0.017C28.89,56.125,28.876,56.14,29.031,56.099z"/>
					<path fill="#373737" d="M28.917,55.771l-0.196,0.056C28.761,55.816,28.824,55.798,28.917,55.771z"/>
					<path fill="#373737" d="M28.833,55.702c-0.038,0.034-0.4,0.178-0.27,0.169l0.156-0.044
						C28.426,55.902,29.168,55.622,28.833,55.702z"/>
					<path fill="#373737" d="M31.136,54.61l-0.134,0.12c0.204-0.076,0.479-0.177,0.539-0.159
						C32.132,54.291,31.081,54.73,31.136,54.61z"/>
					<path fill="#373737" d="M31.369,54.294c0.108,0.01,0.302-0.092,0.42-0.125C31.592,54.201,31.542,54.209,31.369,54.294z"/>
					<path fill="#373737" d="M30.878,52.668l0.491-0.145C31.29,52.515,31.18,52.582,30.878,52.668z"/>
					<polygon fill="#373737" points="28.254,53.125 27.958,53.247 28.412,53.125 					"/>
					<polygon fill="#373737" points="31.686,51.885 31.76,51.876 31.567,51.88 					"/>
					<path fill="#373737" d="M30.685,49.208L30.084,49.4C30.199,49.388,30.878,49.187,30.685,49.208z"/>
					<path fill="#373737" d="M29.714,48.217c0.297-0.104,0.481-0.196,0.179-0.127C29.859,48.129,29.632,48.227,29.714,48.217z"/>
					<polygon fill="#373737" points="29.625,44.386 29.834,44.349 29.653,44.355 					"/>
				</g>
			</g>
		</g>
	</g>
</g>
<g>
	<g>
		<g>
			<g>
				<g>
					<path fill="#373737" d="M14.326,55.206c-0.008,0.172-0.004,0.562,0.02,0.485l0.017-0.662L14.326,55.206z"/>
					<path fill="#373737" d="M14.485,56.432c0.027-0.32,0.06-0.885,0.042-1.492c-0.036,0.634-0.021,0.373-0.063,1.128
						c-0.024,0.077-0.042-0.213-0.037-0.456c-0.009,0.17-0.037-0.146-0.049,0.271c0.03,0.512,0.069,0.532,0.11,0.109
						C14.495,56.137,14.487,56.31,14.485,56.432z"/>
					<path fill="#373737" d="M16.787,57.464l-0.015-0.078C16.776,57.429,16.781,57.453,16.787,57.464z"/>
					<path fill="#373737" d="M18.214,57.827c-0.011,0.017-0.016,0.082-0.016,0.142C18.208,57.926,18.216,57.885,18.214,57.827z"/>
					<path fill="#373737" d="M18.458,58.557c-0.006-0.02-0.01-0.03-0.015-0.045C18.448,58.573,18.454,58.606,18.458,58.557z"/>
					<path fill="#373737" d="M16.787,57.464l0.038,0.208C16.828,57.456,16.806,57.512,16.787,57.464z"/>
					<path fill="#373737" d="M14.802,54.835c-0.008,0.032-0.015,0.094-0.021,0.174c0.008-0.027,0.014-0.05,0.02-0.069
						C14.801,54.903,14.802,54.873,14.802,54.835z"/>
					<path fill="#373737" d="M16.158,58.001l-0.012,0.001c-0.002,0.075-0.006,0.167-0.009,0.269L16.158,58.001z"/>
					<path fill="#373737" d="M15.676,58.103c0.011,0.024,0.015-0.538,0.019-0.783c-0.006,0.231-0.014,0.342-0.023,0.385
						C15.672,57.811,15.674,57.939,15.676,58.103z"/>
					<path fill="#373737" d="M14.91,57.113l-0.014,0.077C14.901,57.167,14.905,57.144,14.91,57.113z"/>
					<path fill="#373737" d="M16.504,58.122c0.001,0.083,0.003,0.157,0.004,0.201C16.506,58.253,16.505,58.186,16.504,58.122z"/>
					<path fill="#373737" d="M30.003,53.897c0,0.041,0,0.065,0,0.101C30.006,53.941,30.007,53.901,30.003,53.897z"/>
					<polygon fill="#373737" points="30.562,56.682 30.555,56.712 30.553,57.027 					"/>
					<path fill="#373737" d="M18.903,59.277c-0.001-0.006-0.001-0.006-0.002-0.011C18.889,59.33,18.896,59.319,18.903,59.277z"/>
					<path fill="#373737" d="M22.995,58.862c-0.046-0.502,0.076-0.646,0.006-1.203C23.007,57.879,22.938,58.536,22.995,58.862z"/>
					<path fill="#373737" d="M14.814,54.909c0.007-0.007,0.013-0.012,0.02-0.006C14.825,54.885,14.819,54.887,14.814,54.909z"/>
					<path fill="#373737" d="M23.001,57.659v-0.005l-0.007-0.053C22.997,57.625,22.999,57.64,23.001,57.659z"/>
					<path fill="#373737" d="M19.93,58.939c-0.004-0.099-0.007-0.174-0.01-0.246C19.922,58.75,19.925,58.82,19.93,58.939z"/>
					<path fill="#373737" d="M19.165,58.14l0.019,0.075C19.176,58.163,19.17,58.146,19.165,58.14z"/>
					<path fill="#373737" d="M20.328,58.146c0.01,0.043,0.014,0.121,0.028,0.045c-0.002-0.028-0.003-0.048-0.004-0.068
						C20.346,58.199,20.339,58.235,20.328,58.146z"/>
					<path fill="#373737" d="M20.741,58.143c-0.003-0.043-0.005-0.076-0.008-0.113l-0.013,0.03L20.741,58.143z"/>
					<path fill="#373737" d="M28.746,54.168c0.006,0.159,0.013,0.333,0.02,0.506C28.759,54.273,28.82,54.131,28.746,54.168z"/>
					<path fill="#373737" d="M14.802,55.151c0.002-0.143,0.006-0.212,0.012-0.242c-0.004,0.006-0.009,0.018-0.014,0.03
						C14.801,55.023,14.802,55.102,14.802,55.151z"/>
					<path fill="#373737" d="M20.344,53.711l0.066,0.083C20.392,53.739,20.368,53.711,20.344,53.711z"/>
					<path fill="#373737" d="M25.78,54.248l0.015-0.067C25.789,54.168,25.784,54.185,25.78,54.248z"/>
					<path fill="#373737" d="M20.605,53.711c0.012,0.198,0.024,0.313,0.037,0.389c0.002-0.044,0.004-0.081,0.007-0.146
						L20.605,53.711z"/>
					<path fill="#373737" d="M28.766,54.68c0-0.003,0-0.006,0-0.006S28.766,54.677,28.766,54.68z"/>
					<path fill="#373737" d="M29.198,53.344c-0.062-0.016-0.029,0.724-0.042,1.147c-0.075,0.21-0.035-0.544-0.06-0.922
						c-0.047,0.195-0.083,0.874-0.117,0.845c-0.003-0.121-0.009-0.166-0.001-0.318c-0.049,0.588-0.146,0.029-0.204,0.767
						c-0.002-0.065-0.005-0.127-0.007-0.183c0.003,0.37,0.006,0.746,0.009,1.014c-0.028,0.013-0.052,0.467-0.062-0.017
						c0.017,0.015,0.019-0.181,0.026-0.331l-0.029,0.21c-0.026-0.694,0.04-0.24,0.04-0.755c-0.057,0.227-0.124,0.801-0.168,0.604
						c-0.009-0.679,0.103-0.229,0.044-0.832l0.068,0.259c-0.052-1.071,0.041,0.075-0.007-1.071c-0.089-0.196-0.1,0.347-0.189,0.148
						c-0.005,0.379-0.008,0.556-0.014,0.936c-0.127,0.679-0.1-1.708-0.193-0.803c-0.024,0.452-0.034,1.312-0.1,0.857l0.022-0.769
						c-0.086-0.075-0.049,1.104-0.14,0.588c0.016-0.302,0.068-0.255,0.055-0.346c-0.059-0.606-0.042,0.436-0.087,0.436l-0.009-0.681
						c-0.092,0.107-0.194,0.599-0.296,0.723c0.006-0.202,0.023-0.415,0-0.623c-0.129,0.34-0.275-0.083-0.399-0.486l-0.047,0.587
						c-0.011-0.007-0.021-0.266-0.009-0.379c-0.048-0.223-0.002,0.372-0.026,0.603c-0.027,0.041-0.036-0.337-0.019-0.514
						c-0.085,0.498-0.244,1.072-0.333,0.443l0.018-0.174c-0.07-0.238-0.079,1.203-0.145,0.655l0.013-0.104
						c-0.152-0.255-0.32,0.283-0.437-0.604c-0.022,0.846-0.15-0.377-0.16,0.803c-0.087-0.585-0.062-0.795-0.185-1.188
						c-0.033-0.054-0.049,0.736-0.089,0.859l-0.001-0.616l-0.055,0.646l-0.029-0.737l-0.038,0.158
						c0.015,0.036,0.032,0.277,0.03,0.455c-0.059,0.278-0.145-0.43-0.146-0.746l-0.14,0.521c0.003-0.248,0.027-0.333,0.045-0.491
						c-0.075,0.629-0.014-0.649-0.082-0.072c0.009,0.14-0.005,0.367-0.007,0.491c-0.034-0.372-0.112-0.376-0.169-0.219l0.011-0.425
						c-0.104-0.108-0.219,0.204-0.335,0.196c0.042,0.198,0.032,0.935-0.002,1.005l-0.014-0.651c-0.022,0.403,0.036,0.246-0.01,0.739
						c-0.043-0.075-0.029-0.741-0.004-0.953l-0.053,0.227c0.004-0.195,0.007-0.298,0.013-0.546
						c-0.022,0.405-0.092-0.653-0.123,0.049l-0.003-0.193c-0.117-0.006-0.169,0.219-0.264,0.251
						c-0.002,0.562-0.039,0.438-0.067,0.893c-0.07-0.18-0.147-0.621-0.231-0.574c-0.059,0.28-0.017,0.477-0.043,0.811
						c-0.004-0.512-0.088-0.464-0.045-0.832c-0.101,0.083-0.129,0.102-0.256,0.518c0.014,0.211,0.029,0.302,0.021,0.477
						c-0.023,0.084-0.052-0.215-0.049-0.461l0.006-0.053c-0.143,0.768-0.331-1.494-0.445-0.426l0.006-0.053l-0.118,0.557
						c-0.054-0.089,0.033-0.386-0.007-0.702c-0.128,0.854-0.202-0.124-0.307,0.445c-0.082-1.512-0.289,0.106-0.398-0.858
						l0.006,0.355c-0.028,0.35-0.035-0.203-0.055-0.285c0.003,0.276,0.031,0.32,0.013,0.514c-0.241,0.429-0.496-0.521-0.743-0.842
						c-0.09-0.095-0.051,1.842-0.165,0.992l0.032-0.661c-0.182,0.792-0.372-0.027-0.55,0.646c0.011-0.152,0.011-0.351,0.028-0.349
						c-0.038-0.479-0.139-0.023-0.14,0.369c-0.028-0.045-0.006-0.354-0.023-0.554c-0.038-0.283-0.095,0.612-0.115,0.135
						c-0.003-0.078,0.011-0.155,0.018-0.192c-0.024,0.232-0.115-0.06-0.091,0.494c-0.067-0.264-0.128,0.247-0.181-0.081
						c-0.035,0.619-0.115-0.299-0.125,0.577c0.005-0.904-0.117-0.729-0.16-0.304c0.014-0.273-0.037-0.283-0.02-0.662
						c-0.048,0.013-0.092,0.181-0.084,0.646c-0.089-1.083-0.179,0.871-0.229-0.517c-0.143,0.486-0.276,0.815-0.405,1.027
						c0.005-0.902,0.143-0.09,0.137-1.037c-0.123,0.372-0.193,1.146-0.314,0.929c-0.031-0.123,0.018-0.392,0.028-0.546
						c-0.122,0.372-0.236-0.082-0.345,0.409c0-0.084,0.012-0.176,0.023-0.244c-0.021,0.029-0.05-0.133-0.047,0.277l0.021-0.111
						c0.034,0.596-0.085,1.243-0.089,1.558c0.036-1.175-0.107-0.295-0.05-1.78c-0.014,0.077-0.032,0.271-0.028,0.546
						c-0.021-0.08-0.027-0.24-0.006-0.552c-0.077,0.223-0.049,0.659-0.119,0.649c0.008-0.198,0.012-0.275,0.021-0.509
						c-0.035,0.388-0.07,0.774-0.129,0.606c0.003-0.119-0.003-0.275,0.014-0.272c-0.101,0.061-0.172,1.031-0.283,0.657
						c0.033-0.862-0.038-0.284-0.043-1.03l-0.06,0.223l0.024,0.362c-0.052-0.013-0.098,0.531-0.143,0.286l0.039-0.308l-0.098,0.142
						l0.055,0.283c-0.053,0.385,0.005,0.945-0.064,0.737c0.014-0.077-0.052-0.01-0.079-0.449v-0.002
						c-0.026,0.237-0.052,0.488-0.091,0.303c0-0.24,0.001-0.825,0.001-0.985c-0.025,0.624-0.122,0.174-0.154,0.839
						c0.011-0.156,0.012-0.549,0.008-0.628l-0.021,0.507c-0.024-0.162-0.028-0.241-0.024-0.554
						c-0.073-0.093,0.023,0.947-0.063,0.539c0.007-0.041,0.003-0.116,0.018-0.193c-0.087-0.213-0.167,0.321-0.247,0.072
						c-0.023-0.752,0.07-0.185,0.043-0.818c-0.115,0.137-0.238,0.901-0.349,0.724l0.021,0.083c-0.015,1.061-0.083-0.523-0.139-0.023
						c0.014-0.079,0.018-0.589,0.014-0.471c-0.076-0.171-0.155,0.261-0.271,0.595l0.015-0.273c-0.045-0.243-0.118-0.14-0.167-0.264
						c-0.014,0.271-0.042,0.228-0.025,0.624c-0.149-1.552-0.284,0.832-0.417-0.461c0.016-0.003,0.038-0.238,0.025-0.24l-0.113,0.252
						c0.009,0.462,0.015,0.279,0.039,0.64c-0.014,0.273-0.046,0.486-0.074,0.486c0.051-0.307,0-0.742-0.022-1
						c0,0.142-0.001,0.297-0.002,0.441c-0.059-0.822-0.01,0.93-0.09,0.376l0.004-0.242c-0.03,0.124-0.058,0.444-0.09,0.375
						c-0.013-0.534,0.032-0.249,0.034-0.689c-0.045,0.031-0.09,1.013-0.131,0.48c0.02-0.149,0.047-0.151,0.067-0.3
						c-0.045-0.627-0.05-0.468-0.083-0.567l0.003,0.014l-0.077-0.284l0.02,0.17c-0.057,1.395-0.116,0.255-0.193,1.168
						c0.075-0.864,0.013-0.5,0.018-1.105c-0.02-0.168-0.049-0.356-0.041-0.527c-0.037,0.489-0.061-0.385-0.112,0.33
						c-0.002-0.195-0.039-0.02-0.03-0.509c-0.047,0.153,0.011,0.339,0.007,0.584c-0.073,0.666-0.171-0.809-0.275,0.106
						c-0.09,0.376-0.107,1.034-0.191,1.361c-0.028-0.312,0.023-0.711,0.023-0.711c-0.045-0.287-0.08-0.234-0.123-0.011
						c0.008-0.17,0-0.314-0.014-0.533c-0.034,0.051-0.023,0.71-0.068,0.423c0.009-0.217,0.025-0.564,0.034-0.784
						c-0.041,0.18-0.081,0.544-0.123,0.72c-0.011-0.34,0.025-0.516,0.04-0.737c-0.047,0.153-0.123,0.308-0.137,0.846l0.03,0.192
						c-0.017,0.026-0.009-0.462,0.004-0.561c0.041-0.422,0.059,0.187,0.061,0.383l-0.03,0.125c0.031,1.144,0.121-0.184,0.181-0.117
						l-0.025,0.832l0.062-0.69c0.013,0.216,0.022,0.681-0.008,0.806c0.043,0.41,0.038-0.296,0.075,0.162
						c0.004,0.071,0.002,0.111-0.001,0.145l0.042-0.248c-0.008,0.175,0.007,0.588-0.019,0.468c0.076,0.479,0.123-0.624,0.151,0.006
						l-0.006,0.052c0.105-0.281,0.01-0.611,0.089-1.328l0.053,1.507l0.011-0.61c0.011,0.021,0.032,0.067,0.028,0.312
						c0.04-0.418-0.007-0.266,0.017-0.66c0.052,0.557,0.144-0.26,0.156,0.713c0.019-0.464-0.05-0.358,0.006-0.681
						c0.016,1.046,0.064-0.18,0.112,0.301c-0.015,0.54-0.06,0.254-0.012,0.736c0.029-0.913,0.093,0.199,0.133,0.024
						c0.001-0.727,0.087-0.303,0.155-0.545c-0.004,0.244,0.127,0.399,0.19,0.662l-0.001,0.122c0.012-0.734,0.077-0.596,0.124-0.748
						c-0.002,0.44-0.01,0.613-0.036,0.81l0.044-0.003c0.011-0.235,0.024-0.359,0.053-0.443l-0.011,0.549
						c0.059-0.03,0.119-0.646,0.195-0.28c0.004-0.512-0.061-1.426,0.02-1.768c0.003,0.276,0.006,0.75-0.015,0.863
						c0.007-0.036,0.025-0.229,0.039-0.111l-0.032,0.466c0.035,0.204,0.019-0.39,0.046-0.346c0,0.395,0.021,0.281,0.017,0.595
						c-0.007,0.038-0.024-0.163-0.035-0.008c0.031,0.07,0.069,0.305,0.082,0.604c-0.003-0.225,0-0.531,0.022-0.583
						c0.059-0.028,0.021,0.476,0.055,0.678c0.015-0.273,0.052,0.011,0.053-0.58c0.017,0.003,0.021,0.278,0.027,0.438
						c0.031-0.261,0.143-0.074,0.108-0.702l-0.008-0.042c0.002-0.011,0.003-0.013,0.005-0.025h0h0
						c0.1-0.587,0.208,0.334,0.308,0.082l0,0.197c0.06-0.226,0.132-0.134,0.175-0.559c0.017,0.001,0.041,0.361,0.034,0.596
						c0.045-0.148,0.05-0.37,0.116-0.044c-0.046,0.345,0.016,0.306-0.047,0.252c0.059,0.171,0.072,0.487,0.136-0.053
						c-0.022,0.506,0.044,0.637,0.072,0.486l-0.042-0.362c0.032-0.074,0.059-0.029,0.087,0.014l-0.015,0.666
						c0.121,0.81,0.218-1.378,0.31-0.022c0.032-0.466-0.065-0.328-0.037-0.872c0.028,0.045,0.056,0.306,0.08,0.556
						c0.024,0.25,0.051,0.491,0.051,0.491c0.076,0.368,0.071-0.973,0.15-0.721c-0.01-0.236-0.02-0.87,0.04-1.094
						c0.056,0.088,0.068,0.995,0.033,1.186c-0.013,0.021-0.02-0.055-0.019-0.136c-0.018,0.087-0.042,0.188-0.02,0.445l0.007-0.237
						c0.027,0.242,0.104,0.217,0.086,0.606c0.042-0.227,0.018-0.39-0.013-0.513c0.071,0.344,0.111,0.011,0.185,0.241
						c-0.012-0.131-0.022-0.409-0.011-0.407c0.107,0.294,0.047-0.45,0.12-0.554c0.042,0.361-0.015,0.863,0.059,0.561
						c0.045,0.245,0.01,0.63-0.008,0.823c0.067-0.458,0.125,0.301,0.163,0.385l-0.035,0.191c0.021-0.114,0.038-0.11,0.056-0.109
						l-0.02-0.475c0.021,0.082,0.038,0.085,0.038,0.282c0.021-0.312-0.016-0.79,0.026-1.215c0.027,0.241,0.083-0.259,0.093,0.371
						c-0.087-0.214,0.01,0.633-0.064,0.734c0.014-0.075,0.032-0.072,0.052,0.011c0.003,0.07-0.003,0.131-0.008,0.167
						c0.083,0.562,0.038-0.713,0.124-0.698c-0.011,0.355,0.02,0.674,0.034,0.598c-0.035-0.007-0.017-0.592,0.015-0.864
						c0.055,0.276,0.06-0.205,0.089-0.173l-0.033-0.131c0.011-0.354,0.039-0.308,0.077-0.42c0.003,0.276-0.035,0.19-0.021,0.312
						c0.042-0.624,0.096,0.646,0.156,0.226c0.028,0.24,0.003,0.667,0.027,0.83c0.067-0.461,0.072,0.486,0.143,0.105
						c-0.021-0.477-0.024-0.36,0.025-0.825l-0.115,0.336l0.074-0.694c-0.035-0.007-0.074,0.301-0.094,0.219
						c0.035-0.389,0.031-0.271,0.015-0.666c0.048,0.716,0.094-0.417,0.149,0.066l-0.001,1.182c0.083,0.526,0.146-0.606,0.254-0.31
						l-0.035-0.205c0.015-0.47,0.066-0.065,0.101-0.256c-0.003,0.395,0.019,0.538,0.034,0.784c-0.002-0.293,0.078,0.026,0.088-0.762
						l0.048,0.52c0.086,0.213,0.099-1.125,0.182-0.99c-0.025,0.429,0.013,0.709-0.043,1.016c0.028,0.004,0.053,0.076,0.053-0.197
						c0.016,0.247,0.077-0.532,0.103-0.157c0.012-0.173,0.016-0.587,0.047-0.554c0,0.08,0,0.195,0,0.195
						c0-0.195,0.049-0.266,0.021-0.703c0.085,1.232,0.239-0.089,0.314,0.969c0.061-0.133,0.134-0.26,0.189-0.288
						c-0.003,0.118,0,0.196-0.011,0.155c0.076,0.367,0.047-1.133,0.133-0.724c0.044,0.639-0.046,0.346-0.019,0.587
						c0.012,1.3,0.104-0.177,0.163,0.581l-0.014,0.077c0.045,0.441,0.109-0.492,0.182-0.399c0,0,0,0.114,0,0.196
						c0.05-0.663,0.144-0.882,0.214-1.066c-0.022,0.509-0.032,0.27-0.019,0.786c0.031-0.073-0.009-0.83,0.053-0.975
						c0.021,0.278,0.065,0.521,0.071,1.073l-0.059,0.029c0.03,0.714,0.076-0.024,0.107,0.1l-0.004,0.312
						c0.09-0.101,0.091-0.887,0.189-0.83l-0.01-0.236c0.053-0.778,0.044,0.438,0.098-0.141l0.016,0.789
						c0.035-0.19,0.123-0.763,0.186-0.911c-0.036,0.585-0.109,0.885-0.155,1.232c0.035,0.006,0.118-0.059,0.136-0.448
						c-0.014,0.076-0.032,0.27-0.045,0.148c0.042-0.621,0.099-0.926,0.168-0.912c-0.012,1.53,0.18,0.386,0.23,1.574
						c0.123-0.566,0.243,0.241,0.386,0.15c-0.05-1.19,0.042-0.033,0.033-1.257c0.033-0.077,0.046-0.058,0.049,0.021l0.101,0.73
						c0.024,0.356-0.032,0.27-0.028,0.544c0.073,0.094,0.03,0.519,0.079,0.844c-0.01-0.438,0.025-0.627,0.066-0.46l-0.058-0.563
						c0.102-0.651,0.088,1.026,0.19,0.382l-0.033,0.385c0.053-0.228,0.194,0.008,0.246-0.975c0.01,0.141,0.022,0.476-0.001,0.563
						c0.126,0.147,0.28-1.045,0.378-0.44l-0.01,0.299c0.023-0.086,0.041-0.562,0.07-0.261c-0.001,0.124-0.01,0.299,0.001,0.316
						c0.012-0.104,0.062-0.524,0.093-0.35l-0.026,0.336c0.123,0.392,0.188-0.819,0.291-1.024c0,0.881,0.096,1.167,0.144,1.31
						l-0.001,0.124c0.143,0.109,0.243-0.729,0.375-1.075c0.083,0.956,0.278,0.4,0.41,0.937c-0.02-0.16,0.003-0.687,0.027-0.774
						c0.031,0.179,0.085-0.611,0.081,0.196l-0.011-0.016c0.023,0.792,0.087,0.582,0.136,0.604l0.008-1.057
						c0.13,1.536,0.34-0.564,0.412,0.812c0.031-0.264,0.07-0.261,0.101-0.524l-0.001,0.566c0.087,0.145,0.13,0.216,0.237,0.08
						l-0.021,0.405c0.061,0.036,0.076-1.633,0.132-1.666l0.017,0.845c0.105-0.013,0.213,0.729,0.317-0.037
						c-0.001,0.123-0.004,0.368-0.022,0.402c0.05,0.021,0.193,0.572,0.175-0.588c0.001,0.755,0.109,0.073,0.166-0.26l-0.009,0.558
						c0.048-0.712,0.049-0.907,0.117-1.104c0.016,0.073,0.014,0.446-0.007,0.304c0.053,0.292,0.042-0.527,0.106-0.23l-0.024,0.355
						c0.055,0.043,0.05-0.147,0.081-0.562c0.034-0.224,0.104,0.141,0.111,0.645c0.008-0.308,0.038-0.719,0.07-0.573
						c0.004,0.19-0.007,0.309-0.013,0.366c0.091,0.38,0.136-0.647,0.199-0.101c0.001,0.185,0.005,0.277,0.01,0.333
						c-0.072-0.014-0.131-0.044-0.125-0.085c0,0.514,0.059,0.604,0.012,1.313c0.047-0.387,0.127-1.229,0.185-0.987
						c0.002,0.05,0.004,0.099,0.008,0.178l-0.006,0.058c0.013,0.052,0.025,0.004,0.036-0.083c0.019,0.085,0.03,0.147,0.047,0.154
						c0.007,0.426,0.067,0.229,0.097,0.251c-0.002-0.562,0.036-0.473,0-0.937c0.005,0.04-0.005,0.067-0.025,0.091
						c-0.004,0.017-0.01,0.024-0.013,0.058l0.002-0.049c-0.019,0.016-0.044,0.028-0.072,0.037c0.023-0.285,0.047-0.525,0.08-0.214
						c0.016-0.361,0.033-0.732,0.041-0.907c0.04,0.784,0.117,1.208,0.128,1.691c0.089-0.315,0.21-0.208,0.267-1.264
						c0.025-0.136,0.029,0.303,0.039,0.469c-0.015,0.105-0.032,0.09-0.04,0.241c0.051-0.271,0.15-0.105,0.163-0.843
						c0.064,0.333-0.036,0.679,0.052,0.559l-0.012,0.226c0.173,1.179,0.281-1.884,0.473-0.37c-0.014-0.093-0.02-0.136-0.023-0.259
						c0.219,0.667,0.451-0.627,0.667,0.432c0.061,0.214,0.068-0.258,0.105-0.616l0.014,0.604l0.064-0.697
						c0.09-0.51,0.157,1.482,0.272,0.518l-0.015-0.407c0.042,0.077,0.131-0.239,0.124,0.229c0.004-0.074,0.013-0.423,0.029-0.211
						l0.001,0.315l0.102-0.541c0.078,0.229-0.013,1.254,0.102,1.315c0.042-0.121,0.122-0.92,0.105-1.131
						c-0.017-0.016-0.044-0.197-0.045-0.514l0.039-0.165c0.007-0.931,0.037-1.885-0.059-2.535l-0.066,0.569l-0.021-0.451
						l0.056-0.028c-0.032-0.426-0.052-0.05-0.074,0.209c-0.005-0.24-0.015-0.408-0.028-0.498l-0.065,0.89
						c-0.008-0.364,0.03-0.723-0.014-0.924c-0.031,0.413,0.029,0.816-0.021,1.088c-0.032-0.423-0.022-0.768-0.06-0.406
						c-0.005-0.24,0.002-0.393,0.018-0.498c-0.033,0.287-0.088,0.121-0.105,0.616c-0.033-0.522-0.112,0.136-0.109-0.745
						c-0.01,0.211-0.059,0.691-0.089,0.729c0.056-1.056-0.114-0.062-0.1-1.193c-0.042,0.948-0.149,0.421-0.223,0.947
						c0.004-0.075,0.012-0.228,0.019-0.18c-0.042-0.078-0.053-0.364-0.08-0.544c-0.005,0.784-0.07,0.963-0.104,1.446
						c-0.05-0.756,0.031-0.92,0.015-1.646c0.002,0.636-0.088,0.634-0.071,1.163c-0.039-0.468-0.033-0.227-0.053-0.876
						c-0.007,0.979-0.036,0.165-0.068,0.768c-0.056-0.483-0.014-0.918-0.076-0.62C29.144,53.691,29.198,53.344,29.198,53.344z
						 M27.736,55.038c0-0.005,0-0.009,0-0.011c0.012-0.013,0.023-0.024,0.03-0.032C27.76,55.004,27.752,55.016,27.736,55.038z
						 M27.613,55.047c0.015,0.022,0.034,0.026,0.053,0.022c0.004,0.194,0,0.394-0.013,0.384
						C27.661,55.323,27.632,55.211,27.613,55.047z M27.873,58.943c-0.02,0.079-0.026-0.031-0.028-0.146
						c0.009-0.01,0.02-0.028,0.034-0.067c0.001-0.021,0.001-0.045,0.002-0.068C27.878,58.768,27.875,58.869,27.873,58.943z"/>
					<path fill="#373737" d="M27.908,58.206c0.003-0.013,0.004-0.036,0.008-0.041c-0.004-0.049-0.008-0.092-0.011-0.127
						l-0.007,0.177L27.908,58.206z"/>
					<path fill="#373737" d="M16.77,57.373l0.003,0.013c-0.001-0.023-0.003-0.045-0.005-0.08
						C16.768,57.333,16.769,57.35,16.77,57.373z"/>
					<polygon fill="#373737" points="25.917,53.972 25.917,54.113 25.928,53.989 					"/>
					<path fill="#373737" d="M16.093,55.443c-0.003-0.049-0.006-0.1-0.009-0.145C16.086,55.336,16.089,55.387,16.093,55.443z"/>
					<path fill="#373737" d="M15.801,55.317l-0.042-0.2C15.777,55.23,15.79,55.285,15.801,55.317z"/>
					<path fill="#373737" d="M15.576,55.038c-0.001,0.099-0.003,0.173-0.004,0.241l0,0.004L15.576,55.038z"/>
					<path fill="#373737" d="M19.149,54.378c0.003-0.003,0.006-0.011,0.009-0.025C19.179,54.243,19.165,54.286,19.149,54.378z"/>
					<path fill="#373737" d="M18.086,55.691c0.013-0.102,0.026-0.2,0.034-0.266C18.101,55.383,18.086,55.371,18.086,55.691z"/>
					<polygon fill="#373737" points="20.337,53.701 20.337,53.711 20.344,53.711 					"/>
					<path fill="#373737" d="M18.17,55.436c-0.019-0.112-0.035-0.088-0.05-0.01C18.136,55.463,18.154,55.521,18.17,55.436z"/>
					<path fill="#373737" d="M14.602,54.783l-0.011-0.023c0,0.037-0.001,0.067-0.001,0.091L14.602,54.783z"/>
					<path fill="#373737" d="M14.59,54.851l-0.012,0.066C14.583,54.917,14.588,54.912,14.59,54.851z"/>
					<path fill="#373737" d="M14.552,55.059l0.025-0.142C14.569,54.915,14.558,54.897,14.552,55.059z"/>
					<path fill="#373737" d="M14.899,55.043l0.003-0.204C14.902,54.882,14.901,54.947,14.899,55.043z"/>
					<path fill="#373737" d="M14.99,54.984c-0.021-0.047-0.054-0.436-0.084-0.308l-0.002,0.162
						C14.917,54.536,14.969,55.328,14.99,54.984z"/>
					<path fill="#373737" d="M15.367,57.504l-0.076-0.163c0.013,0.218,0.03,0.51-0.004,0.562
						C15.383,58.551,15.268,57.417,15.367,57.504z"/>
					<path fill="#373737" d="M15.602,57.819c-0.041,0.101,0,0.315-0.002,0.438C15.626,58.06,15.632,58.009,15.602,57.819z"/>
					<path fill="#373737" d="M17.3,57.821l-0.004,0.512C17.327,58.26,17.296,58.135,17.3,57.821z"/>
					<polygon fill="#373737" points="17.625,55.177 17.594,54.859 17.579,55.328 					"/>
					<polygon fill="#373737" points="17.816,58.821 17.802,58.895 17.854,58.709 					"/>
					<path fill="#373737" d="M20.667,58.64l-0.01-0.631C20.637,58.122,20.632,58.83,20.667,58.64z"/>
					<path fill="#373737" d="M21.898,57.998c0.013,0.314,0.048,0.518,0.069,0.208C21.94,58.162,21.913,57.917,21.898,57.998z"/>
					<polygon fill="#373737" points="25.59,59.024 25.565,59.235 25.612,59.06 					"/>
				</g>
			</g>
		</g>
	</g>
</g>
</svg>
