<?xml version="1.0" encoding="utf-8"?>
<!-- Generator: Adobe Illustrator 16.0.0, SVG Export Plug-In . SVG Version: 6.00 Build 0)  -->
<!DOCTYPE svg PUBLIC "-//W3C//DTD SVG 1.1//EN" "http://www.w3.org/Graphics/SVG/1.1/DTD/svg11.dtd">
<svg version="1.1" id="Layer_1" xmlns="http://www.w3.org/2000/svg" xmlns:xlink="http://www.w3.org/1999/xlink" x="0px" y="0px"
	 width="85.223px" height="85.207px" viewBox="0 0 85.223 85.207" enable-background="new 0 0 85.223 85.207" xml:space="preserve">
<path id="Dribbble_1_" fill="#333333" d="M42.611,5.934C22.357,5.936,5.942,22.353,5.942,42.605
	c0,20.25,16.416,36.668,36.669,36.668s36.67-16.418,36.673-36.668C79.281,22.353,62.864,5.936,42.611,5.934z M65.08,24.947
	c3.575,4.542,5.816,10.168,6.101,16.312c-4.141-0.877-8.051-1.305-11.698-1.305v-0.003h-0.026c-2.935,0-5.69,0.268-8.287,0.729
	c-0.632-1.547-1.271-3.031-1.915-4.454C55.036,33.688,60.586,30.076,65.08,24.947z M42.611,13.997
	c6.751,0,12.938,2.357,17.841,6.286c-3.75,4.491-8.701,7.741-14.051,10.039c-3.757-7.268-7.389-12.465-9.87-15.643
	C38.496,14.243,40.524,13.997,42.611,13.997z M29.975,16.978c1.984,2.346,5.961,7.505,10.208,15.561
	c-8.636,2.571-17.333,3.174-22.593,3.172c-0.151,0-0.3,0-0.446-0.001h-0.006c-0.885,0-1.646-0.014-2.284-0.033
	C16.908,27.461,22.535,20.658,29.975,16.978z M14.002,42.605c0-0.133,0.004-0.271,0.012-0.412c0.816,0.029,1.863,0.056,3.124,0.056
	h0.008c5.751-0.038,15.793-0.519,25.967-3.73c0.558,1.212,1.104,2.476,1.646,3.787c-6.794,2.273-12.146,5.892-16.104,9.5
	c-3.811,3.471-6.386,6.907-7.889,9.204C16.556,56.025,14.004,49.619,14.002,42.605z M42.611,71.217
	c-6.365,0-12.234-2.107-16.995-5.641c1.014-1.666,3.182-4.863,6.636-8.172c3.555-3.402,8.461-6.912,14.867-8.998
	c2.178,6.104,4.146,13.082,5.647,20.936C49.606,70.547,46.188,71.217,42.611,71.217z M58.804,66.137
	c-1.453-7.104-3.277-13.508-5.281-19.225c1.858-0.266,3.81-0.418,5.867-0.418h0.073h0.007h0.003c3.413,0,7.162,0.424,11.23,1.35
	C69.296,55.408,64.913,61.924,58.804,66.137z"/>
</svg>
