<?xml version="1.0" encoding="utf-8"?>
<!-- Generator: Adobe Illustrator 16.0.0, SVG Export Plug-In . SVG Version: 6.00 Build 0)  -->
<!DOCTYPE svg PUBLIC "-//W3C//DTD SVG 1.1//EN" "http://www.w3.org/Graphics/SVG/1.1/DTD/svg11.dtd">
<svg version="1.1" id="Layer_1" xmlns="http://www.w3.org/2000/svg" xmlns:xlink="http://www.w3.org/1999/xlink" x="0px" y="0px"
	 width="73.343px" height="73.339px" viewBox="0 0 73.343 73.339" enable-background="new 0 0 73.343 73.339" xml:space="preserve">
<path id="Dribbble_1_" fill="#C1272D" d="M36.669,0C16.415,0.002,0,16.419,0,36.67c0,20.251,16.416,36.669,36.669,36.669
	s36.67-16.418,36.674-36.669C73.339,16.419,56.922,0.002,36.669,0z M59.139,19.013c3.574,4.542,5.815,10.168,6.101,16.312
	c-4.141-0.877-8.051-1.305-11.698-1.305v-0.003h-0.025c-2.936,0-5.69,0.268-8.287,0.729c-0.632-1.548-1.271-3.031-1.915-4.455
	C49.095,27.754,54.645,24.142,59.139,19.013z M36.669,8.063c6.751,0,12.938,2.357,17.842,6.286
	c-3.75,4.491-8.701,7.741-14.052,10.039c-3.757-7.268-7.389-12.465-9.87-15.643C32.555,8.309,34.582,8.063,36.669,8.063z
	 M24.033,11.044c1.984,2.346,5.961,7.505,10.208,15.561c-8.636,2.571-17.333,3.174-22.593,3.172c-0.151,0-0.3,0-0.446-0.001h-0.006
	c-0.885,0-1.646-0.014-2.284-0.033C10.967,21.527,16.594,14.724,24.033,11.044z M8.061,36.67c0-0.133,0.004-0.271,0.012-0.412
	c0.816,0.029,1.863,0.057,3.124,0.057h0.008c5.751-0.038,15.793-0.52,25.967-3.73c0.559,1.213,1.104,2.477,1.646,3.787
	c-6.794,2.273-12.146,5.893-16.104,9.501c-3.811,3.471-6.386,6.906-7.889,9.203C10.614,50.091,8.062,43.685,8.061,36.67z
	 M36.669,65.283c-6.364,0-12.233-2.107-16.994-5.641c1.014-1.666,3.182-4.863,6.636-8.172c3.555-3.402,8.461-6.912,14.867-8.998
	c2.178,6.104,4.146,13.082,5.646,20.936C43.664,64.613,40.246,65.283,36.669,65.283z M52.862,60.203
	c-1.453-7.104-3.277-13.508-5.281-19.225c1.858-0.266,3.811-0.418,5.867-0.418h0.073h0.007h0.003c3.413,0,7.162,0.424,11.23,1.35
	C63.354,49.474,58.972,55.99,52.862,60.203z"/>
</svg>
