<?xml version="1.0" encoding="utf-8"?>
<!-- Generator: Adobe Illustrator 16.0.0, SVG Export Plug-In . SVG Version: 6.00 Build 0)  -->
<!DOCTYPE svg PUBLIC "-//W3C//DTD SVG 1.1//EN" "http://www.w3.org/Graphics/SVG/1.1/DTD/svg11.dtd">
<svg version="1.1" id="Layer_1" xmlns="http://www.w3.org/2000/svg" xmlns:xlink="http://www.w3.org/1999/xlink" x="0px" y="0px"
	 width="110.001px" height="84.967px" viewBox="0 0 110.001 84.967" enable-background="new 0 0 110.001 84.967"
	 xml:space="preserve">
<path id="Github__x28_alt_x29__1_" fill="#C1272D" d="M80.312,0.631c1.429,3.25,2.354,8.642,0.974,12.59
	c5.651,4.828,7.596,16.562,4.866,26.149c8.058,0.616,17.654-0.295,23.849,2.178c-5.791-0.744-13.7-2.205-21.17-1.697
	c-1.415,0.098-3.511-0.053-3.408,1.939c8.646,0.678,17.237,1.416,24.337,3.633c-7.039-1.15-15.588-2.9-24.337-3.146
	c-3.614,7.133-10.888,10.639-20.929,11.373c1.08,2.352,3.146,3.244,3.652,7.021c0.752,5.645-1.181,13.912,0.726,17.672
	c0.915,1.803,2.405,1.852,3.41,3.393c-2.459,2.91-8.558-0.326-9.251-3.393c-1.188-5.25,1.812-13.387-1.458-16.945
	c0.231,5.729-1.354,13.771,0.243,18.883c0.629,2.014,2.445,2.787,1.947,4.604c-11.431,1.16-6.654-14.793-8.521-24.211
	c-1.725,0.123-0.967,2.584-0.973,3.633C54.221,73.5,56.15,86.116,46.24,84.883c-0.291-1.934,1.328-2.59,1.945-4.355
	c1.81-5.176-0.34-12.885,0.49-19.131c-3.783,2.854,0.396,12.812-1.947,17.914c-1.351,2.939-5.703,4.217-9.004,2.906
	c0.43-2.189,2.689-1.836,3.646-3.875c1.34-2.84,0.01-6.936,0.49-11.135c-7.005,1.396-12.436-0.201-15.092-4.602
	c-1.189-1.977-1.485-4.303-2.922-6.051c-1.43-1.752-3.714-1.984-4.378-4.355c8.673-2.088,9.005,8.926,16.793,9.197
	c2.388,0.088,3.629-0.689,5.839-1.209c0.619-2.775,1.943-4.848,3.895-6.299c-9.689-1.326-17.694-4.344-21.416-11.615
	c-8.811,0.436-16.872,1.609-24.339,3.387c6.777-2.462,15.137-3.344,24.096-3.633c-0.527-3.174-5.156-2.301-8.03-2.18
	c-5.34,0.236-12.062,0.9-16.307,1.697c6.154-2.192,14.786-1.918,23.122-1.936c-2.549-7.995-1.666-20.691,3.893-25.421
	c-1.576-3.968-1.086-10.463,0.974-13.558c6.207,0.28,9.971,2.987,13.872,5.571c4.836-1.376,9.92-2.059,16.548-1.696
	c2.788,0.155,5.687,1.407,7.784,1.209c2.06-0.192,4.33-2.505,6.328-3.386C75.128,1.178,77.332,0.738,80.312,0.631z"/>
</svg>
