<?xml version="1.0" encoding="utf-8"?>
<!-- Generator: Adobe Illustrator 16.0.0, SVG Export Plug-In . SVG Version: 6.00 Build 0)  -->
<!DOCTYPE svg PUBLIC "-//W3C//DTD SVG 1.1//EN" "http://www.w3.org/Graphics/SVG/1.1/DTD/svg11.dtd">
<svg version="1.1" id="Layer_1" xmlns="http://www.w3.org/2000/svg" xmlns:xlink="http://www.w3.org/1999/xlink" x="0px" y="0px"
	 width="110px" height="84.334px" viewBox="0 0 110 84.334" enable-background="new 0 0 110 84.334" xml:space="preserve">
<path id="Github__x28_alt_x29__1_" fill="#333333" d="M80.312,0c1.429,3.25,2.354,8.642,0.974,12.59
	c5.651,4.828,7.596,16.562,4.866,26.149c8.058,0.616,17.654-0.295,23.849,2.177c-5.791-0.743-13.7-2.204-21.17-1.696
	c-1.415,0.097-3.511-0.053-3.408,1.938c8.646,0.678,17.237,1.417,24.337,3.633c-7.039-1.149-15.588-2.9-24.337-3.146
	c-3.614,7.133-10.888,10.638-20.929,11.374c1.08,2.351,3.146,3.244,3.652,7.021c0.752,5.645-1.18,13.911,0.726,17.672
	c0.915,1.803,2.405,1.852,3.41,3.393c-2.459,2.91-8.558-0.326-9.251-3.393c-1.188-5.25,1.812-13.387-1.458-16.945
	c0.231,5.727-1.354,13.77,0.243,18.883c0.629,2.012,2.445,2.787,1.947,4.602c-11.43,1.161-6.654-14.792-8.521-24.21
	c-1.724,0.123-0.967,2.583-0.972,3.633c-0.05,9.195,1.88,21.81-8.03,20.577c-0.291-1.932,1.329-2.59,1.945-4.354
	c1.81-5.176-0.339-12.885,0.491-19.131c-3.783,2.853,0.396,12.811-1.947,17.914c-1.351,2.938-5.703,4.217-9.004,2.906
	c0.43-2.189,2.689-1.836,3.646-3.875c1.34-2.841,0.01-6.936,0.49-11.135c-7.005,1.396-12.436-0.202-15.092-4.602
	c-1.189-1.976-1.485-4.303-2.922-6.051c-1.43-1.751-3.714-1.984-4.378-4.355c8.673-2.088,9.005,8.925,16.793,9.197
	c2.388,0.088,3.629-0.689,5.839-1.209c0.619-2.775,1.943-4.848,3.895-6.298c-9.689-1.327-17.694-4.345-21.416-11.616
	c-8.811,0.435-16.872,1.609-24.339,3.387c6.777-2.462,15.137-3.344,24.096-3.633c-0.527-3.174-5.156-2.301-8.03-2.179
	c-5.34,0.236-12.062,0.9-16.307,1.697c6.154-2.193,14.786-1.918,23.122-1.936c-2.549-7.995-1.666-20.691,3.893-25.421
	C25.439,9.59,25.929,3.095,27.989,0c6.207,0.28,9.971,2.987,13.872,5.571c4.836-1.376,9.92-2.059,16.548-1.696
	c2.788,0.155,5.687,1.407,7.784,1.209c2.06-0.192,4.33-2.505,6.328-3.386C75.128,0.547,77.332,0.107,80.312,0z"/>
</svg>
