<?xml version="1.0" encoding="utf-8"?>
<!-- Generator: Adobe Illustrator 16.0.0, SVG Export Plug-In . SVG Version: 6.00 Build 0)  -->
<!DOCTYPE svg PUBLIC "-//W3C//DTD SVG 1.1//EN" "http://www.w3.org/Graphics/SVG/1.1/DTD/svg11.dtd">
<svg version="1.1" id="Layer_1" xmlns="http://www.w3.org/2000/svg" xmlns:xlink="http://www.w3.org/1999/xlink" x="0px" y="0px"
	 width="120.387px" height="116.932px" viewBox="0 0 120.387 116.932" enable-background="new 0 0 120.387 116.932"
	 xml:space="preserve">
<g>
	<g>
		<path fill="#FFFFFF" d="M2.111,0C40.841,0,79.568,0,118.3,0c0,38.977,0,77.956,0,116.932c-38.766,0-77.528,0-116.296,0
			c0-38.872,0-77.741,0-116.613C1.996,0.168,1.987,0.017,2.111,0z M46.465,5.941c-10.519,2.942-19.152,8.567-25.361,15.385
			C12.862,30.379,5.838,43.296,6.78,61.012c0.885,16.626,7.795,28.305,17.189,37.031c8.925,8.292,22.162,15.26,39.578,14.432
			c16.715-0.795,28.404-7.843,37.14-17.084c4.335-4.586,7.843-10.101,10.504-16.552c2.672-6.474,4.463-14.098,4.032-23.133
			c-0.783-16.427-8.232-28.629-17.189-37.031C89.12,10.315,75.844,3.305,58.348,4.138C54.453,4.323,50.059,4.936,46.465,5.941z"/>
		<path fill="#333333" d="M54.635,30.665c-0.264,1.258-0.687,2.355-1.379,3.184c-0.516-0.298-0.988-0.64-0.851-1.592
			C53.326,31.902,53.06,30.365,54.635,30.665z"/>
		<path fill="#333333" d="M56.12,43.398c-0.512,0.213,0.388,0.328,0.107,0.955c-0.514,0.089-0.336-0.511-0.956-0.318
			c0.11-0.742,0.228-0.795,0-1.485c-0.403,0.126-1.118,0.389-1.591,0.105c-0.131-0.343,0.343-0.082,0.212-0.424
			c-0.245,0.106-0.493,0.212-0.53,0.53c-0.095,0.341,0.274,0.22,0.318,0.424c0.037,0.463-0.193,0.657-0.425,0.85
			c-0.543-0.235-0.708-0.849-0.85-1.485c0.065-0.184,0.505,0.007,0.53-0.213c0.109-0.356-0.328-0.165-0.53-0.213
			c-0.077-0.325,0.292-0.203,0.212-0.53c0.02-0.229-0.376-0.048-0.529-0.105c-0.047-0.696-0.514-0.974-0.318-1.909
			c0.262,0.014,0.512,0.016,0.636-0.106c0-0.603,0-1.203,0-1.805c0.388-0.072,0.48-0.439,0.743-0.636
			c0.668-0.065,0.668,0.534,1.486,0.318c0,0.741,0,1.484,0,2.229c-0.314,0.144-0.543,0.377-0.956,0.423c0,0.212,0,0.425,0,0.637
			c0.038,0.281,0.542,0.097,0.638,0.32c0.059,0.41-0.616,0.09-0.638,0.424c-0.071,0.667,0.965,0.452,1.062,0.105
			c0.283,0.248,0.73,0.331,1.168,0.425c-0.141,0.775,0.352,0.921,0.424,1.485c0.389,0,0.778,0,1.168,0
			c-0.019,0.232,0.086,0.339,0.317,0.317c0,0.425,0,0.85,0,1.273c-0.177,0-0.354,0-0.53,0c-0.079,0.433,0.342,0.365,0.213,0.849
			c-0.126,0.122-0.375,0.12-0.638,0.106c0.048-0.649-0.692-1.153-0.106-1.698C56.716,43.793,56.191,43.821,56.12,43.398z"/>
		<path fill="#333333" d="M55.909,46.157c0.334,0.051,0.24-0.327,0.637-0.213c0.059,0.26,0.41,0.227,0.317,0.638
			c-1.151-0.269-1.297,0.471-2.015,0.636c-0.267-0.158-0.581-0.268-0.531-0.743c0.03-0.393,0.562-0.288,0.531-0.742
			c-0.183-0.241-0.809-0.038-1.168-0.105c0.05-0.482,0.502-0.561,0.317-1.273c1.289-0.333,1.106,0.803,1.698,1.166
			c0.335,0.052,0.08-0.486,0.318-0.53C56.545,45.14,56.212,45.955,55.909,46.157z"/>
		<path fill="#333333" d="M57.5,46.264c0.329-0.013,0.303,0.333,0.742,0.211c-0.1,0.562,0.324,0.597,0.531,0.851
			c0.017,0.618-0.134,1.405,0.318,1.591c-0.355,0.354-0.26,1.155-0.956,1.166c-0.059-0.154,0.124-0.548-0.104-0.53
			c-0.464,0.104-0.096,1.037-0.214,1.486c-0.954-0.037-1.396-0.584-1.909-1.061c-0.084-0.367,0.118-0.448,0.211-0.637
			c-0.047-0.308-0.224-0.484-0.53-0.531c-0.306,0.179-0.728,0.544-1.061,0.106c-0.333-0.052-0.079,0.487-0.317,0.53
			c-0.859-0.886,0.836-1.71,1.697-1.91c0,0.178,0,0.354,0,0.531c0.396-0.028,0.594-0.256,0.954-0.319c0-0.176,0-0.353,0-0.53
			c0.263,0.015,0.512,0.016,0.638-0.105C57.5,46.829,57.5,46.545,57.5,46.264z"/>
		<path fill="#333333" d="M16.86,47.536c0.814,0.408,1.777,4.194-0.424,3.82C16.261,49.765,16.75,48.84,16.86,47.536z"/>
		<path fill="#333333" d="M48.905,49.128c-0.161,0.835,0.362,0.982,0.426,1.591c0.902-0.16,1.085,0.401,1.483,0.743
			c-0.062,0.541-0.815,0.387-0.636,1.168c-0.281,0-0.566,0-0.848,0c-0.201,0.259-0.005,0.916-0.318,1.061
			c0.223,0.483,0.742,0.674,0.529,1.592c0.355,0.353,1.15,0.264,0.955,1.166c-0.439,0.093-1.304-0.243-1.273,0.319
			c0.233,0.509,1.176,0.308,0.955,1.274c-0.606,0.039-0.475-0.657-1.061-0.637c-0.353,0.036-0.166,0.61-0.213,0.955
			c-0.617-0.159-0.581,0.34-0.955,0.424c0.207,1.339-0.533,1.73-0.316,3.077c-0.674-0.542-1.102-0.12-1.912,0
			c-0.107-1.495-2.008-1.152-2.864-0.637c0.014-0.261,0.018-0.511-0.106-0.637c-0.494,0-0.99,0-1.486,0
			c0.026-0.698-0.529-0.812-0.316-1.698c-0.013-0.272-0.357-0.211-0.637-0.213c-0.117-1.05-0.794-1.541-0.638-2.864
			c0.387-0.071,0.479-0.439,0.741-0.637c0.67-0.139,0.537,0.526,1.273,0.319c0.425-0.71,1.41-0.855,1.805-1.592
			c1.42-0.339,1.318-2.179,3.077-2.229c0.123-0.125,0.12-0.375,0.105-0.637c0.178,0,0.356,0,0.532,0
			c-0.024-0.803,0.83-0.727,0.742-1.592C48.569,49.64,48.391,49.039,48.905,49.128z"/>
		<path fill="#333333" d="M27.259,51.356c0.141,0,0.282,0,0.423,0c0.267,0.333,0.835,0.368,1.486,0.318
			c0.669,0.604,0.702,1.843,1.911,1.909c0.174,1.274,1.421,1.479,2.439,1.911c0.23,0.794,1.149,0.902,1.38,1.697
			c0.146,0.572-0.404,0.445-0.318,0.954c1.077,0.126,0.817,1.59,1.803,1.805c0.112-0.396-0.264-0.302-0.211-0.637
			c0.3-0.123,0.403-0.445,0.955-0.318c-0.342,1.166,0.991,1.065,0.637,1.909c-0.328,0.08-0.205-0.29-0.531-0.212
			c-0.896,0.967,0.204,2.059-0.425,3.077c-0.459-0.176-0.82-0.453-1.591-0.317c-0.3-1.045-1.856-0.834-1.91-2.123
			c-0.126-0.123-0.375-0.119-0.637-0.105c-0.034-0.637-0.332-1.012-0.637-1.379c0.05-0.792-0.313-1.172-0.636-1.592
			c-0.054-2.282-2.129-2.54-2.546-4.457C28.035,53.27,27.306,52.655,27.259,51.356z"/>
		<path fill="#FFFFFF" d="M52.831,56.768c0.779,0,1.557,0,2.335,0c-0.147,0.56-0.323,1.093-0.849,1.274
			C54.043,57.395,53.344,57.174,52.831,56.768z"/>
		<path fill="#FFFFFF" d="M53.68,57.829c-0.256,0.372-1.49,0.241-1.91,0.105c0-0.141,0-0.283,0-0.423
			C52.229,57.4,53.678,57.136,53.68,57.829z"/>
		<path fill="#333333" d="M62.594,58.042c0.105,0,0.211,0,0.317,0c-0.239,0.981,0.536,0.948,0.636,1.591c-0.318,0-0.636,0-0.953,0
			C62.689,58.981,62.341,58.537,62.594,58.042z"/>
		<path fill="#333333" d="M66.094,59.738c-0.23-0.011-0.855,0.386-1.592,0.213c-0.152-0.47,0.359-0.278,0.318-0.637
			c-0.26-0.659-1.84,0.001-1.592-1.168c0.867,0.012,2.316-0.174,3.82-0.104c0.409,0.226,0.13,1.143,0.639,1.272
			c0.078,0.327-0.293,0.204-0.213,0.531c-0.02,0.231,0.375,0.048,0.529,0.105c0,0.249,0,0.494,0,0.742
			c0.016,0.305,0.443,0.194,0.743,0.212c0.694-0.896,1.823-1.358,2.546-2.229c0.9,0.586,1.568,1.403,3.183,1.274
			c0.876,0.47,1.693,0.995,3.079,0.954c0.506,0.768,1.447,1.101,2.229,1.593c0,0.282,0,0.566,0,0.849
			c0.828,0.268,1.931,0.26,1.908,1.379c-0.281,0.001-0.625-0.061-0.635,0.213c-0.091,0.513,0.511,0.336,0.317,0.955
			c0.126,0.122,0.374,0.12,0.638,0.105c-0.188,0.683,0.485,0.505,0.316,1.166c0.93,0.381,1.703,0.915,1.911,2.018
			c-0.673,0.107-0.835-0.296-1.062-0.637c-0.602,0-1.202,0-1.804,0c-0.392-0.74-1.078-1.186-1.274-2.121
			c-0.839-0.278-1.719-0.897-2.545-0.32c0.165,0.664-0.506,0.486-0.317,1.169c-0.728,0.228-1.478,0.432-2.55,0.317
			c-0.653-1.338-1.828-1.265-3.5-0.955c-0.165-0.942,0.273-1.281,0.955-1.38c-0.246-2.087-1.818-2.851-3.926-3.076
			c-0.708-0.597-1.463-0.731-2.441-0.318c0.107-0.851-0.211-1.273-0.955-1.272C64.988,60.047,66.01,60.362,66.094,59.738z"/>
		<path fill="#333333" d="M61.639,59.314c0,0.43-0.586,0.824-0.957,0.531C60.901,59.566,61.237,59.41,61.639,59.314z"/>
		<path fill="#333333" d="M63.547,61.542c-0.689-0.565-1.336-0.279-2.016-0.53c-0.526,0.038-0.393,0.738-1.166,0.53
			c-0.014-0.385,0.443-0.506,0-0.742C60.946,59.689,63.961,60.339,63.547,61.542z"/>
		<path fill="#333333" d="M59.727,61.012c-0.074,0.525-0.62,0.582-1.272,0.53C58.217,60.546,59.458,60.316,59.727,61.012z"/>
		<path fill="#333333" d="M41.48,64.938c0.228,0.018,0.047-0.377,0.104-0.531c0.98-0.025,1.552,0.358,2.229,0.637
			c0.32-0.315,0.893-0.38,1.591-0.318c0.058,0.695-0.745,0.529-1.167,0.742c0.103,0.463,1.036,0.097,1.484,0.215
			c0.152,0.48,0.561,0.713,1.274,0.635c0.015,0.261,0.016,0.512-0.105,0.639c-0.661,0.059-0.892-0.649-1.274,0
			c-0.512-0.55-1.881-0.244-2.865-0.32c-0.65-0.304-1.245-0.664-2.227-0.637c-0.342,0.094-0.146-0.351-0.426-0.316
			c-1.167,0.65-2.696-0.468-3.607-1.063c0.488-1.156,0.978-0.494,2.334-0.529C39.37,64.712,40.604,64.646,41.48,64.938z"/>
		<path fill="#333333" d="M59.092,65.787c0.081,0.372-0.876,0.247-0.956,0.106C58.053,65.521,59.012,65.646,59.092,65.787z"/>
		<path fill="#333333" d="M50.814,66.956c-1.245,0.401-2.388,0.157-3.5,0.317c-0.019-0.583,0.173-0.957,0.741-0.956
			C48.641,67.236,50.536,65.414,50.814,66.956z"/>
		<path fill="#333333" d="M53.68,66.636c0,0.213,0,0.425,0,0.638c-1.082,0.232-1.265-0.432-2.227-0.317
			C51.678,65.722,52.793,66.716,53.68,66.636z"/>
		<path fill="#333333" d="M57.181,66.425c0.083,0.371-0.874,0.245-0.954,0.105C56.144,66.157,57.102,66.282,57.181,66.425z"/>
		<path fill="#333333" d="M59.516,66.742c-0.867,0.62-2.204,0.769-2.653,1.804c-0.713-0.184-0.792,0.27-1.273,0.318
			c-0.309-1.725,1.62-1.211,2.017-2.229C58.553,67.023,59.348,65.825,59.516,66.742z"/>
		<path fill="#333333" d="M83.92,67.273c0.605,0.102,0.824,0.591,1.062,1.061c-0.116,0.025-0.072,0.21-0.211,0.212
			c-0.379-0.226-0.441-0.763-0.957-0.848C83.801,67.508,83.945,67.474,83.92,67.273z"/>
		<path fill="#333333" d="M50.814,67.591c0.425,0,0.85,0,1.274,0c0.019,0.513,0.705,0.354,0.638,0.955
			c-0.955,0.212-0.981-0.506-1.912-0.318C50.814,68.017,50.814,67.804,50.814,67.591z"/>
		<path fill="#333333" d="M68.959,91.784c0.352-0.038,0.461-0.318,0.637-0.531c-0.863,0.066-1.373,1.378-2.547,1.485
			c0.23-1.324-1.023-1.17-1.061-2.229c-1.044,0.054-1.713-0.268-2.336-0.636c-0.517-0.128-0.286,0.49-0.848,0.317
			c-0.564-0.649-1.693-0.019-2.228,0.318c-2.05-0.173-3.277,0.472-4.032,1.592c-0.46,0-0.921,0-1.38,0
			c-0.924-0.815-2.194,0.199-2.865,0.637c-1.366,0.094-2.521-0.024-3.077-0.743c0.535-0.972,0.289-2.371-0.637-2.759
			c-0.108-1.905-1.473-2.56-1.908-4.138c0.175,0,0.354,0,0.529,0c-0.14-0.92-0.809-1.313-1.167-2.016
			c0.679-0.419-0.009-2.011,0.425-2.44c0.446-0.163,0.016,0.549,0.316,0.532c0.65-0.695,1.425-1.267,2.23-1.806
			c0.367-0.084,0.447,0.117,0.637,0.213c0.525-0.358,1.383-0.388,1.805-0.85c1.418,0.661,2.112-1.007,2.863-1.697
			c0-0.39,0-0.778,0-1.168c0.512-0.019,0.355-0.706,0.954-0.636c-0.06,0.52,0.138,0.781,0.532,0.848
			c0.242-0.182,0.037-0.81,0.105-1.167c0.282,0,0.566,0,0.848,0c0.115-0.396-0.263-0.302-0.211-0.636
			c0.897-0.73,1.666-1.589,2.971-1.91c0.539,0.273,0.785,0.843,1.274,1.167c0.562-0.476,0.552,0.286,1.378,0.105
			c-0.426-0.688,0.059-0.858,0.106-1.59c0.263,0.012,0.512,0.015,0.637-0.107c0-0.282,0-0.565,0-0.849
			c0.661-0.398,2.054-0.068,2.441-0.744c0.05-0.51-0.647-0.27-0.532-0.848c1.648,0.458,3.277,1.5,4.775,0.956
			c0.038,0.315,0.438,0.27,0.318,0.743c-0.725,0.513-0.897,1.577-1.485,2.227c0.637,1.026,2.194,1.13,2.864,2.122
			c0.283,0,0.566,0,0.85,0c-0.182,0.817,0.674,0.601,0.955,0.954c0.388,0,0.282-0.496,0.848-0.316
			c0.464-0.987,0.961-1.941,0.742-3.607c0.307-0.65,0.666-1.247,0.639-2.23c0.219-0.277,0.426-0.562,0.317-1.166
			c0.214,0,0.425,0,0.636,0c0.181,1.128,0.729,1.892,0.639,3.29c0.197,0.616,1.183,0.443,1.591,0.849
			c-0.345,1.973,0.938,2.315,0.638,4.243c0.631,0.608,1.428,1.048,2.229,1.486c-0.219,0.889,0.479,0.864,0.316,1.698
			c0.236,0.258,0.69,0.3,0.957,0.53c0.059,1.319,0.969,1.789,1.591,2.546c-0.138,1.137-0.479,2.067-0.319,3.503
			c-0.734,0.432-1.018,1.315-1.271,2.228c-0.365,0.167-0.71,0.352-0.637,0.954c-0.779,0.073-1.203,0.495-1.275,1.274
			c-0.509,0.443-1.223,0.687-1.273,1.592c-0.381-0.03-0.287,0.42-0.637,0.423c0,0.283,0,0.566,0,0.849
			c-0.707,0.46-2.332,0.002-2.547,0.957c-0.53,0-1.06,0-1.592,0c0-0.178,0-0.354,0-0.531c-0.486-0.062-0.492,0.354-0.742,0.531
			c-1.368,0.237-1.846-0.419-3.076-0.318c0.021-0.232-0.088-0.338-0.317-0.32c0-0.354,0-0.707,0-1.06
			c-0.265-0.229-0.349-0.644-0.956-0.53c-0.137-0.527,0.258-0.522,0.213-0.956c-0.678-0.076-0.568,0.635-1.17,0.636
			C68.667,92.551,69.132,92.487,68.959,91.784z"/>
		<path fill="#333333" d="M95.063,91.466c0.106,0,0.212,0,0.318,0c0.072,0.507,0.23,1.066-0.212,1.379
			c0.103,0.285,0.233,0.545,0.317,0.848c0.496,0.109,0.354-0.425,0.848-0.316c-0.318,0.599-0.652,1.185-1.484,1.271
			c-0.215,1.094-1.235,1.384-2.017,1.91c-0.067-0.562,0.485-0.502,0.638-0.848c0.135-0.419-0.31-0.257-0.318-0.53
			C94.06,94.215,95.225,93.173,95.063,91.466z"/>
		<path fill="#333333" d="M68.959,93.481c0.083,0.372-0.875,0.247-0.955,0.105C67.922,93.217,68.879,93.341,68.959,93.481z"/>
		<path fill="#333333" d="M92.515,96.239c-0.331,1.154-1.782,1.189-2.228,2.23c-0.795-0.053-1.325,0.16-1.273,0.953
			c-1.074,0.223-1.775,1.52-2.865,0.53c0.694-0.472,1.291-1.043,2.018-1.483C90.274,98.383,90.344,96.262,92.515,96.239z"/>
		<path fill="#333333" d="M73.735,97.196c0.649-0.121,0.944,0.115,1.273,0.316c0.329-0.201,0.624-0.438,1.271-0.316
			c0.261,1.494-1.72,2.416-2.545,1.484C74.178,98.251,73.563,97.956,73.735,97.196z"/>
		<path fill="#FFFFFF" d="M74.159,7.746c0.354,0,0.708,0,1.062,0c0.059,0.294,0.365,0.343,0.424,0.638
			c0.518,0.126,0.288-0.492,0.849-0.319c-0.17,0.432-0.09,1.112-0.849,0.954c-0.157,2.08,2.68,2.137,2.229,3.821
			c0.517-0.016,0.523-0.539,0.954-0.638c-0.281-1.201,0.9-0.939,0.637-2.121c-0.388-0.673-1.688-0.435-1.803-1.38
			c0.771,0.215,0.658,0.308,1.379,0c0.396-0.112,0.343,0.223,0.531,0.317c2.127-0.042,5.495,2.076,7.32,3.079
			c10.471,5.743,18.168,14.239,22.92,25.464c3.117,7.36,4.724,15.936,4.033,26.209c-0.449,6.661-2.754,13.04-5.412,18.357
			c-5.159,10.326-13.248,18.459-23.66,23.662c-8.198,4.097-17.63,6.188-29.183,5.412c-6.606-0.443-13.126-2.798-18.355-5.412
			c-10.22-5.107-18.504-13.339-23.663-23.662c-3.464-6.932-6.093-15.365-5.624-25.466c0.431-9.281,2.555-16.244,6.047-22.813
			c0.585,0.125,0.738-0.183,1.168-0.211c0.063,0.643-0.172,1.584,0.212,1.908c-0.316,0.462-0.716,0.843-0.53,1.805
			c0.525,0.138,0.52-0.259,0.953-0.213c-0.179,0.953-0.774,1.488-0.636,2.759c0.094,0.341-0.275,0.22-0.318,0.425
			c0.161,2.987-0.353,6.647,0.318,9.125c1.123-0.396,0.988-2.054,1.91-2.652c0.051-1.894,1.319-2.571,0.955-4.881
			c0.33-0.377,1.069-0.346,1.062-1.062c0.566,0.18,0.46-0.316,0.85-0.318c0.437-1.505,1.921-1.968,2.652-3.182
			c0.748,0.146,0.63-0.573,1.167-0.637c0-0.283,0-0.566,0-0.85c0.221-0.062,0.363-0.203,0.425-0.425
			c1.456,0.149,2.194-0.421,3.077-0.85c-0.005,0.996-0.084,2.065,0.849,2.124c0.105,0.422-0.317,0.318-0.212,0.742
			c0.74,0.802,0.099,2.336,0,3.289c1.202,0.422,1.583-0.894,2.547-1.061c-0.408,1.956,0.901,3.68,0,5.092
			c0.627,0.956-0.547,2.363-0.318,3.928c0.045,0.238,0.564,0.002,0.637,0.212c0.123,0.728,0.408,1.289,0.955,1.592
			c-0.213,0.884,0.354,1.885,0,2.228c0.059,0.366,0.387,0.464,0.637,0.638c-0.011,1.886,2.073,1.676,2.547,3.075
			c0.288-0.064,0.841,0.135,0.955-0.104c0.039-0.356-0.459-0.177-0.636-0.319c0.122-1.006-0.26-1.508-0.637-2.016
			c0-0.849,0-1.697,0-2.547c-0.851-0.6-1.167-1.733-2.548-1.803c0.216-1.1-0.512-1.255-0.317-2.334
			c-0.044-0.239-0.564-0.004-0.635-0.213c0.029-1.028,0.549-1.572,0.952-2.229c-0.072-0.886,0.16-1.467,0.637-1.804
			c0.491-0.066,0.27,0.579,0.318,0.955c0.835-0.163,0.983,0.361,1.592,0.424c0,0.354,0,0.707,0,1.061
			c0.298,0.162,0.839,0.082,0.637,0.744c0.331,0.021,0.779-0.073,0.956,0.105c0,0.602,0,1.203,0,1.804
			c0.689-0.618,1.755-0.862,2.015-1.909c1.251-0.343,2.174-1.012,2.76-2.018c0-1.096,0-2.193,0-3.287
			c-0.445-0.237-0.396-0.472-0.637-0.957c-0.206-0.409-1.075-0.821-1.273-1.167c-0.059-0.102,0.067-0.331,0-0.424
			c-0.357-0.49-0.9-0.697-0.637-1.91c1.191-0.613,1.688-1.921,3.395-2.015c0.516,0.262,0.225,1.332,0.955,1.378
			c-0.633,0.32-1.633,0.277-1.803,1.062c0,0.603,0.496,0.705,0.743,1.062c0.958-0.209,1.173-1.161,1.802-1.698
			c0.021-0.514-0.618-0.371-0.636-0.85c0.484-0.859,1.624-1.062,2.76-1.272c0.942-1.008,1.862-0.759,3.501-0.955
			c0.08-0.415,0.332-0.659,0.531-0.955c1.605,0.157,1.365-1.535,2.758-1.592c-0.242-1.479,1.259-1.219,1.273-2.441
			c1.064-0.101,1.095-1.239,1.591-1.908c-0.146-0.312-1.018,0.099-1.167-0.213c-0.069-0.459,0.744-0.036,0.85-0.319
			c0.396-1.599-1.118-1.286-0.956-2.651c-0.268-0.298-0.626-0.504-0.849-0.849c0.728-0.688,1.4-1.433,2.76-1.485
			c0-0.178,0-0.354,0-0.53c-0.354-0.248-1.271,0.069-1.379-0.425c-0.401,0.2-0.768,0.436-1.168,0.637
			c-0.332,0.048-0.338-0.228-0.318-0.531c-0.346-0.186-0.922-0.139-0.849-0.744c1.788,0.162,1.934-1.32,3.608-1.271
			c-0.182,0.597-0.634,0.924-0.85,1.486c0.84,0.017,1.787-1.317,3.183-0.744c0.098,0.521-0.083,0.767-0.317,0.955
			c0.066,0.605,0.788,0.555,1.485,0.529c-0.224,0.905-0.091,1.301-0.212,2.548c1.141-0.027,1.865-0.472,2.865-0.638
			c0.189-1.747-0.519-2.595-1.592-3.075c0.186-0.7,1.147-0.623,1.592-1.062c-0.018-1.043,0.954-1.097,1.484-1.591
			c2.049,1.15,3.094-1.043,4.457-1.593c0.166-0.611,0.545-1.012,1.061-1.273c0-0.707,0-1.414,0-2.122
			c1.135,0.28,0.795,2.035,1.593,2.654c-0.126,0.791-0.069,1.22,0.317,1.697c-0.093,0.683-1.023,0.532-1.273,1.06
			c0.682,0.674,0.852,2.293,0.319,3.29c-0.401,0.153-0.204-0.292-0.532-0.212c-0.395,0.233,0.271,0.283,0.107,0.637
			c-1.028-0.146-1.17,0.598-2.016,0.637c-0.23-0.019-0.049,0.374-0.107,0.529c-0.84-0.461-1.47,0.391-2.76,0.107
			c-0.719,0.693-1.635,1.193-2.65,1.59c-0.09,0.904,0.607,1.021,0.637,1.804c0.264,0.126,0.602,0.176,0.742,0.426
			c0.731-0.047,0.363-1.192,0.849-1.486c0.077-0.606-0.606-0.453-0.529-1.062c0.245,0,0.493,0,0.741,0
			c0.219,0.172-0.004,0.784,0.211,0.957c0.662-0.012,0.824-0.524,1.698-0.32c0.313-0.148-0.099-1.019,0.212-1.166
			c0.372,0.335,0.51,0.906,0.957,1.166c0.402-0.269,0.86-0.481,0.849-1.166c0.885,0.194,1.905,0.391,2.229-0.319
			c0.338-0.09,0.327,0.167,0.529,0.212c0.28,0.032,0.084-0.41,0.425-0.318c-0.188-1.495,0.212-2.405,0.637-3.288
			c-0.366-0.624-1.095-0.887-1.168-1.804c0.564-0.033,1.106-0.045,1.274,0.316c0.524-0.182,0.543-0.869,1.485-0.635
			c0.059-0.156-0.125-0.549,0.107-0.53c-0.299-0.479-1.109-0.449-1.911-0.424c-0.08-0.63-0.981-0.437-1.062-1.062
			c0.091-0.299,0.574-0.206,0.955-0.211c0.035-0.602-0.552-0.582-0.955-0.743c0-0.249,0-0.495,0-0.743
			c0.074-0.21,0.592,0.025,0.637-0.214c0-0.141,0-0.281,0-0.422c-1.24-0.212-1.068-1.834-2.016-2.336
			c-0.422-0.034-0.287,0.49-0.637,0.531c-0.713-0.401-1.511-0.746-2.336-0.213c-0.111-0.396,0.266-0.303,0.213-0.636
			c-0.495-0.206-0.677,0.442-0.954,0.106c-0.124-0.561,0.671-0.461,1.167-0.744c0.586-0.334,1.586-1.637,2.439-0.636
			c1.835-0.208,2.969,0.284,4.562,0.318C74.217,8.582,73.903,7.88,74.159,7.746z M56.756,44.246
			c-0.586,0.545,0.154,1.049,0.106,1.698c0.263,0.014,0.512,0.016,0.638-0.106c0.129-0.483-0.292-0.416-0.213-0.849
			c0.177,0,0.354,0,0.53,0c0-0.424,0-0.849,0-1.273c-0.231,0.021-0.336-0.085-0.317-0.317c-0.39,0-0.779,0-1.168,0
			c-0.074-0.564-0.564-0.71-0.424-1.485c-0.438-0.094-0.885-0.177-1.168-0.425c-0.097,0.347-1.133,0.562-1.062-0.105
			c0.021-0.334,0.696-0.014,0.638-0.424c-0.096-0.224-0.6-0.039-0.638-0.32c0-0.212,0-0.425,0-0.637
			c0.413-0.046,0.642-0.279,0.956-0.423c0-0.744,0-1.487,0-2.229c-0.818,0.216-0.82-0.384-1.486-0.318
			c-0.263,0.196-0.355,0.563-0.743,0.636c0,0.602,0,1.202,0,1.805c-0.124,0.122-0.374,0.12-0.636,0.106
			c-0.195,0.936,0.271,1.213,0.317,1.909c0.154,0.058,0.549-0.123,0.53,0.105c0.08,0.327-0.289,0.205-0.212,0.53
			c0.202,0.048,0.64-0.144,0.53,0.213c-0.025,0.22-0.465,0.029-0.53,0.213c0.142,0.637,0.307,1.25,0.85,1.485
			c0.231-0.192,0.462-0.387,0.424-0.85c-0.043-0.204-0.412-0.083-0.318-0.424c0.038-0.318,0.286-0.424,0.53-0.53
			c0.132,0.342-0.344,0.081-0.212,0.424c0.474,0.283,1.188,0.021,1.592-0.105c0.228,0.69,0.109,0.743,0,1.485
			c0.62-0.192,0.441,0.407,0.956,0.318c0.279-0.627-0.619-0.742-0.107-0.955C56.191,43.821,56.716,43.793,56.756,44.246z
			 M52.406,32.257c-0.138,0.952,0.335,1.294,0.851,1.592c0.692-0.828,1.115-1.926,1.379-3.184
			C53.06,30.365,53.326,31.902,52.406,32.257z M56.014,44.989c-0.238,0.044,0.017,0.582-0.318,0.53
			c-0.592-0.363-0.409-1.499-1.698-1.166c0.185,0.713-0.268,0.791-0.317,1.273c0.359,0.067,0.985-0.136,1.168,0.105
			c0.031,0.454-0.501,0.35-0.531,0.742c-0.05,0.476,0.265,0.585,0.531,0.743c0.718-0.165,0.863-0.904,2.015-0.636
			c0.093-0.411-0.259-0.378-0.317-0.638c-0.396-0.114-0.303,0.264-0.637,0.213C56.212,45.955,56.545,45.14,56.014,44.989z
			 M57.5,47.112c-0.126,0.121-0.375,0.12-0.638,0.105c0,0.178,0,0.354,0,0.53c-0.36,0.063-0.556,0.291-0.954,0.319
			c0-0.177,0-0.354,0-0.531c-0.86,0.2-2.557,1.024-1.697,1.91c0.238-0.043-0.016-0.582,0.317-0.53
			c0.333,0.438,0.755,0.072,1.061-0.106c0.307,0.047,0.484,0.224,0.53,0.531c-0.093,0.188-0.295,0.27-0.211,0.637
			c0.513,0.477,0.955,1.023,1.909,1.061c0.118-0.449-0.25-1.382,0.214-1.486c0.229-0.018,0.046,0.376,0.104,0.53
			c0.696-0.011,0.601-0.812,0.956-1.166c-0.451-0.186-0.302-0.973-0.318-1.591c-0.207-0.254-0.631-0.289-0.531-0.851
			c-0.439,0.122-0.413-0.224-0.742-0.211C57.5,46.545,57.5,46.829,57.5,47.112z M16.437,51.356c2.201,0.374,1.238-3.412,0.424-3.82
			C16.75,48.84,16.261,49.765,16.437,51.356z M47.95,49.446c0.088,0.865-0.767,0.789-0.742,1.592c-0.176,0-0.354,0-0.529,0
			c0.012,0.262,0.015,0.512-0.108,0.637c-1.758,0.05-1.657,1.89-3.077,2.229c-0.393,0.736-1.38,0.882-1.803,1.592
			c-0.738,0.207-0.605-0.458-1.272-0.319c-0.265,0.197-0.357,0.565-0.743,0.637c-0.157,1.323,0.521,1.814,0.637,2.864
			c0.279,0.002,0.625-0.06,0.637,0.213c-0.213,0.887,0.343,1,0.318,1.698c0.494,0,0.99,0,1.484,0
			c0.124,0.126,0.12,0.376,0.106,0.637c0.856-0.516,2.757-0.858,2.864,0.637c0.811-0.12,1.238-0.542,1.912,0
			c-0.217-1.347,0.523-1.738,0.318-3.077c0.373-0.084,0.336-0.583,0.953-0.424c0.047-0.345-0.14-0.919,0.213-0.955
			c0.586-0.021,0.455,0.676,1.062,0.637c0.222-0.967-0.72-0.766-0.956-1.274c-0.03-0.562,0.834-0.227,1.273-0.319
			c0.197-0.902-0.6-0.813-0.954-1.166c0.212-0.918-0.308-1.108-0.53-1.592c0.313-0.145,0.117-0.802,0.318-1.061
			c0.281,0,0.566,0,0.849,0c-0.181-0.781,0.575-0.627,0.638-1.168c-0.401-0.342-0.584-0.903-1.486-0.743
			c-0.063-0.608-0.587-0.756-0.426-1.591C48.391,49.039,48.569,49.64,47.95,49.446z M28.851,53.797
			c0.417,1.918,2.492,2.175,2.546,4.457c0.323,0.421,0.687,0.8,0.636,1.592c0.305,0.367,0.603,0.742,0.637,1.379
			c0.262-0.014,0.511-0.018,0.637,0.105c0.054,1.289,1.61,1.078,1.91,2.123c0.771-0.136,1.132,0.142,1.591,0.317
			c0.628-1.019-0.472-2.11,0.425-3.077c0.326-0.078,0.204,0.292,0.531,0.212c0.354-0.843-0.979-0.742-0.637-1.909
			c-0.552-0.126-0.655,0.195-0.955,0.318c-0.053,0.335,0.323,0.24,0.211,0.637c-0.986-0.215-0.727-1.679-1.803-1.805
			c-0.086-0.509,0.465-0.382,0.318-0.954c-0.231-0.795-1.15-0.903-1.38-1.697c-1.018-0.433-2.265-0.637-2.439-1.911
			c-1.209-0.066-1.242-1.306-1.911-1.909c-0.651,0.05-1.219,0.015-1.486-0.318c-0.141,0-0.282,0-0.423,0
			C27.306,52.655,28.035,53.27,28.851,53.797z M59.727,59.633c0.561,0.063,0.859-0.131,0.955-0.529
			c-0.169-0.327-0.623-0.368-0.637-0.85c0.698-0.117,0.533-1.096,1.594-0.849c0.096-0.626-0.609-0.452-0.638-0.957
			c-0.092-0.411,0.464-0.173,0.317-0.636c-0.024-0.151-0.174-0.179-0.211-0.317c-0.424-0.105-0.32,0.316-0.742,0.211
			c-0.025-0.441,0.172-0.5,0-0.849c-0.107,0-0.213,0-0.32,0C59.546,56.573,59.473,57.78,59.727,59.633z M51.346,57.087
			c-0.178,0-0.354,0-0.532,0c0.005,0.322,0.063,0.697-0.317,0.636c0.357,1.224-0.092,2.061-0.318,3.502
			c0.332,0.021,0.779-0.071,0.957,0.105c0.193,1.009-0.273,1.356-0.321,2.123c0.425,0,0.85,0,1.274,0
			c0.178-0.989-0.379-2.712,0.317-3.185c0.532,0.354,0.251,1.521,0.851,1.805c-0.01,0.167-0.271,0.083-0.213,0.318
			c0.168,0.293,0.541,0.378,0.637,0.743c0.334,0.051,0.24-0.326,0.637-0.212c0,0.176,0,0.353,0,0.53c0.212,0,0.424,0,0.636,0
			c-0.138-0.635,0.163-0.828,0.318-1.167c-0.854-0.49-1.048-1.64-1.485-2.548c0.342-0.259,0.499-0.706,0.743-1.062
			c0.013,0.21,0.702,0.602,0.742,0.107c0.019-0.303-0.692,0.128-0.53-0.318c0.555-0.014,0.544-0.589,0.637-1.061
			c0.865,0.155,0.598-0.818,1.485-0.638c0-0.319,0-0.638,0-0.955C55.093,56.992,51.767,54.657,51.346,57.087z M62.594,59.633
			c0.317,0,0.635,0,0.953,0c-0.1-0.643-0.875-0.609-0.636-1.591c-0.106,0-0.212,0-0.317,0
			C62.341,58.537,62.689,58.981,62.594,59.633z M64.821,60.589c0.744-0.001,1.062,0.422,0.955,1.272
			c0.979-0.413,1.733-0.278,2.441,0.318c2.107,0.226,3.68,0.989,3.926,3.076c-0.682,0.099-1.12,0.438-0.955,1.38
			c1.672-0.31,2.847-0.383,3.5,0.955c1.072,0.114,1.822-0.09,2.55-0.317c-0.188-0.683,0.482-0.505,0.317-1.169
			c0.826-0.577,1.706,0.042,2.545,0.32c0.196,0.936,0.883,1.381,1.274,2.121c0.602,0,1.202,0,1.804,0
			c0.227,0.341,0.389,0.744,1.062,0.637c-0.208-1.103-0.981-1.637-1.911-2.018c0.169-0.661-0.505-0.483-0.316-1.166
			c-0.264,0.015-0.512,0.017-0.638-0.105c0.193-0.619-0.408-0.442-0.317-0.955c0.01-0.273,0.354-0.212,0.635-0.213
			c0.022-1.119-1.08-1.111-1.908-1.379c0-0.282,0-0.566,0-0.849c-0.781-0.492-1.723-0.825-2.229-1.593
			c-1.386,0.041-2.203-0.484-3.079-0.954c-1.614,0.129-2.282-0.688-3.183-1.274c-0.723,0.87-1.852,1.332-2.546,2.229
			c-0.3-0.018-0.728,0.093-0.743-0.212c0-0.248,0-0.493,0-0.742c-0.154-0.058-0.549,0.126-0.529-0.105
			c-0.08-0.327,0.291-0.204,0.213-0.531c-0.509-0.13-0.229-1.047-0.639-1.272c-1.504-0.069-2.953,0.116-3.82,0.104
			c-0.248,1.169,1.332,0.509,1.592,1.168c0.041,0.358-0.471,0.167-0.318,0.637c0.736,0.173,1.361-0.224,1.592-0.213
			C66.01,60.362,64.988,60.047,64.821,60.589z M60.682,59.846c0.371,0.293,0.957-0.102,0.957-0.531
			C61.237,59.41,60.901,59.566,60.682,59.846z M60.366,60.8c0.443,0.236-0.014,0.357,0,0.742c0.773,0.208,0.64-0.492,1.166-0.53
			c0.68,0.251,1.326-0.035,2.016,0.53C63.961,60.339,60.946,59.689,60.366,60.8z M58.455,61.542c0.652,0.052,1.198-0.005,1.272-0.53
			C59.458,60.316,58.217,60.546,58.455,61.542z M38.826,64.09c-1.356,0.035-1.846-0.627-2.334,0.529
			c0.911,0.596,2.441,1.714,3.607,1.063c0.279-0.034,0.084,0.41,0.426,0.316c0.981-0.027,1.576,0.333,2.227,0.637
			c0.984,0.076,2.354-0.229,2.866,0.32c0.382-0.649,0.612,0.059,1.273,0c0.121-0.127,0.12-0.378,0.105-0.639
			c-0.714,0.078-1.122-0.154-1.274-0.635c-0.447-0.118-1.382,0.248-1.484-0.215c0.422-0.213,1.225-0.047,1.168-0.742
			c-0.699-0.062-1.271,0.003-1.592,0.318c-0.677-0.278-1.248-0.662-2.229-0.637c-0.058,0.154,0.123,0.549-0.104,0.531
			C40.604,64.646,39.37,64.712,38.826,64.09z M58.136,65.894c0.08,0.141,1.037,0.266,0.956-0.106
			C59.012,65.646,58.053,65.521,58.136,65.894z M48.055,66.317c-0.567-0.001-0.76,0.373-0.741,0.956
			c1.112-0.16,2.255,0.084,3.5-0.317C50.536,65.414,48.641,67.236,48.055,66.317z M51.454,66.956
			c0.962-0.114,1.145,0.55,2.227,0.317c0-0.213,0-0.425,0-0.638C52.793,66.716,51.678,65.722,51.454,66.956z M56.227,66.53
			c0.08,0.14,1.037,0.266,0.954-0.105C57.102,66.282,56.144,66.157,56.227,66.53z M57.606,66.636
			c-0.396,1.018-2.325,0.504-2.017,2.229c0.481-0.049,0.561-0.502,1.273-0.318c0.449-1.035,1.786-1.184,2.653-1.804
			C59.348,65.825,58.553,67.023,57.606,66.636z M83.815,67.698c0.516,0.085,0.578,0.622,0.957,0.848
			c0.139-0.002,0.095-0.187,0.211-0.212c-0.238-0.47-0.457-0.959-1.062-1.061C83.945,67.474,83.801,67.508,83.815,67.698z
			 M50.814,68.228c0.931-0.188,0.957,0.53,1.911,0.318c0.068-0.601-0.619-0.442-0.637-0.955c-0.425,0-0.85,0-1.274,0
			C50.814,67.804,50.814,68.017,50.814,68.228z M68.639,93.056c0.602-0.001,0.492-0.712,1.17-0.636
			c0.045,0.434-0.35,0.429-0.213,0.956c0.607-0.113,0.691,0.301,0.956,0.53c0,0.353,0,0.706,0,1.06
			c0.229-0.018,0.337,0.088,0.317,0.32c1.23-0.101,1.708,0.556,3.076,0.318c0.25-0.178,0.256-0.593,0.742-0.531
			c0,0.177,0,0.354,0,0.531c0.532,0,1.062,0,1.592,0c0.215-0.955,1.84-0.497,2.547-0.957c0-0.282,0-0.565,0-0.849
			c0.35-0.003,0.256-0.453,0.637-0.423c0.051-0.905,0.764-1.148,1.273-1.592c0.072-0.779,0.496-1.202,1.275-1.274
			c-0.073-0.603,0.271-0.787,0.637-0.954c0.254-0.912,0.537-1.796,1.271-2.228c-0.16-1.436,0.182-2.366,0.319-3.503
			c-0.623-0.757-1.532-1.227-1.591-2.546c-0.267-0.23-0.721-0.272-0.957-0.53c0.163-0.834-0.535-0.81-0.317-1.698
			c-0.8-0.438-1.597-0.878-2.228-1.486c0.301-1.928-0.982-2.271-0.638-4.243c-0.408-0.405-1.394-0.232-1.591-0.849
			c0.09-1.399-0.458-2.162-0.639-3.29c-0.211,0-0.422,0-0.636,0c0.108,0.604-0.099,0.889-0.317,1.166
			c0.027,0.983-0.332,1.58-0.639,2.23c0.219,1.666-0.278,2.62-0.742,3.607c-0.565-0.18-0.46,0.316-0.848,0.316
			c-0.283-0.354-1.137-0.137-0.955-0.954c-0.283,0-0.566,0-0.85,0c-0.67-0.992-2.228-1.096-2.864-2.122
			c0.588-0.649,0.761-1.714,1.485-2.227c0.118-0.474-0.28-0.428-0.318-0.743c-1.498,0.544-3.127-0.499-4.775-0.956
			c-0.115,0.578,0.582,0.338,0.531,0.848c-0.387,0.676-1.779,0.346-2.44,0.744c0,0.283,0,0.566,0,0.849
			c-0.125,0.122-0.374,0.119-0.637,0.107c-0.048,0.731-0.532,0.901-0.106,1.59c-0.828,0.181-0.816-0.581-1.379-0.105
			c-0.488-0.325-0.734-0.894-1.273-1.167c-1.305,0.321-2.074,1.18-2.971,1.91c-0.053,0.334,0.326,0.239,0.211,0.636
			c-0.281,0-0.565,0-0.848,0c-0.068,0.357,0.137,0.985-0.105,1.167c-0.395-0.066-0.592-0.328-0.532-0.848
			c-0.599-0.07-0.442,0.617-0.954,0.636c0,0.39,0,0.778,0,1.168c-0.751,0.69-1.447,2.358-2.863,1.697
			c-0.422,0.462-1.279,0.491-1.805,0.85c-0.189-0.096-0.27-0.297-0.637-0.213c-0.806,0.539-1.58,1.11-2.23,1.806
			c-0.301,0.017,0.13-0.695-0.318-0.532c-0.432,0.429,0.256,2.021-0.423,2.44c0.358,0.702,1.027,1.096,1.167,2.016
			c-0.176,0-0.354,0-0.529,0c0.436,1.578,1.8,2.232,1.908,4.138c0.926,0.388,1.172,1.787,0.637,2.759
			c0.555,0.719,1.711,0.837,3.077,0.743c0.671-0.438,1.94-1.452,2.864-0.637c0.46,0,0.921,0,1.381,0
			c0.754-1.12,1.982-1.765,4.031-1.592c0.535-0.337,1.664-0.968,2.229-0.318c0.562,0.173,0.331-0.445,0.848-0.317
			c0.623,0.368,1.292,0.689,2.334,0.636c0.039,1.059,1.293,0.904,1.062,2.229c1.174-0.107,1.682-1.419,2.547-1.485
			c-0.176,0.213-0.285,0.493-0.637,0.531C69.132,92.487,68.667,92.551,68.639,93.056z M93.153,95.18
			c0.009,0.273,0.453,0.111,0.318,0.53c-0.152,0.346-0.705,0.285-0.638,0.848c0.781-0.526,1.802-0.816,2.017-1.91
			c0.832-0.087,1.166-0.673,1.484-1.271c-0.494-0.108-0.352,0.426-0.848,0.316c-0.084-0.303-0.215-0.562-0.317-0.848
			c0.442-0.312,0.284-0.872,0.212-1.379c-0.106,0-0.212,0-0.318,0C95.225,93.173,94.06,94.215,93.153,95.18z M68.004,93.587
			c0.08,0.142,1.038,0.267,0.955-0.105C68.879,93.341,67.922,93.217,68.004,93.587z M88.167,98.47
			c-0.727,0.44-1.323,1.012-2.018,1.483c1.09,0.989,1.791-0.308,2.865-0.53c-0.052-0.793,0.479-1.006,1.273-0.953
			c0.445-1.041,1.896-1.076,2.228-2.23C90.344,96.262,90.274,98.383,88.167,98.47z M73.735,98.681
			c0.825,0.932,2.806,0.01,2.545-1.484c-0.647-0.121-0.942,0.115-1.271,0.316c-0.329-0.201-0.624-0.438-1.273-0.316
			C73.563,97.956,74.178,98.251,73.735,98.681z"/>
		<path fill="#333333" d="M58.348,4.138c17.496-0.833,30.771,6.178,39.686,14.537c8.957,8.402,16.406,20.604,17.189,37.031
			c0.431,9.035-1.36,16.659-4.032,23.133c-2.661,6.451-6.169,11.966-10.504,16.552c-8.735,9.241-20.425,16.289-37.14,17.084
			c-17.416,0.828-30.653-6.14-39.578-14.432C14.575,89.316,7.665,77.638,6.78,61.012c-0.942-17.716,6.082-30.633,14.324-39.686
			c6.209-6.817,14.841-12.442,25.359-15.384C50.059,4.936,54.453,4.323,58.348,4.138z M73.946,8.701
			c-1.594-0.033-2.728-0.525-4.562-0.317c-0.854-1-1.854,0.301-2.439,0.635c-0.496,0.283-1.292,0.185-1.168,0.744
			c0.277,0.336,0.46-0.312,0.955-0.106c0.053,0.333-0.324,0.239-0.213,0.637c0.825-0.534,1.623-0.189,2.334,0.212
			c0.352-0.04,0.217-0.564,0.638-0.53c0.948,0.501,0.776,2.123,2.017,2.335c0,0.141,0,0.281,0,0.422
			c-0.045,0.24-0.562,0.004-0.637,0.214c0,0.248,0,0.494,0,0.743c0.403,0.161,0.989,0.142,0.955,0.743
			c-0.381,0.005-0.864-0.087-0.955,0.211c0.08,0.626,0.981,0.433,1.061,1.062c0.803-0.025,1.611-0.056,1.91,0.424
			c-0.23-0.019-0.048,0.374-0.105,0.53c-0.943-0.234-0.961,0.454-1.485,0.635c-0.168-0.361-0.71-0.35-1.274-0.316
			c0.072,0.919,0.801,1.18,1.168,1.804c-0.425,0.883-0.824,1.793-0.637,3.288c-0.341-0.092-0.146,0.351-0.425,0.32
			c-0.202-0.047-0.191-0.304-0.529-0.214c-0.323,0.71-1.344,0.514-2.229,0.32c0.012,0.684-0.448,0.896-0.849,1.165
			c-0.447-0.26-0.585-0.83-0.957-1.165c-0.311,0.146,0.102,1.018-0.212,1.165c-0.874-0.202-1.036,0.309-1.698,0.32
			c-0.215-0.173,0.007-0.785-0.211-0.955c-0.248,0-0.496,0-0.744,0c-0.076,0.606,0.609,0.453,0.532,1.06
			c-0.485,0.295-0.117,1.439-0.849,1.486c-0.141-0.25-0.479-0.3-0.742-0.426c-0.029-0.783-0.727-0.899-0.639-1.804
			c1.017-0.396,1.934-0.896,2.652-1.59c1.289,0.283,1.918-0.568,2.76-0.107c0.059-0.155-0.123-0.547,0.107-0.529
			c0.845-0.039,0.985-0.783,2.015-0.637c0.163-0.354-0.501-0.401-0.106-0.637c0.328-0.08,0.131,0.365,0.531,0.212
			c0.531-0.995,0.363-2.616-0.318-3.29c0.25-0.527,1.18-0.376,1.273-1.06c-0.387-0.476-0.443-0.906-0.317-1.697
			c-0.798-0.619-0.46-2.374-1.593-2.654c0,0.708,0,1.415,0,2.122c-0.516,0.262-0.895,0.662-1.061,1.273
			c-1.363,0.55-2.408,2.743-4.457,1.593c-0.53,0.494-1.503,0.548-1.486,1.591c-0.443,0.438-1.405,0.362-1.59,1.062
			c1.073,0.48,1.781,1.328,1.59,3.075c-1.001,0.167-1.724,0.61-2.863,0.638c0.121-1.247-0.012-1.643,0.211-2.548
			c-0.696,0.025-1.418,0.076-1.485-0.529c0.235-0.188,0.415-0.434,0.318-0.955c-1.396-0.573-2.343,0.761-3.184,0.744
			c0.217-0.562,0.669-0.89,0.851-1.485c-1.676-0.05-1.82,1.433-3.608,1.273c-0.073,0.603,0.503,0.556,0.849,0.741
			c-0.02,0.304-0.014,0.58,0.318,0.531c0.4-0.201,0.766-0.437,1.167-0.637c0.107,0.494,1.026,0.177,1.38,0.425
			c0,0.176,0,0.353,0,0.53c-1.361,0.053-2.032,0.797-2.76,1.485c0.221,0.346,0.58,0.551,0.849,0.849
			c-0.162,1.365,1.351,1.053,0.956,2.651c-0.105,0.286-0.919-0.14-0.85,0.319c0.148,0.312,1.021-0.099,1.167,0.213
			c-0.496,0.669-0.526,1.808-1.591,1.908c-0.015,1.223-1.516,0.962-1.274,2.441c-1.392,0.057-1.151,1.749-2.757,1.592
			c-0.2,0.296-0.452,0.54-0.532,0.955c-1.638,0.196-2.558-0.053-3.501,0.956c-1.135,0.21-2.274,0.413-2.759,1.272
			c0.018,0.478,0.657,0.335,0.636,0.849c-0.629,0.537-0.844,1.489-1.803,1.698c-0.246-0.356-0.744-0.459-0.742-1.062
			c0.17-0.784,1.17-0.741,1.803-1.062c-0.732-0.046-0.439-1.116-0.955-1.378c-1.709,0.094-2.203,1.401-3.395,2.015
			c-0.264,1.213,0.279,1.42,0.637,1.91c0.067,0.093-0.061,0.323,0,0.424c0.195,0.346,1.067,0.758,1.273,1.167
			c0.24,0.485,0.191,0.72,0.637,0.957c0,1.095,0,2.191,0,3.287c-0.586,1.006-1.51,1.675-2.76,2.018
			c-0.26,1.047-1.326,1.292-2.015,1.909c0-0.601,0-1.202,0-1.803c-0.177-0.18-0.625-0.086-0.956-0.106
			c0.202-0.662-0.338-0.582-0.637-0.744c0-0.354,0-0.707,0-1.061c-0.608-0.062-0.756-0.587-1.591-0.424
			c-0.049-0.376,0.173-1.021-0.318-0.955c-0.478,0.337-0.709,0.918-0.637,1.804c-0.403,0.657-0.923,1.2-0.953,2.229
			c0.071,0.21,0.591-0.026,0.636,0.213c-0.196,1.079,0.533,1.234,0.317,2.335c1.381,0.068,1.697,1.202,2.547,1.802
			c0,0.85,0,1.698,0,2.547c0.378,0.51,0.76,1.01,0.637,2.017c0.177,0.142,0.675-0.038,0.636,0.318
			c-0.113,0.239-0.667,0.04-0.954,0.105c-0.474-1.4-2.558-1.19-2.547-3.076c-0.25-0.174-0.578-0.271-0.636-0.638
			c0.354-0.343-0.213-1.344,0-2.228c-0.547-0.303-0.833-0.864-0.955-1.592c-0.073-0.21-0.593,0.026-0.637-0.212
			c-0.23-1.564,0.945-2.972,0.318-3.928c0.901-1.412-0.408-3.136,0-5.092c-0.966,0.167-1.346,1.482-2.547,1.062
			c0.099-0.954,0.74-2.488,0-3.29c-0.105-0.424,0.318-0.32,0.212-0.742c-0.933-0.059-0.854-1.128-0.849-2.122
			c-0.883,0.427-1.621,0.997-3.077,0.849c-0.062,0.221-0.204,0.361-0.425,0.424c0,0.283,0,0.566,0,0.85
			c-0.537,0.064-0.42,0.782-1.167,0.637c-0.729,1.214-2.214,1.677-2.651,3.182c-0.391,0.002-0.284,0.498-0.85,0.318
			c0.008,0.717-0.732,0.686-1.062,1.062c0.365,2.31-0.903,2.988-0.954,4.881c-0.921,0.599-0.787,2.256-1.91,2.652
			c-0.672-2.478-0.158-6.138-0.318-9.125c0.043-0.205,0.412-0.084,0.318-0.425c-0.139-1.271,0.456-1.806,0.636-2.759
			c-0.434-0.046-0.43,0.351-0.954,0.213c-0.186-0.962,0.214-1.343,0.531-1.805c-0.385-0.324-0.149-1.266-0.212-1.908
			c-0.432,0.028-0.583,0.336-1.168,0.211c-3.492,6.569-5.616,13.532-6.047,22.813c-0.47,10.101,2.159,18.534,5.624,25.466
			c5.158,10.323,13.442,18.555,23.663,23.662c5.229,2.614,11.748,4.969,18.354,5.412c11.554,0.775,20.984-1.315,29.182-5.412
			c10.414-5.203,18.503-13.336,23.662-23.662c2.658-5.317,4.963-11.696,5.41-18.357c0.691-10.273-0.915-18.849-4.031-26.209
			c-4.752-11.225-12.449-19.721-22.92-25.464c-1.825-1.004-5.193-3.121-7.32-3.079c-0.188-0.095-0.135-0.43-0.531-0.317
			c-0.721,0.308-0.607,0.215-1.379,0c0.115,0.945,1.415,0.706,1.803,1.38c0.264,1.182-0.918,0.92-0.637,2.121
			c-0.431,0.099-0.438,0.622-0.954,0.638c0.451-1.685-2.386-1.741-2.229-3.821c0.759,0.158,0.679-0.522,0.849-0.954
			c-0.561-0.173-0.331,0.445-0.849,0.319c-0.059-0.295-0.365-0.344-0.424-0.638c-0.354,0-0.708,0-1.062,0
			C73.903,7.88,74.217,8.582,73.946,8.701z"/>
		<path fill="#333333" d="M56.863,55.812c0,0.317,0,0.636,0,0.955c-0.888-0.181-0.62,0.793-1.485,0.638
			c-0.093,0.472-0.082,1.047-0.637,1.061c-0.162,0.446,0.549,0.016,0.53,0.318c-0.04,0.494-0.729,0.103-0.742-0.107
			c-0.244,0.355-0.401,0.803-0.743,1.062c0.438,0.908,0.631,2.058,1.485,2.548c-0.155,0.339-0.456,0.532-0.317,1.167
			c-0.213,0-0.425,0-0.637,0c0-0.178,0-0.354,0-0.53c-0.396-0.114-0.303,0.263-0.637,0.212c-0.096-0.365-0.469-0.45-0.637-0.743
			c-0.059-0.235,0.203-0.151,0.213-0.318c-0.6-0.284-0.318-1.451-0.851-1.805c-0.696,0.473-0.14,2.195-0.317,3.185
			c-0.425,0-0.85,0-1.274,0c0.048-0.767,0.515-1.114,0.321-2.123c-0.178-0.177-0.625-0.084-0.957-0.105
			c0.227-1.441,0.676-2.278,0.318-3.502c0.381,0.062,0.322-0.313,0.317-0.636c0.179,0,0.354,0,0.532,0
			C51.767,54.657,55.093,56.992,56.863,55.812z M54.317,58.042c0.525-0.182,0.699-0.715,0.848-1.274c-0.779,0-1.555,0-2.334,0
			C53.344,57.174,54.043,57.395,54.317,58.042z M51.77,57.512c0,0.14,0,0.282,0,0.423c0.42,0.136,1.654,0.267,1.91-0.105
			C53.678,57.136,52.229,57.4,51.77,57.512z"/>
		<path fill="#333333" d="M60.045,54.857c0.107,0,0.213,0,0.32,0c0.172,0.349-0.025,0.407,0,0.849
			c0.422,0.105,0.318-0.316,0.742-0.211c0.037,0.139,0.187,0.166,0.211,0.317c0.146,0.463-0.409,0.225-0.317,0.636
			c0.028,0.505,0.733,0.331,0.638,0.957c-1.061-0.247-0.896,0.731-1.594,0.849c0.014,0.481,0.468,0.522,0.637,0.85
			c-0.096,0.398-0.395,0.593-0.955,0.529C59.473,57.78,59.546,56.573,60.045,54.857z"/>
	</g>
</g>
</svg>
