<?xml version="1.0" encoding="utf-8"?>
<!-- Generator: Adobe Illustrator 16.0.0, SVG Export Plug-In . SVG Version: 6.00 Build 0)  -->
<!DOCTYPE svg PUBLIC "-//W3C//DTD SVG 1.1//EN" "http://www.w3.org/Graphics/SVG/1.1/DTD/svg11.dtd">
<svg version="1.1" id="Layer_1" xmlns="http://www.w3.org/2000/svg" xmlns:xlink="http://www.w3.org/1999/xlink" x="0px" y="0px"
	 width="126.839px" height="89.419px" viewBox="0 0 126.839 89.419" enable-background="new 0 0 126.839 89.419"
	 xml:space="preserve">
<g>
	<path fill="#404041" d="M114.987,72.035c0,1.826-1.476,3.308-3.299,3.308H15.834c-1.822,0-3.299-1.481-3.299-3.308V7.533
		c0-1.826,1.477-3.308,3.299-3.308h95.854c1.823,0,3.299,1.481,3.299,3.308V72.035z"/>
	<rect x="4.657" y="76.737" fill="#404041" width="116.906" height="6.733"/>
	<path fill="#F1F1F2" d="M77.266,77.884c0,1.228-0.703,2.221-1.57,2.221H50.523c-0.869,0-1.572-0.993-1.572-2.221l0,0
		c0-1.228,0.703-2.223,1.572-2.223h25.173C76.563,75.661,77.266,76.656,77.266,77.884L77.266,77.884z"/>
	<rect x="17.366" y="8.475" fill="#F1F1F2" width="92.643" height="62.576"/>
	<ellipse fill="#F1F1F2" cx="63.75" cy="6.361" rx="0.91" ry="0.919"/>
</g>
</svg>
