<?xml version="1.0" encoding="utf-8"?>
<!-- Generator: Adobe Illustrator 16.0.0, SVG Export Plug-In . SVG Version: 6.00 Build 0)  -->
<!DOCTYPE svg PUBLIC "-//W3C//DTD SVG 1.1//EN" "http://www.w3.org/Graphics/SVG/1.1/DTD/svg11.dtd">
<svg version="1.1" id="Layer_1" xmlns="http://www.w3.org/2000/svg" xmlns:xlink="http://www.w3.org/1999/xlink" x="0px" y="0px"
	 width="90px" height="86px" viewBox="0 0 90 86" enable-background="new 0 0 90 86" xml:space="preserve">
<path id="LinkedIn_3_" fill="#C1272D" d="M90,52.728V86H70.711V54.955c0-7.799-2.791-13.121-9.773-13.121
	c-5.33,0-8.502,3.588-9.896,7.058c-0.508,1.239-0.639,2.967-0.639,4.703V86H31.104c0,0,0.262-52.58,0-58.027h19.295v8.225
	c-0.037,0.062-0.09,0.128-0.127,0.188h0.127v-0.188c2.562-3.947,7.143-9.588,17.389-9.588C80.484,26.609,90,34.903,90,52.728z
	 M10.92,0C4.318,0,0,4.33,0,10.023c0,5.57,4.193,10.031,10.664,10.031h0.129c6.729,0,10.914-4.461,10.914-10.031
	C21.58,4.33,17.521,0,10.92,0z M1.146,86h19.289V27.973H1.146V86z"/>
</svg>
