<?xml version="1.0" encoding="utf-8"?>
<!-- Generator: Adobe Illustrator 16.0.0, SVG Export Plug-In . SVG Version: 6.00 Build 0)  -->
<!DOCTYPE svg PUBLIC "-//W3C//DTD SVG 1.1//EN" "http://www.w3.org/Graphics/SVG/1.1/DTD/svg11.dtd">
<svg version="1.1" id="Layer_1" xmlns="http://www.w3.org/2000/svg" xmlns:xlink="http://www.w3.org/1999/xlink" x="0px" y="0px"
	 width="109.936px" height="102px" viewBox="0 0 109.936 102" enable-background="new 0 0 109.936 102" xml:space="preserve">
<path id="LinkedIn_3_" fill="#333333" d="M101.381,65.438V98.71H82.092V67.665c0-7.799-2.791-13.121-9.773-13.121
	c-5.33,0-8.502,3.588-9.897,7.058c-0.508,1.239-0.639,2.967-0.639,4.703V98.71H42.486c0,0,0.261-52.58,0-58.027h19.295v8.225
	c-0.038,0.062-0.09,0.128-0.127,0.188h0.127v-0.188c2.562-3.947,7.142-9.588,17.388-9.588
	C91.865,39.319,101.381,47.613,101.381,65.438z M22.301,12.71c-6.602,0-10.92,4.33-10.92,10.023c0,5.57,4.193,10.031,10.664,10.031
	h0.129c6.729,0,10.914-4.461,10.914-10.031C32.961,17.04,28.902,12.71,22.301,12.71z M12.527,98.71h19.289V40.683H12.527V98.71z"/>
</svg>
