<?xml version="1.0" encoding="utf-8"?>
<!-- Generator: Adobe Illustrator 16.0.0, SVG Export Plug-In . SVG Version: 6.00 Build 0)  -->
<!DOCTYPE svg PUBLIC "-//W3C//DTD SVG 1.1//EN" "http://www.w3.org/Graphics/SVG/1.1/DTD/svg11.dtd">
<svg version="1.1" id="Layer_1" xmlns="http://www.w3.org/2000/svg" xmlns:xlink="http://www.w3.org/1999/xlink" x="0px" y="0px"
	 width="400.238px" height="50px" viewBox="0 0 400.238 50" enable-background="new 0 0 400.238 50" xml:space="preserve">
<g>
	<g>
		<g>
			<g>
				<g>
					<path fill="#C1282D" d="M392.585,22.929c0.203-0.43,0.088-1.406-0.472-1.211l-0.397,1.655L392.585,22.929z"/>
					<path fill="#C1282D" d="M388.818,19.86c-0.658,0.802-1.418,2.21-0.992,3.731c0.652-1.591,0.81-0.927,1.513-2.82
						c0.561-0.19,0.978,0.534,0.883,1.144c0.198-0.424,0.871,0.363,1.172-0.677c-0.729-1.28-1.651-1.333-2.616-0.276
						C388.57,20.597,388.771,20.165,388.818,19.86z"/>
					<path fill="#C1282D" d="M334.096,17.148l0.353,0.197C334.352,17.237,334.231,17.178,334.096,17.148z"/>
					<path fill="#C1282D" d="M300.184,16.149c0.259-0.038,0.366-0.204,0.38-0.353C300.323,15.905,300.127,16.005,300.184,16.149z"/>
					<path fill="#C1282D" d="M294.395,14.318c0.124,0.051,0.229,0.076,0.342,0.112C294.606,14.276,294.475,14.193,294.395,14.318z"
						/>
					<path fill="#C1282D" d="M334.096,17.148l-0.904-0.523C333.127,17.165,333.654,17.027,334.096,17.148z"/>
					<path fill="#C1282D" d="M381.267,23.842c0.19-0.081,0.348-0.234,0.493-0.434c-0.156,0.071-0.307,0.131-0.463,0.175
						C381.287,23.667,381.278,23.741,381.267,23.842z"/>
					<path fill="#C1282D" d="M349.049,15.853l0.275,0.001c0.082-0.19,0.158-0.417,0.23-0.673L349.049,15.853z"/>
					<path fill="#C1282D" d="M360.52,15.632c-0.259-0.059-0.353,1.344-0.454,1.957c0.148-0.576,0.341-0.854,0.568-0.96
						C360.639,16.36,360.605,16.043,360.52,15.632z"/>
					<path fill="#C1282D" d="M378.702,18.146l0.323-0.195C378.941,18.009,378.8,18.067,378.702,18.146z"/>
					<path fill="#C1282D" d="M340.839,15.524c-0.019-0.21-0.06-0.391-0.103-0.503C340.735,15.197,340.776,15.366,340.839,15.524z"/>
					<path fill="#C1282D" d="M21.045,36.658c-0.002-0.101-0.022-0.162-0.029-0.247C20.966,36.559,20.957,36.658,21.045,36.658z"/>
					<path fill="#C1282D" d="M7.051,31.242l0.174-0.097C7.212,30.88,7.2,30.618,7.169,30.361L7.051,31.242z"/>
					<path fill="#C1282D" d="M283.793,12.517c0.021,0.015,0.027,0.015,0.047,0.024C284.119,12.383,283.961,12.41,283.793,12.517z"/>
					<path fill="#C1282D" d="M186.406,14.422c1.129,1.231-1.761,1.651-0.071,3.01C186.168,16.886,187.799,15.208,186.406,14.422z"/>
					<path fill="#C1282D" d="M380.97,23.656c-0.155,0.017-0.312,0.029-0.471,0.014C380.713,23.717,380.858,23.715,380.97,23.656z"/>
					<path fill="#C1282D" d="M186.335,17.432c0,0.005,0,0.012,0,0.012l0.174,0.128C186.438,17.515,186.397,17.481,186.335,17.432z"
						/>
					<path fill="#C1282D" d="M259.358,13.403c0.051,0.247,0.149,0.434,0.251,0.614C259.601,13.871,259.544,13.696,259.358,13.403z"
						/>
					<path fill="#C1282D" d="M277.564,15.358l-0.45-0.186C277.292,15.299,277.438,15.343,277.564,15.358z"/>
					<path fill="#C1282D" d="M249.916,15.417c-0.246-0.107-0.33-0.302-0.663-0.11c0.031,0.071,0.062,0.122,0.103,0.171
						C249.476,15.284,249.636,15.193,249.916,15.417z"/>
					<path fill="#C1282D" d="M240.079,15.495c0.053,0.107,0.122,0.185,0.184,0.282c0.097-0.025,0.211-0.055,0.311-0.081
						L240.079,15.495z"/>
					<path fill="#C1282D" d="M50.552,32.998c-0.249-0.373-0.42-0.796-0.562-1.214C50.229,32.765,48.83,33.255,50.552,32.998z"/>
					<path fill="#C1282D" d="M381.263,23.051c-0.058,0.356-0.143,0.532-0.293,0.605c0.113-0.015,0.222-0.043,0.327-0.073
						C381.326,23.374,381.332,23.176,381.263,23.051z"/>
					<path fill="#C1282D" d="M249.573,26.507l-1.562-0.205C248.449,26.437,249.016,26.509,249.573,26.507z"/>
					<path fill="#C1282D" d="M120.652,28.136l-0.349,0.187C120.442,28.347,120.566,28.299,120.652,28.136z"/>
					<path fill="#C1282D" d="M243.386,26.549c-0.281-0.496-0.578-0.782-0.884-0.965c-0.064,0.108-0.137,0.201-0.179,0.363
						L243.386,26.549z"/>
					<path fill="#C1282D" d="M49.986,31.77c0.003,0.005,0.004,0.015,0.004,0.015S49.989,31.774,49.986,31.77z"/>
					<path fill="#C1282D" d="M40.103,36.06c1.477-0.099,0.519-1.866,0.729-2.95c1.712-0.688,0.945,1.278,1.633,2.16
						c1.051-0.591,1.736-2.357,2.563-2.365c0.089,0.299,0.259,0.393,0.107,0.79c1.027-1.571,3.442-0.398,4.632-2.365
						c0.115,0.153,0.18,0.302,0.218,0.44c-0.302-0.903-0.419-1.834-0.434-2.504c0.66-0.098,1.128-1.279,1.484-0.102
						c-0.41,0.004-0.4,0.491-0.558,0.887l0.648-0.592c0.778,1.673-0.895,0.688-0.781,1.97c1.302-0.686,2.755-2.281,3.837-1.873
						c0.361,1.665-2.377,0.788-0.863,2.162l-1.66-0.492c1.459,2.552-0.99-0.095,0.386,2.653c2.148,0.286,2.283-1.078,4.431-0.751
						c0.395-0.977-0.274-1.379,0.121-2.355c2.858-1.924,2.711,4.07,4.726,1.643c0.478-1.171,0.527-3.33,2.188-2.321l-0.382,1.957
						c2.059,0.027,0.95-2.844,3.195-1.722c-0.323,0.779-1.559,0.759-1.231,0.963c1.506,1.4,0.896-1.162,1.964-1.246l0.352,1.678
						c2.156-0.438,4.463-1.849,6.854-2.35c-0.097,0.518-0.471,1.08,0.13,1.553c2.979-1.107,6.515-0.245,9.516,0.566l1.025-1.532
						c0.262-0.002,0.528,0.629,0.264,0.932c1.181,0.483-0.002-0.934,0.51-1.544c0.645-0.144,0.916,0.788,0.532,1.253
						c1.937-1.371,5.588-3.041,7.814-1.607l-0.389,0.46c1.693,0.489,1.69-3.121,3.312-1.853l-0.279,0.28
						c3.634,0.385,7.544-1.157,10.415,0.921c0.41-2.138,3.615,0.76,3.692-2.194c2.134,1.354,1.572,1.91,4.517,2.743
						c0.78,0.098,1.062-1.896,2.004-2.252l0.099,1.54l1.22-1.683l0.779,1.806l0.878-0.44c-0.361-0.072-0.792-0.654-0.76-1.101
						c1.37-0.766,3.468,0.899,3.538,1.688l3.257-1.461c-0.046,0.623-0.593,0.854-1.014,1.271c1.7-1.646,0.394,1.607,1.952,0.104
						c-0.233-0.343,0.077-0.922,0.1-1.235c0.85,0.9,2.691,0.835,4.037,0.389l-0.217,1.074c2.47,0.172,5.165-0.716,7.927-0.806
						c-1.01-0.453-0.854-2.302-0.05-2.512l0.387,1.614c0.484-1.025-0.87-0.581,0.157-1.853c1.04,0.145,0.765,1.822,0.193,2.375
						l1.233-0.613c0.092,0.483-0.193,0.751-0.246,1.373c0.477-1.03,2.225,1.55,2.902-0.235l0.088,0.479
						c2.76-0.093,3.991-0.705,6.237-0.871c-0.004-1.407,0.886-1.121,1.519-2.275c1.67,0.398,3.542,1.449,5.531,1.271
						c1.378-0.741,0.372-1.201,0.976-2.054c0.143,1.275,2.13,1.096,1.125,2.046c2.386-0.278,3.047-0.344,6.042-1.473
						c-0.343-0.515-0.719-0.733-0.54-1.173c0.543-0.229,1.266,0.5,1.204,1.117l-0.142,0.136c3.348-2.011,7.935,3.484,10.571,0.771
						l-0.148,0.135l2.772-1.45c1.296,0.193-0.752,0.978,0.222,1.749c2.977-2.196,4.787,0.213,7.249-1.265
						c2.006,3.738,6.84-0.407,9.49,1.95l-0.167-0.888c0.657-0.886,0.823,0.493,1.322,0.686c-0.083-0.689-0.744-0.783-0.334-1.275
						c5.684-1.184,11.792,1.128,17.645,1.844c2.14,0.207,1.155-4.619,3.877-2.532l-0.745,1.661c4.291-2.048,8.823-0.043,13.033-1.75
						c-0.249,0.383-0.251,0.876-0.664,0.875c0.903,1.194,3.301,0.032,3.308-0.949c0.659,0.107,0.16,0.888,0.569,1.383
						c0.901,0.7,2.235-1.551,2.72-0.361c0.083,0.194-0.249,0.391-0.412,0.484c0.579-0.586,2.719,0.128,2.15-1.252
						c1.591,0.647,3.031-0.639,4.301,0.171c0.815-1.554,2.72,0.723,2.969-1.469c-0.1,2.264,2.791,1.8,3.789,0.737
						c-0.332,0.685,0.876,0.705,0.488,1.654c1.144-0.038,2.191-0.461,1.986-1.623c2.121,2.701,4.231-2.191,5.433,1.274
						c3.396-1.227,6.542-2.06,9.601-2.6c-0.104,2.256-3.382,0.235-3.244,2.604c2.899-0.94,4.57-2.879,7.45-2.346
						c0.746,0.305-0.422,0.98-0.673,1.367c2.898-0.944,5.608,0.201,8.188-1.03c-0.008,0.21-0.286,0.439-0.549,0.61
						c0.509-0.073,1.183,0.332,1.125-0.693l-0.495,0.278c-0.813-1.489,2.018-3.107,2.108-3.894c-0.862,2.937,2.551,0.74,1.181,4.451
						c0.334-0.193,0.754-0.679,0.678-1.365c0.496,0.2,0.654,0.601,0.15,1.379c1.822-0.556,1.175-1.645,2.826-1.623
						c-0.007,0.496-0.339,0.688-0.511,1.272c0.836-0.967,1.677-1.936,3.071-1.516c-0.084,0.3,0.078,0.688-0.338,0.681
						c2.396-0.151,4.086-2.578,6.714-1.64c-0.777,2.153,0.894,0.708,1.031,2.573l1.414-0.556l-0.566-0.903
						c1.238,0.029,2.335-1.324,3.398-0.712l-0.921,0.767l2.321-0.349l-1.312-0.711c1.255-0.959-0.131-2.364,1.518-1.837
						c-0.336,0.189,1.239,0.025,1.883,1.127c0,0-0.005,0-0.005,0.005c0.614-0.594,1.246-1.218,2.161-0.752
						c0.236,0.596-0.196,2.062-0.042,2.461c0.607-1.559,2.901-0.428,3.671-2.086c-0.256,0.39-0.271,1.369-0.188,1.567l0.511-1.263
						c0.572,0.407,0.656,0.602,0.562,1.383c1.725,0.236-0.543-2.37,1.503-1.344c-0.161,0.102-0.085,0.292-0.42,0.482
						c2.056,0.537,3.977-0.794,5.865-0.167c0.553,1.881-1.653,0.458-1.019,2.043c2.726-0.335,5.649-2.239,8.286-1.788l-0.491-0.209
						c0.374-2.65,1.961,1.315,3.299,0.069c-0.327,0.197-0.433,1.473-0.344,1.176c1.806,0.433,3.695-0.637,6.436-1.463l-0.342,0.68
						c1.063,0.611,2.803,0.358,3.952,0.674c0.343-0.68,1.001-0.568,0.604-1.561c3.533,3.893,6.77-2.058,9.906,1.184
						c-0.376,0.009-0.899,0.593-0.6,0.599l2.683-0.622c-0.209-1.153-0.35-0.699-0.909-1.599c0.341-0.685,1.099-1.212,1.763-1.21
						c-1.207,0.76,0.005,1.855,0.523,2.501c-0.086-0.357,0.094-0.747,0.051-1.106c1.394,2.06,0.242-2.324,2.149-0.934l-0.104,0.605
						c0.716-0.305,1.378-1.106,2.148-0.931c0.316,1.339-0.763,0.623-0.815,1.721c1.084-0.075,2.146-2.525,3.122-1.192
						c-0.461,0.372-1.123,0.377-1.585,0.745c1.063,1.573,1.189,1.173,1.981,1.424l-0.077-0.034l1.832,0.716l-0.466-0.426
						c1.365-3.48,2.763-0.629,4.596-2.906c-1.781,2.155-0.297,1.249-0.437,2.765c0.465,0.421,1.173,0.892,0.97,1.319
						c0.866-1.221,1.439,0.966,2.662-0.815c0.054,0.488,0.924,0.049,0.726,1.271c1.124-0.377-0.264-0.848-0.167-1.46
						c1.733-1.658,4.062,2.03,6.557-0.252c2.148-0.939,2.548-2.584,4.54-3.397c0.672,0.78-0.553,1.774-0.553,1.774
						c1.084,0.719,1.899,0.588,2.923,0.031c-0.208,0.425,0.005,0.786,0.315,1.333c0.82-0.126,0.551-1.774,1.631-1.053
						c-0.186,0.542-0.424,1.411-0.82,1.957c0.967-0.448,1.922-1.357,2.923-1.795c0.265,0.85-0.604,1.288-0.958,1.842
						c1.125-0.379,2.914-0.765,3.263-2.11l-0.722-0.479c0.41-0.068,0.211,1.152-0.092,1.399c-0.964,1.053-1.39-0.468-1.443-0.957
						l0.712-0.312c-0.729-2.862-2.861,0.455-4.296,0.287l0.6-2.079l-1.473,1.722c-0.312-0.54-0.524-1.702,0.185-2.011
						c-1.026-1.029-0.911,0.736-1.793-0.41c-0.098-0.178-0.053-0.278,0.037-0.359l-1.005,0.616c0.197-0.437-0.165-1.467,0.451-1.168
						c-1.8-1.201-2.909,1.559-3.585-0.02l0.151-0.126c-2.503,0.7-0.245,1.528-2.125,3.315l-1.255-3.769l-0.249,1.528
						c-0.258-0.057-0.769-0.172-0.673-0.782c-0.962,1.044,0.163,0.665-0.396,1.65c-1.239-1.392-3.427,0.64-3.701-1.792
						c-0.448,1.161,1.186,0.899-0.143,1.704c-0.371-2.618-1.534,0.442-2.665-0.76c0.352-1.352,1.425-0.63,0.292-1.84
						c-0.69,2.278-2.208-0.507-3.166-0.073c-0.05,1.816-2.083,0.75-3.69,1.352c0.103-0.61-3.02-1.005-4.512-1.668l0.045-0.303
						c-0.294,1.835-1.834,1.484-2.958,1.861c0.048-1.103,0.251-1.532,0.86-2.024l-1.055,0.007c-0.251,0.585-0.581,0.897-1.266,1.105
						l0.27-1.372c-1.404,0.069-2.832,1.608-4.637,0.684c-0.105,1.279,1.426,3.569-0.487,4.417c-0.068-0.691-0.136-1.875,0.365-2.157
						c-0.164,0.092-0.586,0.574-0.915,0.275l0.768-1.16c-0.821-0.515-0.434,0.971-1.091,0.861c0.017-0.989-0.485-0.707-0.388-1.49
						c0.168-0.095,0.572,0.412,0.825,0.022c-0.741-0.178-1.636-0.767-1.93-1.515c0.062,0.562-0.004,1.328-0.548,1.456
						c-1.404,0.066-0.477-1.19-1.294-1.698c-0.343,0.685-1.236-0.031-1.265,1.446c-0.411-0.008-0.484-0.697-0.642-1.098
						c-0.729,0.649-3.396,0.174-2.581,1.75l0.186,0.103c-0.035,0.029-0.075,0.032-0.119,0.063c0.007,0,0,0,0.007,0h-0.007
						c-2.386,1.462-4.945-0.851-7.311-0.229l0.006-0.493c-1.413,0.562-3.142,0.324-4.152,1.383
						c-0.417-0.001-0.981-0.907-0.802-1.492c-1.079,0.367-1.202,0.921-2.758,0.105c1.087-0.862-0.372-0.768,1.113-0.63
						c-1.4-0.431-1.716-1.222-3.225,0.125c0.517-1.264-1.05-1.594-1.718-1.218l0.979,0.906c-0.749,0.184-1.404,0.07-2.069-0.039
						l0.364-1.664c-2.863-2.028-5.181,3.433-7.356,0.042c-0.762,1.16,1.557,0.821,0.875,2.18c-1.319-0.228-2.688-2.619-3.103-2.625
						c-1.806-0.924-1.69,2.428-3.581,1.793c0.241,0.591,0.467,2.179-0.947,2.732c-1.319-0.223-1.618-2.492-0.784-2.966
						c0.316-0.048,0.469,0.138,0.455,0.34c0.427-0.216,0.987-0.469,0.466-1.112l-0.173,0.593c-0.653-0.607-2.471-0.548-2.042-1.521
						c-0.999,0.564-0.429,0.973,0.311,1.282c-1.692-0.864-2.646-0.03-4.389-0.608c0.276,0.327,0.531,1.023,0.255,1.018
						c-2.556-0.735-1.127,1.125-2.859,1.386c-0.983-0.906,0.354-2.161-1.391-1.401c-1.064-0.616-0.225-1.577,0.2-2.061
						c-1.591,1.145-2.97-0.752-3.878-0.962l0.837-0.479c-0.5,0.286-0.91,0.278-1.328,0.273l0.478,1.187
						c-0.491-0.205-0.907-0.21-0.898-0.704c-0.507,0.776,0.388,1.973-0.617,3.037c-0.655-0.605-1.995,0.645-2.222-0.928
						c2.061,0.532-0.229-1.582,1.517-1.836c-0.337,0.186-0.747,0.181-1.24-0.029c-0.074-0.176,0.069-0.327,0.204-0.415
						c-1.973-1.409-0.906,1.779-2.95,1.743c0.259-0.889-0.475-1.685-0.808-1.494c0.823,0.02,0.395,1.479-0.361,2.16
						c-1.311-0.691-1.424,0.515-2.109,0.432l0.783,0.327c-0.265,0.886-0.92,0.771-1.833,1.05c-0.079-0.691,0.829-0.474,0.503-0.781
						c-1.013,1.562-2.294-1.614-3.706-0.562c-0.656-0.604-0.066-1.67-0.642-2.076c-1.584,1.155-1.72-1.21-3.385-0.255
						c0.482,1.192,0.565,0.899-0.605,2.065l2.738-0.849l-1.755,1.741c0.826,0.015,1.742-0.755,2.238-0.554
						c-0.836,0.977-0.751,0.679-0.354,1.669c-1.134-1.789-2.24,1.047-3.55-0.155l0.034-2.954c-1.97-1.312-3.49,1.525-6.044,0.791
						l0.821,0.51c-0.339,1.178-1.575,0.171-2.4,0.647c0.073-0.987-0.444-1.341-0.8-1.956c0.046,0.732-1.869-0.062-2.093,1.911
						l-1.145-1.297c-2.064-0.525-2.341,2.82-4.323,2.492c0.592-1.076-0.312-1.771,1.012-2.545c-0.661-0.008-1.257-0.187-1.265,0.5
						c-0.39-0.619-1.828,1.334-2.44,0.399c-0.277,0.435-0.363,1.468-1.105,1.39c-0.082-0.2,0-0.488,0-0.488
						c0,0.487-1.159,0.673-0.504,1.759c-2.055-3.062-5.692,0.267-7.484-2.361c-1.442,0.341-3.179,0.672-4.489,0.753
						c0.082-0.294,0-0.491,0.249-0.39c-1.815-0.904-1.088,2.843-3.153,1.834c-1.064-1.588,1.084-0.873,0.424-1.471
						c-0.313-3.247-2.479,0.464-3.881-1.422l0.334-0.193c-1.069-1.095-2.571,1.251-4.303,1.03c0,0,0.082-0.287,0.005-0.489
						c-1.166,1.661-3.398,2.235-5.056,2.722c0.503-1.279,0.748-0.682,0.417-1.971c-0.743,0.196,0.242,2.072-1.241,2.454
						c-0.492-0.689-1.573-1.282-1.732-2.657l1.403-0.095c-0.74-1.774-1.817,0.086-2.561-0.214l0.085-0.78
						c-2.15,0.283-2.154,2.247-4.468,2.137l0.247,0.587c-1.236,1.963-1.074-1.079-2.314,0.383l-0.409-1.967
						c-0.828,0.487-2.894,1.949-4.382,2.34c0.824-1.476,2.563-2.247,3.634-3.131c-0.827-0.003-2.808,0.183-3.224,1.163
						c0.331-0.195,0.743-0.685,1.077-0.386c-0.992,1.566-2.313,2.347-3.96,2.335c0.23-3.822-4.308-0.912-5.555-3.85
						c-2.89,1.477-5.796-0.482-9.19-0.184c1.266,2.95-0.99,0.104-0.718,3.158c-0.787,0.209-1.089,0.167-1.164-0.029l-2.436-1.776
						c-0.588-0.879,0.737-0.689,0.65-1.374c-1.738-0.198-0.755-1.278-1.92-2.07c0.259,1.089-0.568,1.58-1.565,1.183l1.423,1.379
						c-2.384,1.679-2.151-2.519-4.556-0.857l0.75-0.978c-1.239,0.597-4.624,0.067-5.79,2.568c-0.23-0.348-0.544-1.176,0.001-1.412
						c-3.006-0.28-6.593,2.808-8.961,1.365l0.206-0.753c-0.552,0.233-0.932,1.432-1.652,0.701c0.027-0.309,0.203-0.753-0.057-0.79
						c-0.288,0.267-1.445,1.354-2.198,0.939l0.607-0.858c-2.951-0.893-4.419,2.179-6.848,2.764
						c-0.065-2.199-2.386-2.849-3.546-3.171l0.03-0.311c-3.412-0.158-5.715,2.044-8.829,3.026c-2.044-2.309-6.658-0.74-9.854-1.954
						c0.497,0.379-0.007,1.716-0.556,1.957c-0.756-0.415-1.972,1.607-1.941-0.412l0.264,0.026c-0.64-1.956-2.134-1.37-3.319-1.377
						l-0.078,2.645c-3.268-3.704-8.035,1.813-9.887-1.543c-0.714,0.696-1.639,0.738-2.346,1.434l-0.031-1.417
						c-2.087-0.256-3.13-0.384-5.67,0.084l0.468-1.038c-1.449-0.015-1.604,4.168-2.928,4.319l-0.515-2.088
						c-2.512,0.156-5.167-1.57-7.541,0.517c0.022-0.312,0.061-0.928,0.463-1.037c-1.187,0.019-4.668-1.137-4.062,1.731
						c-0.145-1.884-2.607-0.02-3.912,0.897l0.124-1.405c-1.034,1.852-1.04,2.339-2.606,2.933c-0.391-0.158-0.404-1.092,0.122-0.769
						c-1.31-0.648-0.898,1.378-2.477,0.735l0.513-0.923c-1.307-0.024-1.172,0.446-1.818,1.527c-0.779,0.61-2.487-0.197-2.765-1.441
						c-0.124,0.779-0.764,1.849-1.554,1.535c-0.136-0.468,0.122-0.781,0.253-0.934c-2.24-0.806-3.117,1.816-4.706,0.574
						c-0.064-0.458-0.178-0.679-0.312-0.811c1.728-0.109,3.124-0.113,3-0.004c-0.089-1.281-1.501-1.419-0.515-3.258
						c-1.055,1.026-2.818,3.294-4.22,2.793c-0.075-0.119-0.148-0.235-0.212-0.429l0.13-0.155c-0.323-0.102-0.595,0.037-0.844,0.274
						c-0.449-0.178-0.736-0.312-1.154-0.296c-0.239-1.046-1.643-0.447-2.342-0.446c0.164,1.397-0.763,1.245,0.177,2.334
						c-0.119-0.091,0.118-0.178,0.576-0.273c0.102-0.047,0.223-0.079,0.285-0.167c-0.011,0.037-0.024,0.082-0.038,0.128
						c0.453-0.077,1.046-0.156,1.72-0.23c-0.496,0.756-1.024,1.4-1.851,0.681c-0.289,0.929-0.61,1.885-0.798,2.337
						c-1.098-1.88-3.013-2.793-3.362-3.978c-2.062,0.953-4.963,0.91-6.08,3.647c-0.575,0.383-0.755-0.7-1.015-1.096
						c0.326-0.292,0.744-0.284,0.901-0.678c-1.15,0.771-3.552,0.543-3.684,2.404c-1.59-0.713,0.71-1.76-1.352-1.295l0.233-0.586
						c-4.371-2.594-6.253,5.311-11.14,1.962c0.336,0.201,0.504,0.293,0.597,0.593c-5.346-1.155-10.524,2.543-15.905,0.455
						c-1.509-0.364-1.542,0.824-2.332,1.815l-0.476-1.467l-1.327,1.905c-2.003,1.511-4.129-3.261-6.581-0.555l0.467,0.972
						c-0.999-0.081-3.023,0.945-2.995-0.232c-0.079,0.195-0.198,1.084-0.641,0.604l-0.122-0.782l-2.239,1.615
						c-1.927-0.356-0.081-3.146-2.817-2.99c-0.975,0.418-2.596,2.609-2.151,3.093c0.412-0.008,1.1,0.368,1.227,1.152l-0.871,0.512
						c0.117,2.331-0.292,4.775,2.155,6.134l1.396-1.591l0.641,1.065l-1.311,0.217c0.876,0.973,1.237-0.015,1.691-0.717
						c0.197,0.582,0.467,0.974,0.805,1.161l1.276-2.383c0.293,0.883-0.478,1.875,0.614,2.257c0.6-1.109-0.931-1.951,0.184-2.761
						c0.874,0.965,0.755,1.849,1.53,0.852c0.193,0.58,0.051,0.981-0.268,1.283c0.7-0.805,2.037-0.538,2.301-1.814
						c0.93,1.209,2.608-0.638,2.778,1.562c0.187-0.553,1.187-1.877,1.897-2.049c-1.025,2.771,2.711-0.153,2.669,2.699
						c0.717-2.47,3.397-1.447,4.983-2.951c-0.077,0.197-0.227,0.598-0.392,0.496c0.991,0.088,1.348,0.782,2.018,1.166
						c-0.076-1.959,1.393-2.55,2.089-3.83c1.382,1.77-0.493,2.357,0.064,4.129c-0.22-1.575,1.911-1.772,1.374-3.051
						c1.028,1.077,0.842,0.488,1.472,2.062c-0.082-2.455,0.807-0.494,1.417-2.062c1.436,1.075,0.562,2.252,1.938,1.371
						C41.306,35.075,40.103,36.06,40.103,36.06z M74.233,28.906c0.001,0.015,0.001,0.024,0.002,0.029
						c-0.295,0.056-0.547,0.104-0.708,0.134C73.675,29.035,73.878,28.988,74.233,28.906z M77.136,28.657
						c-0.357-0.028-0.798-0.004-1.264,0.042c-0.136-0.474-0.062-0.981,0.232-0.978C75.969,28.056,76.674,28.282,77.136,28.657z
						 M70.265,19.427c0.448-0.236,0.624,0.027,0.708,0.309c-0.217,0.042-0.469,0.108-0.797,0.231
						c-0.011,0.047-0.03,0.126-0.042,0.175C70.159,19.871,70.191,19.619,70.265,19.427z"/>
					<path fill="#C1282D" d="M69.572,21.327c-0.064,0.037-0.096,0.101-0.183,0.117c0.104,0.117,0.202,0.214,0.299,0.295
						c0.045-0.154,0.09-0.311,0.131-0.451C69.736,21.301,69.649,21.315,69.572,21.327z"/>
					<path fill="#C1282D" d="M334.51,17.379l-0.062-0.034c0.051,0.059,0.098,0.112,0.128,0.2
						C334.536,17.477,334.536,17.433,334.51,17.379z"/>
					<polygon fill="#C1282D" points="117.446,28.99 117.425,28.64 117.186,28.959 					"/>
					<path fill="#C1282D" d="M350.58,22.254c0.03,0.122,0.091,0.249,0.21,0.359C350.781,22.521,350.69,22.391,350.58,22.254z"/>
					<path fill="#C1282D" d="M357.528,22.586l0.981,0.506C358.086,22.806,357.776,22.67,357.528,22.586z"/>
					<path fill="#C1282D" d="M362.87,23.3c0.068-0.246,0.088-0.432,0.106-0.6c-0.005-0.005-0.008-0.005-0.011-0.012L362.87,23.3z"/>
					<path fill="#C1282D" d="M277.939,24.762c-0.072,0.01-0.143,0.027-0.206,0.063C277.25,25.099,277.579,24.992,277.939,24.762z"/>
					<path fill="#C1282D" d="M303.21,21.498c-0.269,0.253-0.533,0.501-0.813,0.662C302.846,22.269,303.195,22.296,303.21,21.498z"/>
					<path fill="#C1282D" d="M249.744,26.53c0.002-0.016,0.001-0.009,0.003-0.024c-0.061,0.005-0.114,0-0.174,0.001L249.744,26.53z"
						/>
					<path fill="#C1282D" d="M301.222,22.133c0.449,0.28,0.825,0.222,1.175,0.027C302.027,22.064,301.594,21.919,301.222,22.133z"/>
					<path fill="#C1282D" d="M386.032,23.978l0.258,0.059c-0.005-0.093,0.011-0.168,0.03-0.227L386.032,23.978z"/>
					<path fill="#C1282D" d="M386.32,23.81l0.286-0.166C386.476,23.644,386.361,23.656,386.32,23.81z"/>
					<path fill="#C1282D" d="M387.209,23.293l-0.603,0.351C386.814,23.649,387.072,23.693,387.209,23.293z"/>
					<path fill="#C1282D" d="M378.958,23.319l-0.082,0.51C378.92,23.722,378.949,23.561,378.958,23.319z"/>
					<path fill="#C1282D" d="M376.808,23.465c0.513,0.115,1.285,1.088,2.001,0.769l0.067-0.405
						C378.538,24.586,377.296,22.606,376.808,23.465z"/>
					<path fill="#C1282D" d="M367.849,17.15l1.8,0.412c-0.313-0.542-0.726-1.275,0.093-1.403
						C367.476,14.536,370.207,17.374,367.849,17.15z"/>
					<path fill="#C1282D" d="M362.267,16.346c0.969-0.249-0.009-0.786,0.043-1.094C361.694,15.743,361.546,15.87,362.267,16.346z"/>
					<path fill="#C1282D" d="M321.913,16.215l0.102-1.279C321.268,15.119,322.006,15.434,321.913,16.215z"/>
					<polygon fill="#C1282D" points="314.181,22.808 314.904,23.605 315.252,22.434 					"/>
					<polygon fill="#C1282D" points="309.645,13.686 309.971,13.506 308.726,13.967 					"/>
					<path fill="#C1282D" d="M241.82,14.236l0.236,1.575C242.56,15.524,242.654,13.754,241.82,14.236z"/>
					<path fill="#C1282D" d="M212.549,16.138c-0.33-0.784-1.161-1.278-1.658-0.5C211.551,15.739,212.216,16.342,212.549,16.138z"/>
					<polygon fill="#C1282D" points="124.604,15.979 125.17,15.425 124.079,15.918 					"/>
				</g>
			</g>
		</g>
	</g>
</g>
</svg>
